<svg xmlns="http://www.w3.org/2000/svg" fill="#1f6cb9" viewBox="0 0 1330 1330">
  <path fill-rule="evenodd" d="M675.9 1.1c12.3 2.8 10.1.8 100.1 90.6l84.5 84.3H989l134.9 1.5c17 4.1 30.9 17.1 36.7 34.5l2.2 136 .2 130.5 79.3 79.5c59.7 59.8 80 80.8 82 84.6 7.4 14.1 7.6 30.4.4 45.1-2.7 5.6-11.4 14.6-82.3 85.5l-79.3 79.2-.4 128c-.3 140.6.2 130-6.2 142.7-3.5 6.7-13.5 16.8-20 20.2-12 6-4 5.7-142.9 5.7H866.5l-86.5 86.4c-69.4 69.4-87.5 86.9-91.7 89-11.2 5.6-23.2 7-34.6 4-7.9-2-12.9-4.6-20.2-10.5l-88-86.8-81.9-82.1-128.1-.2-128-.3-5.5-2.4c-16.3-7.2-28-21.5-30.9-37.5l-1.1-130V854.5L90.4 775 7.8 691.1c-10.5-14.9-10.5-38.6-.2-54.1l83-84.9 79.4-79.5V347.1l1.5-131.9c4.5-19 19.4-33.8 37.9-37.8l132-1.4h125.9l83.3-83.2L638.2 7c4.1-2.6 11.1-5.4 15.3-6.3 3.9-.9 18.1-.6 22.4.4zM645.2 64c-6.3 2.9-11.7 8.1-85.2 81.6L481.4 224H371c-118.3 0-113.9-.2-123.9 5-4.9 2.5-15.3 12.5-17.7 17.1-.9 1.8-2.5 5.7-3.5 8.7-1.8 5.3-1.9 10.3-1.9 116.1v110.5L145.6 560c-71.5 71.7-78.6 79.1-81.4 85-6.3 13-6.3 27.2-.1 40 2.9 5.9 10.3 13.6 81.5 85l78.4 78.6V959c0 118.3-.2 113.9 5 123.9 2.7 5.4 12.7 15.4 18.2 18.2 9.7 5 7 4.9 124.3 4.9h109.9l78.1 77.8c59.2 59.2 79.3 78.6 83.5 80.9 5.9 3.3 16.5 6.3 22 6.3s16.1-3 22-6.3c4.2-2.3 24.3-21.7 83.5-80.9l78.1-77.8h109.9c117.3 0 114.6.1 124.3-4.9 5.5-2.8 15.5-12.8 18.2-18.2 5.2-10 5-5.6 5-123.9V848.6l78.4-78.6c71.2-71.4 78.6-79.1 81.5-85 6.2-12.8 6.2-27-.1-40-2.8-5.9-9.9-13.3-81.4-85l-78.4-78.6V370.9c0-105.8-.1-110.8-1.9-116.1-1-3-2.6-6.9-3.5-8.7-2.4-4.6-12.8-14.6-17.7-17.1-10-5.2-5.6-5-123.9-5H848.6L770 145.6c-73-73-79-78.7-85.1-81.6-3.7-1.7-9.3-3.5-12.5-4-10-1.7-17.5-.6-27.2 4zm26.1 25.4 83.9 82 80.7 80.6 115.4.2 115.3.3 3.6 2.5c2 1.3 4.4 3.8 5.5 5.5l2.1 118.5.2 115.4 80.8 80.8 81.9 83.5c1.6 3.8 1.6 8.7-.1 12.6l-82 83.7-80.6 80.5-.2 115.5-.3 115.5-2.2 3.5c-1.2 1.9-3.7 4.4-5.5 5.5-3.2 2-5.3 2-118.8 2.3l-115.5.3-80.5 80.6-83.7 81.9c-4.1 1.8-8.5 1.8-12.7 0l-83.8-82-80.4-80.6-115.5-.2c-113.4-.3-115.5-.3-118.7-2.3-1.8-1.1-4.3-3.6-5.5-5.5l-2.2-3.5-.3-115.5-.2-115.5-80.6-80.5-82-83.7c-1.7-3.9-1.7-8.8-.1-12.6l81.9-83.6 80.8-80.8.2-115.4c.3-113.4.3-115.5 2.3-118.7 1.1-1.8 3.6-4.3 5.5-5.5l3.5-2.2 115.3-.3 115.3-.2 80.7-80.7 83.7-81.9c3.9-1.7 8.8-1.7 12.8 0zm-284 372.5c-3 10.6 1.8 21.5 11.8 26.5 15.5 7.7 33.1-3.1 33.1-20.4 0-10-5.1-17.5-14.5-21.5-12.4-5.2-26.4 1.9-30.4 15.4zm61 0c-3 10.6 1.8 21.5 11.8 26.5 15.5 7.7 33.1-3.1 33.1-20.4 0-10-5.1-17.5-14.5-21.5-12.4-5.2-26.4 1.9-30.4 15.4zm60.7 1.2c-4.5 18.7 15.8 34.1 33.1 25.1 9.5-4.9 14.5-16.5 11.5-26.5-2-6.6-5.8-11.3-11.6-14.2-13.5-6.9-29.4.6-33 15.6zm-12.5 58.4-55.2-.3-55.3-.3V770h99.7l6.8 4.6.6 14.9c.9 22.3 5.2 33 18.3 46 10.3 10.2 26.4 17.4 38.9 17.5h3.8l-.4-41.8c-.3-39.1-.5-42.2-2.6-50.2-6.2-23.9-21.2-39.9-42.7-45.4-9.1-2.3-24.8-3.6-44.5-3.6H446v-10.6c0-12.2 1.4-16.5 6.4-19.2 2.7-1.5 5.6-1.7 20.6-1.4l49.9-.4 32.4-.6-.6-47.2c-.7-53.1-1-55.7-8.7-70.8-9.5-18.8-22.8-30.9-41.5-37.5zm228 0-55.2-.3-55.3-.3V585h49.1c54.2 0 53.6-.1 57.4 6.3 1.5 2.5 2 5.6 2.3 14.3l.4 11.2-26.8.5c-29.2.5-35.7 1.5-47.8 7.2-13.1 6.2-24.3 19.5-29 34.4-5.2 16.5-5.1 15.4-5.1 83.1v63.5l2.3 6.5c3.6 10 8 16.9 15.1 24 10.1 10 25.9 17 38.1 17h4v-84c0-80.9.1-84.2 1.9-87.8 3.5-6.8 2.1-6.7 57.5-7l49.9-.3-.6-43.7c-.6-49.1-1.1-53.2-8.3-67.5-9.9-19.8-23-31.7-42.3-38.5zm120.3-.5H842l.2 142.7.3 142.8 2.7 7.4c7.8 21.5 26.3 36.2 48.6 38.7l6.2.7V713.4l-1.5-146.9c-4.7-22.3-23-40.4-44.9-44.4-3.3-.6-7.2-1.1-8.8-1.1zm87.8 298.2c-6.2 12.4-1.2 26.3 11.6 31.8 17.2 7.4 35.9-9.3 30.8-27.4-1.5-5.4-6.9-12-11.9-14.5-11.5-5.8-24.8-1.4-30.5 10.1z"/>
  <path d="m446 584.9 20.3.3c17.5.3 20.6.5 22.9 2.1 4.1 2.8 5.8 8.4 5.8 19.2v9.5h-49v-15.6z"/>
</svg>
