<svg xmlns="http://www.w3.org/2000/svg" viewBox="0 0 1330 1330">
  <g fill="#1f6cb9">
    <path fill-rule="evenodd" d="M630.1 14.1c18.7-18.8 49.1-18.8 67.8 0l167.2 167.2H462.9zm685.5 617.6c18.8 18.8 18.8 49.2 0 67.9l-166 166V465.7zm-616 683.9c-18.7 18.8-49.1 18.8-67.9 0l-167.2-167.2h402.3zM14.1 697.9c-18.8-18.7-18.8-49.1 0-67.8l166-166V864zm166 402.5c0 26.5 21.5 48 48 48h236.4L180.1 863.9zm921.5 48c26.5 0 48-21.5 48-48V865.6l-282.8 282.8zm48-919.1c0-26.5-21.5-48-48-48H865.1l284.5 284.4zm-921.5-48c-26.5 0-48 21.5-48 48v234.8l282.8-282.8z"/>
    <rect width="991.5" height="972.5" x="170.6" y="176.6" rx="50"/>
    <path fill-rule="evenodd" stroke="#fff" stroke-linejoin="round" stroke-width="28" d="M643.8 82.3c11.7-11.7 30.7-11.7 42.4 0L841.9 238H488.1zm603.9 561.5c11.7 11.7 11.7 30.7 0 42.4L1092 841.9V488.1zm-561.5 603.9c-11.7 11.7-30.7 11.7-42.4 0L488.1 1092h353.8zM82.3 686.2c-11.7-11.7-11.7-30.7 0-42.4L238 488.1v353.8zM238 1062c0 16.6 13.4 30 30 30h220.1L238 841.9zm824 30c16.6 0 30-13.4 30-30V841.9L841.9 1092zm30-824c0-16.6-13.4-30-30-30H841.9L1092 488.1zm-824-30c-16.6 0-30 13.4-30 30v220.1L488.1 238z"/>
    <path d="M647.3 98.6a24.99 24.99 0 0 1 35.4 0l548.7 548.7a24.99 24.99 0 0 1 0 35.4l-548.7 548.7a24.99 24.99 0 0 1-35.4 0L98.6 682.7a24.99 24.99 0 0 1 0-35.4zM252 277c0-13.8 11.2-25 25-25h776c13.8 0 25 11.2 25 25v776c0 13.8-11.2 25-25 25H277c-13.8 0-25-11.2-25-25z"/>
  </g>
  <g fill="#fff">
    <path d="M899.6 577.9v274.7c-31.6 0-57.2-25.7-57.2-57.3V520.6v.6c31.6 0 57.2 25 57.2 56.7zm-117.4 96h-91.8c-10.5-.1-17 3.8-17 17v161.9c-32.6 0-58.9-26.3-58.9-58.9V689.4c.2-10.8 3.3-27.8 8-37.4 12.8-26.4 34.2-33.8 63.3-34.7 9.9-.3 23.6-.4 37.5-.4v-15.3c0-13.3-6.5-17.2-17-17-26.3.4-87.3 0-91.8 0v-63.4h96.4c29.1.8 50.5 15.1 63.3 41.4 4.7 9.6 7.4 19.9 7.6 30.7.1 3.5.4 7 .4 10.5v70.1z"/>
    <ellipse cx="409.4" cy="467.9" rx="22.8" ry="22.9"/>
    <ellipse cx="470.4" cy="467.9" rx="22.8" ry="22.9"/>
    <ellipse cx="531.5" cy="467.9" rx="22.8" ry="22.9"/>
    <ellipse cx="952.8" cy="829.7" rx="22.8" ry="22.9"/>
    <path fill-rule="evenodd" d="M554.3 616.5v57.3q0 3.4-.1 6.3h-91.7c-7.4-.2-12.9 1.8-15.5 7.6-1 2.4-1.6 5.5-1.6 9.3v15.3l37.6.5c29.1.8 50.5 8.3 63.3 34.6 4.7 9.6 7.4 26.7 7.6 37.5q.1 2.8 0 67.9c-33.5 0-60.6-27.1-60.6-60.6V776c-2.4-4.3-6.5-6.2-12.1-6.5q0-.1-.1 0c-1.7-.1-91.6-.1-94.5-.1V521.2q86.5-.3 96.4 0c29.1.8 50.5 15.1 63.3 41.4 4.7 9.6 7.4 19.9 7.6 30.7q.1 3.5.4 23.2zm-58.9-14.9c0-13.2-6.6-17.2-17.1-17-8.4.2-20.3 0-32.9 0v31.9h50z"/>
  </g>
</svg>
