<svg xmlns="http://www.w3.org/2000/svg" viewBox="0 0 1330 1330">
  <path d="M653.5.7c-4.2.9-11.2 3.7-15.3 6.3-2.3 1.4-41.7 40.1-87.6 85.8L467.3 176H341.4l-132 1.4c-18.5 4-33.4 18.8-37.9 37.8-1.3 5.4-1.5 24.7-1.5 131.9v125.5l-79.4 79.5-83 84.9c-10.3 15.5-10.3 39.2.2 54.1 1.7 2.4 38.9 40.2 82.6 83.9l79.6 79.5v124.1l1.1 130c2.9 16 14.6 30.3 30.9 37.5l5.5 2.4 128 .3 128.1.2 81.9 82.1 88 86.8c7.3 5.9 12.3 8.5 20.2 10.5 11.4 3 23.4 1.6 34.6-4 4.2-2.1 22.3-19.6 91.7-89l86.5-86.4h127.1c138.9 0 130.9.3 142.9-5.7 6.5-3.4 16.5-13.5 20-20.2 6.4-12.7 5.9-2.1 6.2-142.7l.4-128 79.3-79.2c70.9-70.9 79.6-79.9 82.3-85.5 7.2-14.7 7-31-.4-45.1-2-3.8-22.3-24.8-82-84.6l-79.3-79.5-.2-130.5-2.2-136c-5.8-17.4-19.7-30.4-36.7-34.5-5.5-1.3-23.8-1.5-134.9-1.5H860.5L776 91.7C686 1.9 688.2 3.9 675.9 1.1c-4.3-1-18.5-1.3-22.4-.4zM672.4 60c3.2.5 8.8 2.3 12.5 4 6.1 2.9 12.1 8.6 85.1 81.6l78.6 78.4H959c118.3 0 113.9-.2 123.9 5 4.9 2.5 15.3 12.5 17.7 17.1.9 1.8 2.5 5.7 3.5 8.7 1.8 5.3 1.9 10.3 1.9 116.1v110.5l78.4 78.6c71.5 71.7 78.6 79.1 81.4 85 6.3 13 6.3 27.2.1 40-2.9 5.9-10.3 13.6-81.5 85l-78.4 78.6V959c0 118.3.2 113.9-5 123.9-2.7 5.4-12.7 15.4-18.2 18.2-9.7 5-7 4.9-124.3 4.9H848.6l-78.1 77.8c-59.2 59.2-79.3 78.6-83.5 80.9-5.9 3.3-16.5 6.3-22 6.3s-16.1-3-22-6.3c-4.2-2.3-24.3-21.7-83.5-80.9l-78.1-77.8H371.5c-117.3 0-114.6.1-124.3-4.9-5.5-2.8-15.5-12.8-18.2-18.2-5.2-10-5-5.6-5-123.9V848.6L145.6 770c-71.2-71.4-78.6-79.1-81.5-85-6.2-12.8-6.2-27 .1-40 2.8-5.9 9.9-13.3 81.4-85l78.4-78.6V370.9c0-105.8.1-110.8 1.9-116.1 1-3 2.6-6.9 3.5-8.7 2.4-4.6 12.8-14.6 17.7-17.1 10-5.2 5.6-5 123.9-5h110.4l78.6-78.4c73.5-73.5 78.9-78.7 85.2-81.6 9.7-4.6 17.2-5.7 27.2-4zm-13.9 29.4c-1.6.7-39.3 37.6-83.7 81.9L494.1 252l-115.3.2-115.3.3-3.5 2.2c-1.9 1.2-4.4 3.7-5.5 5.5-2 3.2-2 5.3-2.3 118.7l-.2 115.4-80.8 80.8-81.9 83.6c-1.6 3.8-1.6 8.7.1 12.6.8 1.9 34.7 36.5 82 83.7l80.6 80.5.2 115.5.3 115.5 2.2 3.5c1.2 1.9 3.7 4.4 5.5 5.5 3.2 2 5.3 2 118.7 2.3l115.5.2 80.4 80.6 83.8 82c4.2 1.8 8.6 1.8 12.7 0 1.9-.8 36.1-34.3 83.7-81.9l80.5-80.6 115.5-.3c113.5-.3 115.6-.3 118.8-2.3 1.8-1.1 4.3-3.6 5.5-5.5l2.2-3.5.3-115.5.2-115.5 80.6-80.5 82-83.7c1.7-3.9 1.7-8.8.1-12.6-.7-1.5-37.5-39.1-81.9-83.5l-80.8-80.8-.2-115.4-2.1-118.5c-1.1-1.7-3.5-4.2-5.5-5.5l-3.6-2.5-115.3-.3-115.4-.2-80.7-80.6-83.9-82c-4-1.7-8.9-1.7-12.8 0zM417.7 446.5c9.4 4 14.5 11.5 14.5 21.5 0 17.3-17.6 28.1-33.1 20.4-10-5-14.8-15.9-11.8-26.5 4-13.5 18-20.6 30.4-15.4zm61 0c9.4 4 14.5 11.5 14.5 21.5 0 17.3-17.6 28.1-33.1 20.4-10-5-14.8-15.9-11.8-26.5 4-13.5 18-20.6 30.4-15.4zm63.3 1c5.8 2.9 9.6 7.6 11.6 14.2 3 10-2 21.6-11.5 26.5-17.3 9-37.6-6.4-33.1-25.1 3.6-15 19.5-22.5 33-15.6zm-37.5 76.8c18.7 6.6 32 18.7 41.5 37.5 7.7 15.1 8 17.7 8.7 70.8l.6 47.2-32.4.6-49.9.4c-15-.3-17.9-.1-20.6 1.4-5 2.7-6.4 7-6.4 19.2V712h17.9c19.7 0 35.4 1.3 44.5 3.6 21.5 5.5 36.5 21.5 42.7 45.4 2.1 8 2.3 11.1 2.6 50.2l.4 41.8h-3.8c-12.5-.1-28.6-7.3-38.9-17.5-13.1-13-17.4-23.7-18.3-46l-.6-14.9-3.4-2.3-3.4-2.3H386V520.9l55.3.3 55.2.3 8 2.8zm227.6-.1c19.3 6.8 32.4 18.7 42.3 38.5 7.2 14.3 7.7 18.4 8.3 67.5l.6 43.7-49.9.3c-55.4.3-54 .2-57.5 7-1.8 3.6-1.9 6.9-1.9 87.8v84h-4c-12.2 0-28-7-38.1-17-7.1-7.1-11.5-14-15.1-24l-2.3-6.5V742c0-67.7-.1-66.6 5.1-83.1 4.7-14.9 15.9-28.2 29-34.4 12.1-5.7 18.6-6.7 47.8-7.2l26.8-.5-.4-11.2c-.3-8.7-.8-11.8-2.3-14.3-3.8-6.4-3.2-6.3-57.4-6.3H614v-64.1l55.3.3 55.2.3 7.6 2.7zm121.5-2.1c21.9 4 40.2 22.1 44.9 44.4 1.2 6 1.5 27.7 1.5 146.9v139.9l-6.2-.7c-22.3-2.5-40.8-17.2-48.6-38.7l-2.7-7.4-.3-142.8L842 521h2.8c1.6 0 5.5.5 8.8 1.1zm109.5 287c5 2.5 10.4 9.1 11.9 14.5 5.1 18.1-13.6 34.8-30.8 27.4-12.8-5.5-17.8-19.4-11.6-31.8 5.7-11.5 19-15.9 30.5-10.1z"/>
  <path d="M446 600.4V616h49v-9.5c0-10.8-1.7-16.4-5.8-19.2-2.3-1.6-5.4-1.8-22.9-2.1l-20.3-.3v15.5z"/>
</svg>
