<svg version="1.2" xmlns="http://www.w3.org/2000/svg" viewBox="0 0 2010 2010" width="2010" height="2010"><style>.s0{fill:#2c78b7}.s1{fill:#ffffff}</style><path fill-rule="evenodd" class="s0" d="m1716.6 294v588.7l-28-28l-1.5 1.5c-41.3 41.3-62 95.4-62 149.6c0 54.1 20.7 108.2 62 149.5l29.5-29.4v589.7h-589.8l29.5-29.5c-82.6-82.6-216.5-82.6-299.2 0l-1.4 1.5l28 28h-588.8v-588.7l28 28l1.5-1.5c41.3-41.3 62-95.4 62-149.6c0-54.1-20.7-108.2-62-149.5l-29.5 29.4v-589.7h589.8l-29.5 29.5c82.6 82.6 216.6 82.6 299.2 0l1.4-1.5l-28-28zm-1299.7 334.1h2.1c58.4 0 111.2-23.7 149.5-62c38.3-38.2 62-91.1 62-149.5h-213.6zm213.6 964.9c0-116.8-94.7-211.5-211.5-211.5h-2.1v211.5zm877.3-588.2c0-277.3-224.8-502-502-502c-277.2 0-501.9 224.7-501.9 502c0 277.2 224.7 501.9 501.9 501.9c277.2 0 502-224.7 502-501.9zm86.9 376.7h-2c-58.4 0-111.3 23.6-149.6 61.9c-38.3 38.3-61.9 91.2-61.9 149.6h213.5zm0-964.9h-213.5c0 116.8 94.7 211.5 211.5 211.5h2z" /><path fill-rule="evenodd" class="s0" d="m2011 1004.8l-416.3 416.3v-39.6h-2.1c-58.4 0-111.3 23.7-149.6 62c-38.2 38.2-61.9 91.1-61.9 149.5h41.6l-416.9 417l-417-417h41.6c0-116.8-94.7-211.5-211.5-211.5h-2.1v39.6l-416.3-416.3l416.3-416.3v39.6h2.1c58.4 0 111.3-23.7 149.6-62c38.2-38.2 61.9-91.1 61.9-149.5h-41.6l416.9-417l417 417h-41.6c0 116.8 94.7 211.5 211.5 211.5h2.1v-39.6zm-1624.6-1c0-54.1-20.7-108.2-62-149.5l-151 151l149.6 149.6l1.4-1.5c41.3-41.3 62-95.4 62-149.6zm468.8-680.3c82.6 82.6 216.6 82.6 299.2 0l1.4-1.5l-149.6-149.6zm271.7 1392.2l29.4-29.5c-82.6-82.6-216.5-82.6-299.1 0l-1.5 1.5l149.6 149.5zm380.9-710.8c0-277.2-224.8-501.9-502-501.9c-277.2 0-501.9 224.7-501.9 501.9c0 277.3 224.7 502 501.9 502c277.2 0 502-224.7 502-502zm330.4-0.5l-149.6-149.5l-1.4 1.4c-41.4 41.3-62 95.5-62 149.6c0 54.1 20.6 108.3 62 149.6z" /><path class="s1" d="m1005.7 1004.7c0.1 0.5 0.1-0.1 0 0z" /><path class="s0" d="m851.6 959.8v14.1h-47.2v-30.2c11.9 0 23.2 0.1 31.1 0c9.9-0.2 16.1 3.5 16.1 16.1z" /><path fill-rule="evenodd" class="s0" d="m1432.8 1004.8c0 235.8-191.2 427-427 427c-235.9 0-427-191.2-427-427c0-235.8 191.1-427 427-427c235.8 0 427 191.2 427 427zm-626.3-171.1c0 12 9.6 21.7 21.6 21.7c11.9 0 21.6-9.7 21.6-21.7c0-11.9-9.7-21.6-21.6-21.6c-12 0-21.6 9.7-21.6 21.6zm-57.7 0c0 12 9.6 21.7 21.6 21.7c11.9 0 21.6-9.7 21.6-21.7c0-11.9-9.7-21.6-21.6-21.6c-12 0-21.6 9.7-21.6 21.6zm158.5 140.2q-0.3-18.7-0.4-22c-0.1-10.2-2.7-20-7.1-29c-12.2-25-32.4-38.6-59.9-39.4q-9.4-0.2-91.1 0q0 228.5 0 235.3c2.7 0 87.7 0.1 89.3 0.1q0.1 0 0.1 0c5.2 0.3 9.2 2.1 11.4 6.2v15.3c0 31.8 25.7 57.6 57.3 57.6q0.1-61.8 0-64.5c-0.2-10.2-2.7-26.4-7.1-35.5c-12.2-25-32.4-32-59.9-32.8c-9.4-0.3-22.3-0.4-35.5-0.4v-14.5c0-3.7 0.5-6.6 1.5-8.9c2.4-5.5 7.6-7.4 14.6-7.2c24.9 0.4 82.5 0 86.7 0q0.1-2.8 0.1-6zm0.1-140.1c0-12-9.7-21.6-21.7-21.6c-11.9 0-21.6 9.6-21.6 21.6c0 11.9 9.7 21.6 21.6 21.6c12 0 21.7-9.7 21.7-21.6zm215.4 128.1c0-3.3-0.3-6.7-0.3-10c-0.2-10.2-2.8-19.9-7.2-29c-12.1-25-32.3-38.5-59.9-39.3c-32.1-0.4-43.7 0-91.1 0c0 18.4 0 45.6 0 60.1c4.3 0 61.9 0.4 86.8 0c9.9-0.2 16.1 3.5 16.1 16.1v14.5c-13.2 0-26.1 0.1-35.5 0.4c-27.5 0.8-47.7 7.9-59.9 32.8c-4.4 9.1-7.3 25.3-7.5 35.6c0 2 0 55.2 0 99c0 30.9 24.9 55.9 55.7 55.9v-153.5c0-12.6 6.2-16.3 16.1-16.1c7.9 0.1 83.8 0 86.7 0c0-6.9 0-54.8 0-66.5zm111.1-24.6c0-30-24.3-53.7-54.2-53.7v259.8c0 30 24.3 54.3 54.2 54.3zm72 238.4c0-11.9-9.7-21.6-21.6-21.6c-11.9 0-21.6 9.7-21.6 21.6c0 11.9 9.7 21.6 21.6 21.6c11.9 0 21.6-9.7 21.6-21.6z" /></svg>