<svg xmlns="http://www.w3.org/2000/svg" viewBox="0 0 24 24">
    <path
      d="m12 2.163 4.85.07c3.252.148 4.771 1.691 4.919 4.919l.069 4.849-.069 4.849c-.149 3.225-1.664 4.771-4.919 4.919l-4.85.07c-3.204 0-3.584-.012-4.849-.07-3.26-.149-4.771-1.699-4.919-4.92L2.162 12l.07-4.849c.149-3.227 1.664-4.771 4.919-4.919L12 2.163zM12 0 7.053.072C2.695.272.273 2.69.073 7.052L0 12l.072 4.948c.2 4.358 2.618 6.78 6.98 6.98L12 24l4.948-.072c4.354-.2 6.782-2.618 6.979-6.98L24 12l-.072-4.947c-.196-4.354-2.617-6.78-6.979-6.98L12 0zm0 5.838c-3.403 0-6.162 2.759-6.162 6.162S8.597 18.163 12 18.163s6.162-2.759 6.162-6.163S15.403 5.838 12 5.838zM12 16a4 4 0 1 1 0-8 4 4 0 1 1 0 8zm6.406-11.845a1.44 1.44 0 1 0 0 2.88 1.44 1.44 0 0 0 0-2.88z"
    />
  </svg>