<svg xmlns="http://www.w3.org/2000/svg" xmlns:xlink="http://www.w3.org/1999/xlink" width="243" height="26.55" preserveAspectRatio="none" viewBox="0 0 84.739 10.665"><style>.B{stroke-linejoin:round}.C{fill-rule:evenodd}.D{stroke-width:.1}.E{stroke-linecap:round}.F{fill:#fff}.G{stroke:#000}.H{stroke-width:.378}.I{fill:#d785ad}</style><defs><linearGradient id="A" gradientUnits="userSpaceOnUse"><stop offset="0" stop-color="#d6619c"/><stop offset="1" stop-color="#e5a3c2"/></linearGradient><linearGradient id="B" gradientUnits="userSpaceOnUse"><stop offset="0" stop-color="#fff"/><stop offset=".318" stop-color="#466d7f"/><stop offset=".574" stop-color="#f9fcfe"/><stop offset="1" stop-color="#466d7f"/></linearGradient><linearGradient id="C" gradientUnits="userSpaceOnUse"><stop offset="0" stop-color="#466d7f"/><stop offset="1" stop-color="#34515e"/></linearGradient><linearGradient xlink:href="#B" id="D" x1="83.157" x2="72.75" y1="121.695" y2="121.955"/><linearGradient xlink:href="#C" id="E" x1="60.029" x2="66.971" y1="123.068" y2="123.104"/><linearGradient xlink:href="#C" id="F" x1="59.526" x2="53" y1="128.04" y2="128.04"/><linearGradient xlink:href="#C" id="G" x1="61.056" x2="66.962" y1="127.511" y2="127.464"/><linearGradient xlink:href="#C" id="H" x1="58.858" x2="52.908" y1="122.811" y2="122.811"/><linearGradient xlink:href="#B" id="I" x1="83.245" x2="72.772" y1="128.752" y2="128.764"/><linearGradient xlink:href="#C" id="J" x1="228.414" x2="255.872" y1="473.431" y2="473.431"/><linearGradient xlink:href="#C" id="L" x1="224.839" x2="197.09" y1="473.542" y2="473.387"/><radialGradient id="K" cx="263.931" cy="473.531" r="3.969" fx="263.931" fy="473.531" gradientTransform="matrix(1.89069 .02092 -.0159 1.43808 -227.547 -212.965)" gradientUnits="userSpaceOnUse"><stop offset="0" stop-color="#fff"/><stop offset="1" stop-color="#126183"/></radialGradient><radialGradient xlink:href="#A" id="M" cx="69.828" cy="122.878" r=".873" fx="69.828" fy="122.878" gradientTransform="matrix(.99994 -.01105 .01914 1.73189 -2.346 -89.153)"/><radialGradient xlink:href="#A" id="N" cx="63.823" cy="125.345" r="1.283" fx="63.823" fy="125.345" gradientTransform="matrix(2.10669 -.01302 .0041 .66392 -71.411 42.942)"/><radialGradient xlink:href="#A" id="O" cx="64.037" cy="124.795" r="1.067" fx="64.037" fy="124.795" gradientTransform="matrix(1 0 0 .88249 0 14.57)"/><radialGradient xlink:href="#A" id="P" cx="63.617" cy="125.263" r=".81" fx="63.617" fy="125.263" gradientTransform="matrix(1 0 0 .96583 0 4.28)"/><radialGradient xlink:href="#A" id="Q" cx="69.828" cy="122.878" r=".873" fx="69.828" fy="122.878" gradientTransform="matrix(3.7793 -.04176 .07233 6.5457 -269.87 -790.28)"/></defs><g transform="translate(-49.308 -119.942)"><g id="R"><g class="G"><path stroke-width=".2" d="M92.32 130.507h-31.78l-.513-.689-.504.689H49.409l.03-10.465h0 10.086l.504.728.513-.728 31.78.009" class="C F"/><g class="B D E"><path fill="none" d="M59.612 129.27c.084.08.415.487.488.563-.053-.085-.384-.49-.488-.563h0"/><path fill="#466d7f" d="M93.711 120.734H60.648l-.278.502c.066.145.517.556.651.654-.099.091-.16.123-.215.176-.078.076-.173.209-.292.364-.259-.255-.574-.632-.667-.794a9.28 9.28 0 0 1-.484-.902h-9.229v9.089h9.276l.228-.543c-.207-.192-.439-.388-.698-.574l.224-.212c.087-.083.194-.223.326-.382.26.255.576.635.67.797.084.14.295.609.438.914l32.996-.001"/><path fill="none" d="M60.011 120.83c0 0 .426.559.527.624.005.021-.354-.368-.527-.624h0"/><g class="C"><path fill="url(#D)" d="M93.778 120.094H81.642c.049-.016-.749.98-1.66 1.008s-1.834-.977-1.824-1.045l-.008 1.55s-.333-.569-1.509-.609c-1.197.021-2.26.928-2.26.928s-.434-.564-.856-.564-.735.418-.735.418c1.197-.044 1.2 1.311 1.096 1.719 2.027-1.708 3.175-1.583 3.617-1.583s1.092.331 1.26.428l.069-.923c1.267.757 2.771-.33 2.882-.686h12.072"/><path fill="url(#E)" d="M58.696 125.284c.624-.321.67-1.282.67-1.282.911-.435.918-.853 1.472-1.357s1.477-.778 1.936-.778c.751 0 1.972.492 3.037 1.412-.104-.408-.089-1.591 1.109-1.547 0 0-.265-.445-.686-.445s-.856.564-.856.564-1.063-.906-2.26-.928-2.053.878-2.328 1.144-.708 1.21-1.929 1.482c.215.802-.44 1.487-.755 1.487v.248"/></g></g><g class="F B C D"><path d="M76.453 121.478c-.038-.002-.081.001-.114.005-.057.008-.193.065-.18.128l.043.196-.032.012-.085-.212c-.017-.042-.118-.075-.26-.022s-.202.108-.192.148c.006.023.061.15.114.278l-.025.011-.139-.244c-.022-.038-.157.009-.22.051s-.199.156-.155.205c.019.021.072.117.122.207l-.033.019-.14-.188c-.032-.032-.197.013-.268.066-.133.123-.15.232-.15.378 0 .038.006.073.017.106a7.23 7.23 0 0 0-.727.606c.103-.903-.425-1.449-1.24-1.449.078.292.707.403.715 1.294.003.306-.13.934-1.232 1.545s-2.608 1.179-2.608 2.336c0 .632.85 2.319 1.845 2.349.634.019 1.267-.75 1.264-1.423s-.301-1.234-.876-1.242-.647.49-.65.592c-.003.116.033.532.408.532s.351-.527.351-.527.287.226.304.638-.464.964-.757.956c-.628-.018-.937-.833-1.017-.985-.094-.178-.455-.261-.448-.926.01-.937 2.25-1.737 3.121-2.374s1.555-1.259 2.124-1.753 1.237-.781 1.976-.809 1.462.403 1.462.403c-.266-.37-1.111-.775-1.528-.8-.14-.008-.457.04-.634.086-.028-.078-.056-.153-.071-.168s-.049-.023-.087-.025z"/><path d="M75.146 122.446c0 .121.004.332-.161.332s-.246-.115-.246-.261a.44.44 0 0 1 .15-.378c.071-.053.236-.097.268-.066s.3.403.3.403l-.249-.442c-.044-.049.092-.163.155-.204s.199-.089.22-.051l.245.431-.196-.477c-.011-.04.049-.094.192-.148s.243-.02.26.022l.161.402-.088-.398c-.014-.063.123-.121.18-.128.066-.009.172-.012.202.02.035.037.145.385.145.385" class="E"/></g><path fill="none" d="M61.288 125.284c-.624-.321-.67-1.282-.67-1.282-.911-.435-.984-.753-1.539-1.257a3.29 3.29 0 0 0-1.903-.761c-.751 0-1.479.634-2.544 1.554-1.124.87-1.221.871-2.485 1.713" class="B D E"/><g class="F B D"><path d="M61.717 122.247c.621.298 1.125.301 1.551.843.479.61.346 1.17.266 1.282-.084-.179-.452-1.128-.974-1.134-.514-.006-.557.573-.668.537s-.37-.162-.36-.744l-.618-.294c.229-.206.515-.368.803-.49h0" class="E"/><path d="M63.381 121.446c.106.012.149.089.23.143.017-.042.118-.075.26-.022s.202.108.192.148c-.006.023-.061.15-.114.278l.025.011.139-.244c.022-.038.157.009.22.051s.199.156.155.205c-.019.021-.072.117-.122.207l.033.019.14-.188c.032-.032.197.013.268.066.133.123.15.232.15.378 0 .038-.006.073-.017.106.253.185.445.342.673.56-.027-.895.416-1.524 1.307-1.432-.187.267-.719.432-.728 1.323-.003.305.161.913 1.232 1.545 1.085.64 2.608 1.232 2.608 2.336 0 1.037-1.285 2.349-1.845 2.349s-1.273-.661-1.27-1.333.424-1.333.882-1.333.623.494.626.604-.118.521-.384.521-.351-.527-.351-.527-.311.279-.328.692.428.903.78.903.937-.833 1.017-.985c.094-.178.455-.261.448-.926-.01-.937-2.238-1.771-3.109-2.408l-2.137-1.719c-.572-.508-1.213-.808-1.934-.759-.701 0-1.908.997-2.13 1.234.091-.487 1.334-1.682 2.155-1.731.145-.021.339.041.521.049.083.003.164-.071.184-.081.064-.031.153-.047.224-.039z" class="C"/></g><g class="E B C D"><path fill="url(#F)" d="M61.288 125.284c-.624.321-.687 1.265-.687 1.265-.911.435-.984.753-1.539 1.257a3.29 3.29 0 0 1-1.903.761c-.751 0-1.872-.45-2.937-1.371.104.408.028 1.635-1.169 1.591 0 0 .259.476.681.476s.856-.564.856-.564 1.063.906 2.26.928 2.002-.849 2.298-1.132.78-1.192 1.958-1.494c-.215-.802.44-1.487.755-1.487v-.248"/><path fill="url(#G)" d="M58.696 125.284c.624.321.679 1.282.679 1.282.911.435.984.753 1.539 1.257a3.29 3.29 0 0 0 1.903.761c.751 0 1.972-.509 3.037-1.429-.104.408-.139 1.66 1.059 1.616 0 0-.248.509-.67.509s-.856-.564-.856-.564-1.063.906-2.26.928-2.053-.878-2.328-1.144-.708-1.21-1.929-1.482c.215-.802-.44-1.487-.755-1.487l-.008-.247"/></g><g class="F B"><path d="M63.323 129.068c.038.002.081-.001.114-.005.057-.008.193-.065.18-.128l-.043-.196.032-.012.085.212c.017.042.118.075.26.022s.202-.108.192-.148c-.006-.023-.061-.15-.114-.278l.025-.011.139.244c.022.038.157-.009.22-.051s.199-.156.155-.205c-.019-.021-.072-.117-.122-.207l.033-.019.14.188c.032.032.197-.013.268-.066.133-.123.15-.232.15-.378 0-.038-.006-.073-.017-.106.253-.185.445-.342.673-.56-.027.895.329 1.499 1.22 1.407-.187-.267-.632-.407-.64-1.298-.003-.305.161-.913 1.232-1.545 1.085-.64 2.608-1.179 2.608-2.336 0-1.017-1.159-2.349-1.845-2.349s-1.407.67-1.403 1.341.449 1.324 1.015 1.324.673-.428.676-.537c.006-.243-.093-.588-.409-.588s-.428.368-.351.544c-.166 0-.487-.318-.487-.7s.454-.924.914-.911.937.833 1.017.985c.094.178.455.261.448.926-.011.933-2.257 1.675-3.109 2.408l-2.137 1.719c-.572.508-1.213.808-1.934.759-.359 0-1.207-.513-1.429-.75.091.487.633 1.106 1.445 1.188.145.021.347.017.529.01a.3.3 0 0 1 .184.081c.015.016.049.023.087.025z" class="C D"/><g class="E D"><path d="M64.63 128.1c0-.121-.004-.332.161-.332s.246.115.246.261a.44.44 0 0 1-.15.378c-.071.053-.236.097-.268.066s-.3-.403-.3-.403l.249.442c.044.049-.092.163-.155.204s-.199.089-.22.051l-.245-.431.196.477c.011.04-.049.094-.192.148s-.243.02-.26-.022l-.161-.402.088.398c.014.063-.123.121-.18.128-.066.009-.172.012-.202-.02-.107-.017-.191-.321-.183-.372m1.585-6.269c0 .121-.004.332.161.332s.246-.115.246-.261a.44.44 0 0 0-.15-.378c-.071-.053-.236-.097-.268-.066s-.3.403-.3.403l.249-.442c.044-.049-.092-.163-.155-.204s-.199-.089-.22-.051l-.245.431.196-.477c.011-.04-.049-.094-.192-.148s-.243-.02-.26.022l-.161.402.088-.398c.014-.063-.123-.121-.18-.128a.52.52 0 0 0-.202.02c-.102.037-.191.321-.183.372" class="C"/><path d="M56.442 126.176c.084.179.453 1.128.975 1.134.514.006.556-.573.667-.537s.37.162.36.744l.616.292c-.228.207-.512.369-.8.491-.621-.299-1.126-.3-1.552-.843-.479-.61-.346-1.17-.266-1.282h0"/></g><g class="C"><path d="M9.033 4.98c-1.54 0-4.372 1.507-5.91 4.449v7.436c1.853 2.457 5.769 4.036 8.793 5.82 4.047 2.388 4.666 4.685 4.656 5.84-.033 3.367-1.714 3.896-2.42 4.904 3.367.347 4.713-1.936 4.609-5.316.86.824 1.587 1.414 2.543 2.115-.042.123-.064.256-.064.4 0 .552.067.965.568 1.43.268.199.892.368 1.012.248.056-.056.278-.368.529-.709.042.025.083.046.125.072-.187.341-.388.703-.461.783-.168.184.349.615.586.773s.75.336.832.193l.525-.922c.031.017.062.028.094.043l-.432 1.051c-.041.152.185.356.725.559s.92.076.984-.082l.32-.801.121.045-.164.74c-.052.239.464.454.68.484a2.56 2.56 0 0 0 .432.018v.002c.145-.008.274-.036.33-.096s.382-.318.695-.307c.687.028 1.419.266 1.969.186 3.1-.186 7.799-4.705 8.143-6.545-.838.894-5.4 4.666-8.051 4.666-2.728.185-5.148-.951-7.311-2.869-2.15-1.866-4.784-4.092-8.076-6.5s-11.712-5.56-11.75-9.1c-.027-2.512 1.339-2.826 1.693-3.498.302-.573 2.105-3.672 3.844-3.723s3.014 1.853 2.949 3.412-1.238 2.613-1.238 2.613.089-1.992-1.328-1.992-1.464 1.777-1.453 2.189.511 2.087 2.367 2.061 3.32-2.499 3.332-5.037S11.216 4.98 9.033 4.98z" class="H" transform="matrix(.26458 0 0 .26458 49.308 119.942)"/><path d="M55.335 128.084c0-.121.004-.332-.161-.332s-.246.115-.246.261a.44.44 0 0 0 .15.378c.071.053.236.097.268.066s.3-.403.3-.403l-.249.442c-.044.049.092.163.155.204s.199.089.22.051l.245-.431-.196.477c-.011.04.049.094.192.148s.243.02.26-.022l.161-.402-.088.398c-.014.063.123.121.18.128.066.009.172.012.202-.02.107-.017.191-.321.183-.372" class="D E"/></g></g><path fill="url(#H)" d="M61.272 125.267c-.624-.321-.654-1.265-.654-1.265-.911-.435-.984-.753-1.539-1.257a3.29 3.29 0 0 0-1.903-.761c-.751 0-1.821.442-2.887 1.362.104-.408-.114-1.668-1.312-1.624 0 0 .351-.434.773-.434s.856.564.856.564 1.063-.906 2.26-.928 2.002.849 2.298 1.132.78 1.192 1.958 1.494c-.215.802.44 1.487.755 1.487l-.017.231" class="B C D E"/><g class="F B C"><path d="M27.686 5.707v.002a2.55 2.55 0 0 0-.432.02c-.216.03-.731.246-.68.484l.164.74-.121.045-.32-.801c-.065-.158-.446-.285-.984-.082s-.765.407-.725.559c.024.088.229.567.432 1.051l-.094.043-.525-.922c-.082-.142-.595.034-.832.193s-.754.589-.586.773c.073.08.273.442.461.783l-.125.072-.529-.709c-.12-.12-.744.049-1.012.248-.502.464-.568.877-.568 1.43 0 .144.022.278.064.4-.956.701-1.509 1.055-2.369 1.879.104-3.381-1.668-5.539-5.035-5.191.706 1.008 2.639 1.649 2.672 5.016.01 1.154-.609 3.452-4.656 5.84-3.007 1.775-6.896 3.345-8.762 5.779V30.9C4.669 33.8 7.471 35.283 9 35.283c2.183 0 4.811-2.497 4.799-5.035s-1.507-5.011-3.332-5.037-2.355 1.648-2.365 2.061.036 2.189 1.453 2.189 1.328-1.992 1.328-1.992 1.174 1.054 1.238 2.613-1.21 3.463-2.949 3.412-3.863-2.438-4.191-3.061-1.372-1.65-1.346-4.162c.045-3.877 8.909-6.583 12.381-9.32 3.292-2.408 5.295-4.412 7.445-6.277 2.415-1.697 4.583-3.054 7.311-2.869 1.357 0 4.561 1.94 5.398 2.834-.343-1.839-2.39-4.18-5.459-4.492-.55-.081-1.313-.064-2-.037-.313.011-.639-.247-.695-.307s-.185-.087-.33-.096z" class="H" transform="matrix(.26458 0 0 .26458 49.308 119.942)"/><g class="D"><path d="M55.327 122.446c0 .121.004.332-.161.332s-.246-.115-.246-.261a.44.44 0 0 1 .15-.378c.071-.053.236-.097.268-.066s.3.403.3.403l-.249-.442c-.044-.049.092-.163.155-.204s.199-.089.22-.051l.245.431-.196-.477c-.011-.04.049-.094.192-.148s.243-.02.26.022l.161.402-.088-.398c-.014-.063.123-.121.18-.128.066-.009.201-.016.231.016.082.067.161.326.153.377" class="E"/><path d="M59.603 121.257c-.309.282-.671.572-1.081.814-.732.434-1.31.358-1.79.968s-.346 1.17-.266 1.282c.084-.179.453-1.128.975-1.134.514-.006.556.573.667.537s.37-.162.36-.744l.774-.378c.175-.107.512-.471.735-.751l-.172-.24-.203-.355zm3.934 4.919c-.084.179-.453 1.128-.975 1.134-.514.006-.557-.573-.668-.537s-.37.162-.36.744l-.774.378c-.185.113-.551.515-.772.799l.156.217.211.371c.318-.295.697-.6 1.126-.855.732-.434 1.31-.358 1.79-.968s.346-1.17.266-1.282z"/></g></g><path fill="url(#I)" d="M93.344 130.463H82.711h-1.058c.049.016-.744-.983-1.654-1.011s-1.834.977-1.824 1.045l-.008-1.55s-.333.569-1.509.609c-1.197-.021-2.26-.928-2.26-.928s-.434.564-.856.564-.735-.418-.735-.418c1.197.044 1.164-1.453 1.06-1.861 1.645 1.967 3.187 1.784 3.664 1.76s1.08-.366 1.248-.463l.069.923c1.267-.757 2.825.236 2.825.689H93.31" class="B C D E"/><g class="F B C D"><path d="M76.453 129.118c-.038.002-.081-.001-.114-.005-.057-.008-.193-.065-.18-.128l.043-.196-.032-.012-.085.212c-.017.042-.118.075-.26.022s-.202-.108-.192-.148c.006-.023.061-.15.114-.278l-.025-.011-.139.244c-.022.038-.157-.009-.22-.051s-.199-.156-.155-.205c.019-.021.072-.117.122-.207l-.033-.019-.14.188c-.032.032-.197-.013-.268-.066-.133-.123-.15-.232-.15-.378 0-.038.006-.073.017-.106a7.23 7.23 0 0 1-.727-.606c.103.903-.408 1.406-1.223 1.406.078-.292.69-.36.699-1.251.003-.306-.13-.934-1.232-1.545s-2.608-1.179-2.608-2.336c0-.9 1.151-2.349 1.845-2.349s1.243.593 1.239 1.448-.392 1.211-.851 1.217-.647-.483-.65-.592.025-.532.408-.532.351.527.351.527.287-.226.304-.638-.296-.969-.757-.956-.937.833-1.017.985c-.094.178-.455.261-.448.926.01.937 2.25 1.737 3.121 2.374s1.555 1.259 2.124 1.753 1.237.781 1.976.809 1.462-.403 1.462-.403c-.266.37-1.111.775-1.528.8-.14.008-.457-.04-.634-.086-.028.078-.056.153-.071.168s-.049.023-.087.025z"/><path d="M75.146 128.15c0-.121.004-.332-.161-.332s-.246.115-.246.261a.44.44 0 0 0 .15.378c.071.053.236.097.268.066s.3-.403.3-.403l-.249.442c-.044.049.092.163.155.204s.199.089.22.051l.245-.431-.196.477c-.011.04.049.094.192.148s.243.02.26-.022l.161-.402-.088.398c-.014.063.123.121.18.128.066.009.172.012.202-.02.035-.037.145-.385.145-.385" class="E"/></g></g><path fill="url(#J)" d="M235.721 485.434c-.498-.127-1.643-.608-1.581-.664.028-.025.548-.225 1.156-.443 1.952-.703 2.73-1.128 3.504-1.917 1.343-1.368 2.061-3.26 1.803-4.748-.108-.624-.274-.973-.462-.973-.128 0-.188.087-.421.616-.669 1.516-1.545 2.785-2.261 3.275-.525.359-.945.447-1.48.31-.615-.157-.938-.456-1.41-1.305-.139-.249-.329-.51-.422-.579l-.17-.126-.349.171c-.764.374-1.237 1.298-1.237 2.416 0 .267-.024.349-.11.38-.061.022-.551.25-1.089.508l-.979.468-.773-.799-.773-.861c0-.091.875-.476 1.695-.747.394-.13.738-.27.763-.311s.009-.265-.036-.498c-.282-1.457.201-2.98 1.316-4.154.445-.468 1.046-.847 1.346-.847.077 0 .169-.036.204-.079.051-.063.121-1.729.086-2.049-.005-.042-.115-.095-.245-.119-.988-.179-2.198-1.601-2.574-3.025-.152-.575-.185-1.437-.076-1.956.051-.243.081-.474.065-.514s-.317-.163-.671-.274c-.633-.198-2.127-.865-2.127-.949 0-.047.74-.677 1.397-1.188l.418-.326 1.045.505 1.045.505.041.426c.056.578.187 1.089.374 1.457.193.381.724.868 1.054.966.224.067.261.061.395-.065.081-.076.258-.34.393-.587.515-.939 1.027-1.313 1.799-1.315a1.45 1.45 0 0 1 .799.191c.783.391 1.632 1.513 2.425 3.202.342.728.412.837.542.837.2 0 .361-.369.46-1.053.165-1.138-.213-2.498-1.031-3.714a7.42 7.42 0 0 0-1.718-1.707c-.617-.411-.995-.583-2.476-1.127l-1.42-.536c-.319-.136-.309-.144.52-.436.79-.278 1.38-.355 2.356-.309 1.467.07 2.848.489 4.163 1.263.796.468 1.416.939 2.768 2.101l6.181 5.01c1.78 1.343 2.598 1.859 5.316 3.347l.613.335-1.181.674c-1.609.918-1.918 1.123-3.517 2.327l-6.598 5.282c-2.207 1.886-2.759 2.294-3.835 2.833-1.32.662-2.3.914-3.71.957-.704.021-1.04.005-1.311-.064z" transform="scale(.26458)"/><g class="F"><path d="M60.32 127.139l-.165-.152-.081-.074c0-.016.234-.155.426-.254l.147-.075.006-.033.019-.125c.028-.188.091-.4.168-.563.107-.226.23-.376.4-.486l.09-.062c.035-.032.005-.073-.103-.138-.279-.169-.498-.617-.55-1.121-.004-.04-.012-.079-.018-.086s-.06-.038-.12-.068a3.25 3.25 0 0 1-.376-.215c-.247-.162-.356-.26-.702-.635l-.212-.218-.111-.11.057-.032c.081-.045.122-.074.202-.14.058-.049.071-.056.08-.047l.098.112a3.73 3.73 0 0 0 .591.543c.235.169.563.331.823.405l.069.02c.001.001-.004.033-.012.072a1.62 1.62 0 0 0 0 .426c.027.148.081.308.148.43.145.269.378.494.576.556.035.011.046.018.045.03l-.012.089c-.008.058-.009.088-.001.142l.01.103c0 .031-.002.034-.023.039-.131.026-.322.166-.458.335-.264.329-.374.757-.291 1.138.004.016-.005.021-.094.049-.137.043-.28.101-.418.171l-.12.059c-.001 0-.04-.038-.086-.084z"/><path d="M60.442 127.968c-.386-.484-.871-.814-1.416-.964l-.093-.026.012-.055c.019-.085.018-.368-.002-.46a1.45 1.45 0 0 0-.396-.745l-.124-.111c-.053-.04-.191-.112-.215-.112-.018 0-.018.004.006-.069a.54.54 0 0 0 .019-.261l-.017-.08c-.004-.009.009-.019.051-.037a.89.89 0 0 0 .274-.2 1.3 1.3 0 0 0 .263-.368c.102-.204.14-.353.148-.568a1.1 1.1 0 0 0-.009-.221c-.016-.108-.016-.109.001-.109.023 0 .205-.056.302-.093.049-.019.144-.06.21-.092l.121-.058.067.065.205.187.037.03-.021.018c-.075.064-.315.212-.474.292-.037.019-.07.041-.072.049a1.22 1.22 0 0 0-.014.098c-.028.247-.112.534-.21.714-.107.196-.258.358-.4.431-.04.02-.049.033-.049.067 0 .021.004.025.104.089.085.054.21.181.275.278.142.213.245.509.285.819a.62.62 0 0 0 .023.12c.005.006.047.03.093.053a3.26 3.26 0 0 1 .752.499c.074.068.087.081.301.31l.242.253c.083.083.09.092.076.101-.069.04-.17.114-.223.163-.035.033-.068.059-.072.059s-.032-.029-.06-.065z"/></g><path fill="url(#K)" d="M263.262 476.107c-.701-.746-1.325-1.256-2.439-1.993l-.861-.569.648-.389c1.297-.779 2.523-1.747 3.135-2.475.151-.18.29-.329.309-.331s.14.133.268.302c.573.751 1.871 1.844 3.025 2.547l.552.367c.001.017-.227.171-.507.342-1.163.708-2.458 1.788-3.006 2.506-.346.453-.435.429-1.125-.305z" transform="scale(.26458)"/><path fill="url(#L)" d="M215.768 485.556c-1.688-.191-3.395-.924-4.951-2.124l-1.473-1.234-7.001-5.624c-1.153-.85-1.84-1.27-4.182-2.557-1.041-.572-1.048-.449.058-1.032 2.649-1.394 3.244-1.756 4.754-2.891l4.657-3.856c1.621-1.451 3.034-2.584 3.922-3.146 1.598-1.01 2.887-1.534 4.21-1.711.839-.112 1.491-.07 2.233.141.265.075 1.305.514 1.279.539a32.61 32.61 0 0 1-.999.368c-1.649.591-2.194.847-2.876 1.349s-1.547 1.567-1.934 2.382c-.46.97-.651 2.055-.513 2.925.142.902.46 1.247.7.759l.478-.982c.786-1.618 1.629-2.637 2.449-2.958.324-.127.856-.123 1.2.008.501.191.818.531 1.262 1.353.219.405.373.57.534.57.185 0 .636-.256.87-.494.409-.416.635-1.009.725-1.903l.063-.498c.008-.008.333-.161.721-.339l.943-.444.236-.12.679.685.868.911.189.225-.434.204c-.486.228-1.293.514-1.788.634-.188.046-.338.107-.353.145s.011.296.055.577c.235 1.501-.252 2.994-1.339 4.1-.546.556-.845.74-1.384.855l-.179.038-.012 1.045c-.013 1.166-.003 1.21.281 1.21.199 0 .707.267 1.017.533 1.338 1.153 1.975 2.98 1.609 4.615-.087.388-.054.431.42.542.629.147 2.023.685 2.02.779-.006.148-1.69 1.599-1.801 1.551l-.966-.449-.915-.428-.029-.464c-.069-1.087-.484-1.898-1.152-2.255-.302-.161-.482-.185-.636-.085-.057.037-.222.281-.368.542-.48.859-.833 1.201-1.385 1.344-.744.192-1.337-.036-2.066-.795-.576-.6-1.121-1.482-1.709-2.764-.233-.509-.301-.62-.394-.643s-.133-.002-.211.096c-.159.2-.296.74-.321 1.269-.042.894.131 1.681.566 2.571.339.694.721 1.23 1.275 1.788.791.797 1.487 1.188 3.242 1.822l1.616.656c-.096.092-.89.377-1.436.515a4.56 4.56 0 0 1-1.279.173c-.368.01-.838 0-1.044-.024z" transform="scale(.26458)"/><g id="S" class="C D G"><path fill="url(#M)" d="M69.804 123.045c-.604 0-.762-.426-.78-.726-.024-.402.431-.425.431-.425s.021-.602.387-.602.398.614.398.614.384.032.425.348c.035.272-.259.791-.862.791z"/><path d="M68.742 123.174s.109-.056.159-.056.127.008.213.108.198.74.288.872.244.283.441.283.352-.158.447-.283.202-.772.288-.872.163-.108.213-.108.159.056.159.056c0-.297-.152-.577-.439-.589-.381 0-.659.414-.668.427-.009-.012-.314-.442-.655-.427-.305 0-.438.308-.446.589z" class="B I"/></g><use xlink:href="#S" fill="#466d7f" transform="matrix(1 0 0 -1 0 250.567)"/><g transform="translate(-19.749)"><g id="T" class="C G"><path fill="url(#Q)" d="M3.123 5.115v6.58c2.069-.17 3.087-1.98 2.959-2.959C5.926 7.541 4.475 7.42 4.475 7.42s-.116-2.135-1.352-2.305z" class="H" transform="matrix(.26458 0 0 .26458 69.057 119.942)"/><path d="M70.511 122.57c-.31 0-.543.274-.627.387v1.421c.177-.02.318-.163.406-.279.095-.125.202-.772.288-.872s.163-.108.213-.108.159.056.159.056.008-.038.009-.08c.002-.1-.06-.525-.448-.525z" class="B D I"/></g><use xlink:href="#T" transform="matrix(1 0 0 -1 0 250.5)"/></g><g id="U"><path fill="url(#N)" d="M63.873 125.262s.94-.785 1.562-.785c.476 0 .461.464.461.464s.416-.026.416.321-.416.339-.416.339-.094.48-.461.48c-.618 0-1.562-.819-1.562-.819z" class="C D G"/><path id="V" fill="url(#O)" d="M63.349 125.104l.461-1.223c.105-.174.286-.34.481-.34.259.001.114.2.818.183.133-.003.263.145.263.316 0 .806-1.53 1.282-1.53 1.282z" class="C D G"/><use xlink:href="#V" transform="matrix(1 0 0 -1 0 250.517)"/><g class="C D G"><path fill="url(#P)" d="M63.527 125.995c.443 0 .381-.455.381-.455.243.088.47-.117.47-.278s-.227-.365-.47-.278c0 0 .062-.455-.381-.455l-.653.732z"/><path d="M61.849 125.256c0-.363.35-.495.669-.56s.511-.182.577-.301.094-.54.094-.54a.54.54 0 0 0 .347.537c0 .43-.412.778-.412.87s.412.503.412.935-.347.546-.347.546.015-.514-.094-.623a1.09 1.09 0 0 0-.577-.295c-.297-.061-.669-.199-.669-.562z" class="B I"/></g></g><use xlink:href="#U" transform="matrix(-1 0 0 1 120.039 0)"/></g><use xlink:href="#R" transform="matrix(-1 0 0 1 183.356 0)"/><path d="M85.755 129.762l-4.026-.005-.056-.108c-.165-.319-.713-.654-1.289-.789a2.52 2.52 0 0 0-.853-.031c-.186.031-.424.104-.554.17l-.08.036-.075-.865c-.018-.028-.05-.018-.261.083-.397.191-.731.281-1.1.296-.642.025-1.3-.19-1.867-.61-.071-.053-.317-.26-.547-.46l-1.606-1.323c-.345-.259-.519-.368-1.023-.641l-.385-.217c0-.005.139-.083.308-.173a8.01 8.01 0 0 0 1.504-.994l1.128-.947.779-.636c.66-.435 1.448-.602 2.119-.45a3.22 3.22 0 0 1 .714.254c.167.08.2.09.222.071.015-.012.023-.036.019-.052-.008-.031.05-.832.061-.844.003-.003.056.016.117.044.559.253 1.251.211 1.925-.118.314-.153.655-.414.784-.599l.047-.068h9.925 9.925l.032.06c.046.086.269.29.447.409.667.446 1.432.591 2.067.391.078-.025.178-.063.223-.086s.085-.037.091-.031a10.73 10.73 0 0 1 .066.834c-.007.088.035.091.183.014.293-.152.692-.281 1-.322.428-.057 1.009.047 1.486.268.33.153.537.3 1.077.771l2.002 1.61c.16.104.561.332.883.503l.155.091c0 .005-.145.087-.322.183-.508.275-.744.421-1.065.661l-1.671 1.377c-.441.384-.707.58-.967.709-.469.234-.927.34-1.397.322-.373-.015-.703-.103-1.113-.298-.187-.089-.22-.1-.24-.079s-.031.125-.05.391l-.035.422-.009.054-.083-.042c-.636-.322-1.571-.228-2.262.228-.178.118-.373.314-.433.436l-.047.096h-5.725l-5.924.005a865.37 865.37 0 0 1-4.225 0z" class="F"/></g></svg>