<?xml version="1.0" encoding="utf-8"?>
<svg style="enable-background:new 0 0 256 256;" viewBox="0 0 256 256" xmlns="http://www.w3.org/2000/svg">
  <style type="text/css">
	.st0{fill:#00A388;}
	.st1{fill:#EA685E;stroke:#00886F;stroke-width:15;stroke-miterlimit:10;}
	.st2{fill:#E8E8E8;}
	.st3{fill:#FFFFFF;stroke:#00886F;stroke-width:15;stroke-miterlimit:10;}
	.st4{fill:#00886F;}
	.st5{fill:#FFFFFF;}
	.st6{fill:#CCCCCC;}
	.st7{fill:none;stroke:#00A388;stroke-width:4;stroke-miterlimit:10;}
	.st8{fill:#EA685E;}
	.st9{fill:#FFAB80;}
	.st10{fill:#2C3E50;}
	.st11{fill:#4B687F;}
	.st12{fill:none;stroke:#3E5063;stroke-width:4;stroke-miterlimit:10;}
	.st13{fill:#FFD766;}
	.st14{fill:#FFE6D3;}
	.st15{fill:#F09A79;}
	.st16{fill:#C91E01;}
	.st17{fill:#EA3B28;}
	.st18{fill:#0F627F;}
	.st19{fill:#005670;}
	.st20{filter:url(#Adobe_OpacityMaskFilter);}
	.st21{mask:url(#SVGID_2_);}
	.st22{fill:#8C623B;}
	.st23{fill:#E6E6E6;stroke:#005670;stroke-width:16;stroke-miterlimit:10;}
	.st24{opacity:0.6;}
	.st25{fill:#E6E6E6;}
	.st26{fill:#FFEC82;}
	.st27{fill:#FFCF3A;}
	.st28{filter:url(#Adobe_OpacityMaskFilter_1_);}
	.st29{mask:url(#SVGID_1_);}
	.st30{fill:#603813;}
	.st31{fill:#F2F2F2;}
	.st32{fill:#666666;}
</style>
  <g id="Layer_1" transform="matrix(1.271074, 0, 0, 1.271074, -37.193695, -40.230377)">
    <g transform="matrix(1.41736, 0, 0, 1.336281, -52.508984, -39.248627)">
      <g>
        <path class="st5" d="M172.399963,186.904907c0,5.070068,4.160034,9.180176,9.290039,9.180176     c0.099976,0,0.209961,0,0.309998-0.01001v5.01001H88.190002C80.349976,201.085083,74,194.734985,74,186.904907     c0-7.839844,6.349976-14.189941,14.190002-14.189941H182v5.01001c-0.100037-0.01001-0.210022-0.01001-0.309998-0.01001     C176.559998,177.714966,172.399963,181.825073,172.399963,186.904907z" style="fill: rgb(210, 197, 197); stroke-width: 2.28566; stroke: rgb(109, 148, 191);"/>
      </g>
      <g>
        <rect class="st18" height="117.800049" width="80.970032" x="101.029968" y="54.914917" style="stroke-width: 2.28566; stroke: rgb(109, 148, 191);"/>
      </g>
      <g>
        <path class="st18" d="M88.190002,177.714966H182v-5H88.190002C80.349976,172.714966,74,179.065063,74,186.904907     c0,7.830078,6.349976,14.180176,14.190002,14.180176H182v-5H88.190002c-5.070007,0-9.190002-4.120117-9.190002-9.180176     C79,181.835083,83.119995,177.714966,88.190002,177.714966z" style="stroke-width: 2.28566; stroke: rgb(109, 148, 191);"/>
      </g>
      <g>
        <path class="st19" d="M101.029968,54.914917v117.800049H88.190002C80.349976,172.714966,74,179.065063,74,186.904907V67.545044     h0.089966c0.77002-7.100098,6.790039-12.630127,14.100037-12.630127H101.029968z" style="stroke-width: 2.28566; stroke: rgb(109, 148, 191);"/>
      </g>
    </g>
  </g>
  <rect transform="matrix(NaN, NaN, NaN, NaN, NaN, NaN)" style="fill: rgb(216, 216, 216); stroke: rgb(122, 140, 62);"/>
  <path d="M -12.474 71.118 Z" style="stroke: black; fill: none;"/>
</svg>