<svg xmlns="http://www.w3.org/2000/svg" viewBox="0 0 665 665">
  <g fill="#1f6cb9">
    <path d="M330.22 0h4.25c5.38.79 10.62 3.04 14.47 6.96l83.79 83.67 118.34-.01c12.49-.16 23.72 10.84 23.73 23.34l.09 118.98 81.56 81.5c3.28 3.18 6.13 6.98 7.36 11.45 2.64 8.29.19 17.84-5.96 23.96l-83.03 83.09-.02 118.1c-.08 12.51-11.37 23.42-23.86 23.23-39.17.08-78.35-.05-117.53.06l-83.53 83.49c-6.76 6.97-17.94 9.09-26.78 5.01-5.6-2.28-9.3-7.26-13.58-11.27l-76.03-76.05c-.82-1.12-2.17-1.31-3.44-1.24l-110.06.02c-4.31 0-8.72.25-12.88-1.07-8.95-2.56-15.95-10.82-16.91-20.09-.35-3.71-.13-7.43-.18-11.13l-.04-110.07-75.49-75.43C8.15 350.37.75 343.99 0 334.54v-4.36c.48-5.89 3.19-11.49 7.4-15.62l82.62-82.6.03-117.97c-.06-12.61 11.37-23.64 23.93-23.38l117.22.03 84.64-84.42c3.92-3.63 9.08-5.73 14.38-6.22m-7.98 32.23c-3.16 1.68-5.6 4.36-8.11 6.84L241.12 112c-35.73.03-71.46-.05-107.18.04-11.67-.28-22.19 10.27-21.9 21.94l-.02 107.14-75.82 75.96c-8.42 7.99-8.51 22.85-.01 30.83l75.83 75.96.02 107.14c-.36 11.73 10.29 22.22 21.98 21.94l107.09.05 75.49 75.38c4.04 4.1 9.62 6.74 15.41 6.84 6.13.19 12.14-2.52 16.4-6.86l75.54-75.38 101.08.02c2.7 0 5.41.07 8.1-.21 9.3-.64 17.54-8.17 19.38-17.24.76-4.47.42-9.03.49-13.54l-.01-98.16 75.85-75.97c8.43-7.97 8.37-22.74.01-30.74l-75.87-76.01-.03-107.17c.19-10.1-7.59-19.43-17.38-21.48-3.85-.68-7.78-.45-11.66-.48-33.36-.01-66.71.02-100.06-.02l-75.98-75.87c-6.44-6.82-17.44-8.13-25.63-3.88z"/>
    <path d="M329.3 44.45c3.11-1.54 6.93-.45 9.21 2.04l76.93 76.98c1.42 1.5 3.35 2.59 5.48 2.5l110.2.06c4.18-.04 7.99 3.76 7.85 7.98l.05 110.05c-.13 2.13.97 4.04 2.52 5.43l76.96 77c2.03 1.91 3.19 4.79 2.55 7.57-.44 2.73-2.69 4.56-4.5 6.43l-74.56 74.56c-1.61 1.55-3.15 3.47-2.96 5.85L539 530.06c.23 3.11-1.23 6.34-4.04 7.83-2.36 1.52-5.28 1.02-7.92 1.12-35.38 0-70.75-.04-106.13.02-3.47-.2-5.69 2.77-7.9 4.94l-74.97 74.98c-3.08 3.23-8.67 2.93-11.55-.42l-76.97-77.03c-1.44-1.5-3.38-2.59-5.51-2.47-36.7-.08-73.39.02-110.08-.05-4.18.05-8.04-3.69-7.9-7.91l-.06-110.15c.22-3.2-2.45-5.33-4.46-7.36l-75.5-75.57c-3.2-3.09-2.83-8.67.51-11.51l77.45-77.53c1.69-1.49 2.11-3.79 2.03-5.94l.03-109.07c-.12-4.19 3.68-7.94 7.83-7.91l110.16-.06c2.13.1 4.08-.98 5.51-2.49l73.44-73.49c2.02-1.93 3.79-4.26 6.33-5.54M200.29 223.43c-5.24 2.07-8.22 8.34-6.56 13.72 1.48 5.58 7.63 9.32 13.28 8.02 6.26-1.11 10.59-8.09 8.72-14.19-1.54-6.48-9.37-10.33-15.44-7.55m30.89-.16c-5.04 1.81-8.27 7.48-7.2 12.75.91 5.95 7.11 10.32 13.02 9.25 6.48-.83 11.11-7.94 9.27-14.21-1.5-6.37-9.01-10.28-15.09-7.79m30.08.18c-4.52 1.85-7.51 6.83-6.88 11.71.44 6.09 6.48 10.99 12.54 10.19 6.78-.51 11.84-7.9 9.82-14.41-1.57-6.48-9.41-10.29-15.48-7.49m-67.96 161.3 45.67-.01c2.3-.01 4.88.12 6.59 1.89 1.91 1.56.81 4.3 1.08 6.41-.37 7.24 1.27 14.73 5.6 20.65 5.57 7.85 15.01 12.93 24.71 12.7l-.04-34.42c-.43-8.53-2.04-17.52-7.55-24.34-4.79-6.37-12.61-9.72-20.35-10.65-8.72-1.03-17.52-.8-26.28-.87.27-4.34-.86-9.07 1.22-13.1 1.82-3.06 5.87-3.05 9.01-3.04 14.72.37 29.45.03 44.17.02l-.23-44.02c-.36-9.58-4.87-18.67-11.39-25.55-6.64-6.78-16.22-9.83-25.56-9.9a9009.39 9009.39 0 0 0-46.5.01l-.15 124.22m113.88-92.68c15.27.47 30.57.32 45.85.19 3.04-.19 6.6.83 7.83 3.92 1.35 3.95.63 8.23.78 12.33-7.2-.01-14.41 0-21.61.27-8.62.41-17.84 2.85-23.76 9.53-6.34 6.92-8.45 16.56-8.99 25.66l-.05 51.06c-.18 5.79.98 11.7 3.97 16.72 5.01 8.99 15.09 14.64 25.33 14.74l.23-82.46c-.16-3.87 3.28-7.22 7.15-6.96l47.1-.08v-37.91c.19-11.27-4.73-22.43-13.01-30.02-6.27-5.66-14.75-8.28-23.08-8.47-15.83-.3-31.66.11-47.48-.06-.49 10.5 0 21.03-.26 31.54m113.97-31.38.04 133.29c-.18 5.45.33 11.08 2.83 16.02 4.52 9.8 15 16.43 25.8 16.27V289.96c.05-5.97-1.55-12-4.94-16.95-5.21-7.72-14.42-12.47-23.73-12.32m51 143.57c-4.64 1.8-7.72 6.86-7.1 11.82.52 5.81 6.02 10.64 11.89 10.19 6.66-.06 12.1-6.87 10.72-13.38-.96-6.94-9.1-11.47-15.51-8.63zm-249.3-112.07c5.72.25 11.45.18 17.18.16 2.98-.13 6.3 1.39 7.1 4.49 1.02 3.69.49 7.6.62 11.39l-24.99.01c.03-5.35-.13-10.7.09-16.05z"/>
  </g>
  <path fill="#fff" d="M322.24 32.23c8.19-4.25 19.19-2.94 25.63 3.88l75.98 75.87 100.06.02c3.88.03 7.81-.2 11.66.48 9.79 2.05 17.57 11.38 17.38 21.48l.03 107.17 75.87 76.01c8.36 8 8.42 22.77-.01 30.74l-75.85 75.97.01 98.16c-.07 4.51.27 9.07-.49 13.54-1.84 9.07-10.08 16.6-19.38 17.24-2.69.28-5.4.21-8.1.21-33.69-.02-67.39.03-101.08-.02l-75.54 75.38c-4.26 4.34-10.27 7.05-16.4 6.86-5.79-.1-11.37-2.74-15.41-6.84L241.11 553c-35.7-.03-71.4.06-107.09-.05-11.69.28-22.34-10.21-21.98-21.94l-.02-107.14-75.83-75.96c-8.5-7.98-8.41-22.84.01-30.83l75.82-75.96.02-107.14c-.29-11.67 10.23-22.22 21.9-21.94l107.18-.04 73.01-72.93c2.51-2.48 4.95-5.16 8.11-6.84m7.06 12.22c-2.54 1.28-4.31 3.61-6.33 5.54l-73.44 73.49c-1.43 1.51-3.38 2.59-5.51 2.49-36.72.08-73.44-.02-110.16.06-4.15-.03-7.95 3.72-7.83 7.91L126 243.01c.08 2.15-.34 4.45-2.03 5.94l-77.45 77.53c-3.34 2.84-3.71 8.42-.51 11.51l75.5 75.57c2.01 2.03 4.68 4.16 4.46 7.36l.06 110.15c-.14 4.22 3.72 7.96 7.9 7.91l110.08.05c2.13-.12 4.07.97 5.51 2.47l76.97 77.03c2.88 3.35 8.47 3.65 11.55.42l74.97-74.98c2.21-2.17 4.43-5.14 7.9-4.94l106.13-.02c2.64-.1 5.56.4 7.92-1.12 2.81-1.49 4.27-4.72 4.04-7.83l.03-109.16c-.19-2.38 1.35-4.3 2.96-5.85l74.56-74.56c1.81-1.87 4.06-3.7 4.5-6.43.64-2.78-.52-5.66-2.55-7.57l-76.96-77c-1.55-1.39-2.65-3.3-2.52-5.43l-.05-110.05c.14-4.22-3.67-8.02-7.85-7.98-36.74-.09-73.47.03-110.2-.06-2.13.09-4.06-1-5.48-2.5l-76.93-76.98c-2.28-2.49-6.1-3.58-9.21-2.04zM200.29 223.43c6.07-2.78 13.9 1.07 15.44 7.55 1.87 6.1-2.46 13.08-8.72 14.19-5.65 1.3-11.8-2.44-13.28-8.02-1.66-5.38 1.32-11.65 6.56-13.72zm30.89-.16c6.08-2.49 13.59 1.42 15.09 7.79 1.84 6.27-2.79 13.38-9.27 14.21-5.91 1.07-12.11-3.3-13.02-9.25-1.07-5.27 2.16-10.94 7.2-12.75zm30.08.18c6.07-2.8 13.91 1.01 15.48 7.49 2.02 6.51-3.04 13.9-9.82 14.41-6.06.8-12.1-4.1-12.54-10.19-.63-4.88 2.36-9.86 6.88-11.71zm-67.96 161.3.15-124.22 46.5-.01c9.34.07 18.92 3.12 25.56 9.9 6.52 6.88 11.03 15.97 11.39 25.55.48 14.67-.02 29.35.23 44.02-14.72.01-29.45.35-44.17-.02-3.14-.01-7.19-.02-9.01 3.04-2.08 4.03-.95 8.76-1.22 13.1 8.76.07 17.56-.16 26.28.87 7.74.93 15.56 4.28 20.35 10.65 5.51 6.82 7.12 15.81 7.55 24.34l.04 34.42c-9.7.23-19.14-4.85-24.71-12.7-4.33-5.92-5.97-13.41-5.6-20.65-.27-2.11.83-4.85-1.08-6.41-1.71-1.77-4.29-1.9-6.59-1.89l-45.67.01m29.55-92.56c-.22 5.35-.06 10.7-.09 16.05l24.99-.01c-.13-3.79.4-7.7-.62-11.39-.8-3.1-4.12-4.62-7.1-4.49-5.73.02-11.46.09-17.18-.16zm84.33-.12c.26-10.51-.23-21.04.26-31.54l47.48.06c8.33.19 16.81 2.81 23.08 8.47 8.28 7.59 13.2 18.75 13.01 30.02.22 12.63-.06 25.27 0 37.91-15.7.07-31.41-.09-47.1.08-3.87-.26-7.31 3.09-7.15 6.96l-.23 82.46c-10.24-.1-20.32-5.75-25.33-14.74-2.99-5.02-4.15-10.93-3.97-16.72l.05-51.06c.54-9.1 2.65-18.74 8.99-25.66 5.92-6.68 15.14-9.12 23.76-9.53 7.2-.27 14.41-.28 21.61-.27-.15-4.1.57-8.38-.78-12.33-1.23-3.09-4.79-4.11-7.83-3.92-15.28.13-30.58.28-45.85-.19zm113.97-31.38c9.31-.15 18.52 4.6 23.73 12.32 3.39 4.95 4.99 10.98 4.94 16.95v136.31c-10.8.16-21.28-6.47-25.8-16.27-2.5-4.94-3.01-10.57-2.83-16.02l-.04-133.29zm51 143.57c6.41-2.84 14.55 1.69 15.51 8.63 1.38 6.51-4.06 13.32-10.72 13.38-5.87.45-11.37-4.38-11.89-10.19-.62-4.96 2.46-10.02 7.1-11.82z"/>
</svg>
