<svg xmlns="http://www.w3.org/2000/svg" xmlns:xlink="http://www.w3.org/1999/xlink" viewBox="0 0 1080 1080"><path fill="#337ab7" d="M158 158h764v764H158V158zM540-.23L1080.23 540 540 1080.23-.23 540 540-.23z"/><path fill="none" stroke="#fff" stroke-width="40" d="M540.62 796.24C399.26 796.24 285 681.98 285 540.62S399.26 285 540.62 285s255.62 114.26 255.62 255.62-114.26 255.62-255.62 255.62z"/><g fill="#fff"><path d="M460.52 530.6V591h-21.9v-60.4q0-4.29-2.19-6.48-2.19-2.28-6.57-2.28h-39.5v-21.9h39.5q3.12 0 6.57.76 3.46.68 6.83 2.19 3.45 1.52 6.57 3.96 3.11 2.36 5.47 5.81 2.36 3.37 3.79 7.84 1.43 4.46 1.43 10.1zm-79.01-69.15V591h-21.9V461.45h21.9zm180.35 69.15V591h-21.9v-60.4q0-4.29-2.28-6.48-2.27-2.28-6.74-2.28h-28.47V591h-21.9v-80.19q0-2.27.84-4.21.85-2.02 2.36-3.46 1.52-1.51 3.54-2.35 2.02-.85 4.3-.85h39.5q4.55 0 9.77 1.6 5.23 1.6 9.94 5.14v-6.74h29.65q3.12 0 6.57.76 3.46.68 6.83 2.19 3.45 1.52 6.57 3.96 3.11 2.36 5.47 5.81 2.36 3.37 3.79 7.84 1.43 4.46 1.43 10.1V591h-21.9v-60.4q0-4.29-2.19-6.48-2.1-2.28-6.57-2.28h-19.71q1.1 4.05 1.1 8.76zm154.82-30.66h23.25q-3.71 11.54-8.68 22.75-4.97 11.2-11.45 21.39-6.41 10.11-14.41 18.79-7.92 8.59-17.6 14.91-9.61 6.23-20.98 9.85-11.28 3.54-24.51 3.54-2.27 0-4.3-.84-2.02-.85-3.53-2.28-1.52-1.51-2.36-3.45-.84-2.02-.84-4.3v-80.36h21.9v68.49q8 0 15.33-3.46 7.41-3.45 13.98-9.1 6.57-5.72 12.13-12.97 5.64-7.24 10.02-14.82 4.38-7.67 7.42-15 3.11-7.32 4.63-13.14zm150.78-287.49v116.79H750.67V212.45h116.79z"/><use xlink:href="#B"/><use y="761" xlink:href="#B"/><use x="380" y="380" xlink:href="#B"/><use x="-380" y="380" xlink:href="#B"/><path d="M867.46 749.45v116.79H750.67V749.45h116.79zm-538 1v116.79H212.67V750.45h116.79zm0-538v116.79H212.67V212.45h116.79z"/></g><defs><path id="B" d="M622.61 159.35l-82.58 82.59-82.59-82.59 82.59-82.58 82.58 82.58z"/></defs></svg>