<svg xmlns="http://www.w3.org/2000/svg" viewBox="0 0 1080 1080"><defs/><path fill="#fff" d="M210.38 213H867v657.88H210.38V213zM543.83 69L1008 547.11 543.83 1008 71 538.5 543.83 69z"/><path fill="#337ab7" fill-rule="evenodd" d="M539.5 0l159 159H922v223.5L1080.5 541l-79.3 79.2-79.2 79.3V923H698.5l-78.5 78.5-80.5 78.5-80.5-78.5-78.5-78.5H158V700.5l-79-79L0 541l79-80.5 79-79V159h222.5l159-159zM537 80c-1 0-85 84.5-85 85.5l42.5 43.4 42.5 42.5 42.5-42.6 42.5-43.4-42.3-43.2L537 80zm330 133H746v121h121V213zm-536 4H210v121h121V217zm9.9 124.9c-22.4 22.5-39.3 45.9-52.9 73.6-20.6 42-29.4 79.3-29.3 125.5 0 23.4 1.3 37.6 5.4 57.3 17.4 84.1 73.7 157 150.4 194.7 41.9 20.6 79.1 29.3 125.5 29.3s83.6-8.7 125.5-29.3c63.8-31.4 113.5-86.7 139-154.9 24-64.1 22.7-139.3-3.5-203.1-40.1-97.6-129.2-164-233.9-174.5-83.3-8.3-166.4 21.6-226.2 81.4zM164.1 458L121 500.5 78.5 543l42.5 42.5 43.2 42.5c1.1 0 84.8-84.4 84.6-85.2L206.6 500l-42.5-42zM959 500.5L915.9 458c-.8 0-84.3 83.6-84.6 84.7-.4 1 83.3 85.3 84.5 85.3l43.2-42.5 42.5-42.5-42.5-42.5zM333 747H212v121h121V747zm532 3H744v121h121V750zM579.6 873.5L536.8 831c-.8.1-84.8 84.9-84.8 85.7l42.5 43.3 42.5 42.5 42.5-42.5 42.5-43.3-42.4-43.2zm-62.1-572.4c39.4-3.7 82.3 3.2 118.1 18.9 16.2 7.1 22.4 10.5 38.2 20.9 13.7 9.1 22.1 15.8 34.5 28 97.2 94.7 96.4 252.2-1.8 346-33.8 32.2-73.2 52.7-119.4 62-24.1 4.9-45 6.2-68.1 4-96.8-8.8-179.2-74.7-208.4-166.7-32.4-102.5 6.8-214.6 95.6-273.3 15.8-10.4 22-13.8 38.2-20.9 21.5-9.5 49.4-16.7 73.1-18.9zm-143 142.4l-23.5-.6v151.2l23.5-.6v-150zm63.7 47.4c-4.5-2.3-5.8-2.4-29.9-2.7l-25.3-.3V514h22c22.3 0 26 .5 27.7 3.9.4.9.9 18.4 1.1 38.8l.3 37.3h23l-.6-81.5-2.7-5.7c-3.1-6.6-9-12.7-15.6-15.9zm107.1.8l-5.8-3.2-26.5-.2c-22.1-.2-26.9 0-29.2 1.2-5.8 3.2-5.8 2.9-5.8 56V594h23v-80h16c17.6 0 20.3.7 22 5.3.6 1.9 1 16.4 1 38.9v35.9l23.5-.6V514h10.7c10.9 0 15.1 1 16.5 3.9.4.9.9 18.4 1.1 38.8l.3 37.3h23l-.3-40.8c-.3-40.4-.3-40.7-2.7-46-3.2-7.1-12.1-15.2-19.1-17.5-4.1-1.3-9-1.7-23.6-1.7H551v6.8l-5.7-3.1zM659 527.5V488h-23v98l3.4 3.8 3.5 3.7 8.5-.2c10.7-.2 19.8-2.4 30.5-7.4 22.2-10.3 39.9-30.2 54.5-61 4.8-10.1 13.6-33.5 13.6-36 0-.5-5.3-.9-12.3-.9h-12.2l-3.3 9.7c-11.3 33.4-33.3 61.2-53.4 67.5-10.9 3.3-9.8 7.4-9.8-37.7z"/></svg>