<svg xmlns="http://www.w3.org/2000/svg" viewBox="0 0 329 113"><path fill-rule="evenodd" d="M79.47 101.5c3.5.7 7.2.3 10.59-1 9.41-3.5 29.21-18.8 24.6-22.6-26 7-13.9-22.9-3.8-16.5 3.6 2.3 6.91 8.7 6.91 8.7 4.09-.2 13.1-9.4 11.89-4.2-1.3 5.8 4.81 10.4 12.2 5.7 1.5-1 2.9-1.1 2.1-11.9-4.1-57.1-2.6-48-4.1-52.1.5-2.4 1.4-4.8 2.5-7 .39.68.75 1.38 1.11 2.07a82.52 82.52 0 011.02 2.12c.32.71.63 1.43.93 2.16a41.21 41.21 0 01.84 2.19c.54 1.48 1.02 2.97 1.43 4.48.42 1.51.78 3.04 1.07 4.58-1.3 0-2.2-1.9-3.2-2.5-2.69 1.3 12.6 67.8-10.9 65.6-6.8-.6-7.7-4.2-8.1-9l-.43.27.43-2.07c.11-.3 0-.6-.29-.8-.47.22-1.11 1.69-1.67 3.83l-.05.02c-.67.41-1.35.81-2.03 1.2l-2.07 1.15c-.68.38-1.39.74-2.09 1.1-.9 14.1-25 35.1-38.7 32.2-8.5-1.68-10.37-10.31-9.81-18.36.19-.12.39-.23.59-.35l1.2-.72c-.25 5.31 1.29 10.2 7.83 11.73zm-5.53-25.27c-.35.36.22.07.02-.03.2.1.3.3.3.4-.33 1.46-.84 3.27-1.32 5.25l-1.76.95c.86-3.25 1.94-5.72 2.76-6.57zm35.12-4.93h.13c.05 0 .09 0 .13-.01h.13c.04 0 .08-.01.12-.01.05 0 .09-.01.13-.01s.08-.01.13-.01c.04-.01.08-.01.12-.02s.08-.01.13-.02c.17-.02.33-.05.5-.09.15-.04.33-.08.48-.13-5.4-8.5-14.59 1.3-2 .3zm-37.3-10.9c-.03-1.11.07-2.22.32-3.31l.22-.8c.08-.27.17-.53.26-.79.1-.26.2-.52.31-.77l.36-.75c.13-.25.27-.49.41-.73a16.89 16.89 0 01.46-.7l.49-.67.54-.63c.75-.82 1.6-1.54 2.53-2.15 9.6-6 19.4 17.7 9.1 29.4a96.103 96.103 0 01-3.41 2.95 120.56 120.56 0 01-3.54 2.79c-1.2.9-2.42 1.77-3.66 2.62a102.1 102.1 0 01-3.79 2.46l-.72.45c.12-2.66.69-5.42 1.3-7.92 8.63-4.7 15.2-9.2 15.92-12.35-3-6.2-16.89.3-17.1-9.1zm-.58 22.4a44.81 44.81 0 00-1.33 8.04l-1.37.77a62.49 62.49 0 01-1.98 1.08l-2.01 1.03-2.02.99-2.05.94a64.54 64.54 0 01-2.07.9l-2.08.85c-11.01 2.3-26.01 6.7-29.81 6.2 2.41-1.56 27.11-11.44 44.72-20.8zm5.09-24.6c1.7 1.2 5.7 1 7.7.5-3.91-6.6-10.5-2.6-7.7-.5zM37.46 74.1l-2-3.5c-4.1-6.8-11.1 1.2-13.6 7.1l-2.7 6.6C9.08 108.38-3.71 83.15 2.55 62.06c.27.5.56.92.87 1.25-.02.16-.04.3-.06.39-3.2 27 8.5 27.8 12.5 19.5 4.3-8.8 6.8-17.7 14-21.9 5.1-3 6.9 1.2 9.2 5 7.3 11.8 22.8 5.1 21 .3-2.29-6-5.1-5.7-2.5-12.4l.53-.78c0-.02.02-.06.07-.12 1-.1 6.5 6.9 3.9 17.7-3 12-19 13.1-24.6 3.1zM2.55 62.06C-.39 56.7-.93 41.78 7.37 18.8l.5-.8.3.2c-.03.16-.06.3-.09.42L6.37 26.8c-6.3 28.7.4 29 2.3 26.5.33-.48.65-.96.94-1.46l.22-.38a12.99 12.99 0 00.21-.38c.07-.12.14-.25.21-.38.06-.13.13-.26.19-.39.26-.52.5-1.04.73-1.58.05-.13.1-.27.16-.4l.3-.82c.04-.14.09-.27.13-.41l.31.8c-1.14 13.88-5.63 18.65-8.65 15.41.09-.71.15-1.95-.26-2.11-.4.1-.5.5-.6.8 0 .02-.01.04-.01.06zm55.54-8.64c.02.07.39-.12.07-.12l-.07.12zM274.76 60s8.5 16.4 2 24.4a71.03 71.03 0 01-1.78 1.69c-.6.56-1.21 1.11-1.83 1.65l-1.87 1.6-1.9 1.56-1.95 1.51c-.65.5-1.32.98-1.98 1.46l-2.02 1.41-2.05 1.36-2.09 1.31-2.12 1.25a90.47 90.47 0 01-2.15 1.2l-2.17 1.15-2.21 1.1-2.23 1.04-2.26.98-2.28.93c-10.7 2.3-28.31 7-29.5 6.3-.1-.3.19-.4.4-.5 9.5-5 43.49-16.9 59.2-30.4 4.7-4 2.3-2.7-2.5-15.7-3.1-8.3-3-4.8-1.9-12.1 0-.4.19-.89.59-1.19-.33.25.29.29.13.09-.02-.02-.04-.04-.06-.05.03.02.05.04.07.05 1.02.9 7.09 7.35 7.47 8.2-1.1.5-2.01-.2-3.01-.3zm-4.6-7.99c.01 0 .02-.01.01-.01zm.07.04a.218.218 0 00-.05-.04c.02.01.04.02.05.04zM162.86 15.8c-1.9.1 7.5 63.1-1 69.4-.2 0-.3-.2-.3-.4.8-41.2-6.86-82.69-1.84-84.09-.01-.01 0-.01.04-.01-.01 0-.03.01-.04.01.01.01.06.02.1.02a.138.138 0 00-.04-.03c.2.05.12.05.04.03 1.02.88 7.41 17.38 5.94 17.67-.8-.3-1.5-1.2-2.9-2.6zM159.78.7h-.02.02zm165.59 16c-.5 0 3.19 59.6 3.19 60 .81 9.1-2.5 19.8-4 20.8 0 0 .81-7.6-3.89-84.1-.4-6.5-2.7-2.4 1.1-11.4.09-.19.27-.38.47-.4-.03.01.02.02.08.03l-.05-.03c.22.05.14.05.06.03 1.08.9 7.31 17.38 5.94 17.67-.8-.3-1.51-1.2-2.9-2.6zM130.42 3.97c-.05.07-.12.13-.18.19s-.13.12-.2.18c-.07.05-.13.11-.21.16-.07.05-.14.1-.22.15-.07.05-.14.09-.22.14-.08.04-.16.08-.23.12-.08.03-.17.07-.25.1l-.25.09L16.36 39c.9-3.3 1.8-3.3 5.2-4.4 2.77-.89 104.66-31.19 109.69-32.47 0 0 .01-.01.02-.01s.02 0 .03-.01h.03c.01-.01.02-.01.04-.01-.07.35-.19.68-.35 1a4.65 4.65 0 01-.6.87zm.94-1.87s-.01.01-.02.01-.02 0-.03.01h-.03c-.01.01-.02.01-.04.01-.53.19-.16 1 .12-.03zM28.46 13.5c-2.7-.7-3-3.4-1.9-5.9.6-1.4.3-1.3.1-2.8.5-5.9 11.6 2 10.9 6-.9 4.8-2.7 3.8-6.4 3.4-.63.74-1.3 1.45-2 2.13a33.65 33.65 0 01-2.17 1.96 33.17 33.17 0 01-2.32 1.78 35.34 35.34 0 01-2.45 1.59 35.97 35.97 0 01-5.26 2.56c-1.71.67-3.47 1.2-5.25 1.6 0 .08-.09.17-.35.08.05-.09.1-.14.15-.16C13.42 24 29.16 15.73 29.26 13.9c-.2-.3-.5-.3-.8-.4zm2.2-2.6c.5-1.5-.2-4.2-1.3-3.7-1 .4-4.6 2.9 1.3 3.7zm5.14.38l-.09-.32c-.03-.11-.07-.21-.11-.32-.04-.1-.09-.2-.14-.3-.2-.4-.45-.77-.75-1.1-.07-.08-.15-.16-.23-.23-.08-.08-.17-.15-.25-.22-.09-.07-.18-.14-.27-.2s-.18-.12-.28-.18c-.09-.06-.19-.11-.29-.16-.09-.05-.19-.1-.3-.14l-.31-.12c-.1-.03-.21-.06-.32-.09l-.4 3.3c.6.1 3.2.6 3.8.4-.01-.11-.04-.22-.06-.32zM22.66 55l-1.59-1.05-1.58-1.07c-.53-.35-1.05-.71-1.57-1.08l-1.56-1.1c-.3-.8 2.3-5.4 2.8-6 .9 0 5.5 3.4 6.2 3.9.3-.3 2-3.7 2.2-4.1 1-.5 5.6 3.2 6.5 3.9.3 1.4-2.1 5.6-2.9 6.1-.64-.29-.5-.28-.29-.19l-5.71-3.81c-.9 1.5-1.5 3.1-2.5 4.5zm8.21-.69l.29.19c.04-.04-.14-.14-.29-.19zm2.39 38.59c-.2-.1-5.8-3.8-6.2-4.3.16-.52.35-1.04.55-1.54.2-.51.41-1.01.65-1.51.23-.49.48-.97.75-1.45l.21-.36a10.79 10.79 0 00.21-.35c.07-.11.14-.23.21-.35.08-.11.15-.23.22-.34.9-.1 5.4 3.3 6.1 3.8.4 0 2.1-3.7 2.3-4.1 1-.5 5.6 3.2 6.5 3.9.39 1.28-2.1 5.73-2.86 6.08.01.01 0 .02-.04.02-.68-.25-.4-.19-.16-.11l-5.74-3.79c-.7.4-1.9 4.3-2.7 4.4zm8.44-.61l.16.11c.01 0 .03-.01.04-.02-.01-.02-.1-.05-.2-.09zM193.86 42.8l60.5-19.5c.9.6.5.9-.4 2.6-.5 1-1.4 1.7-2.5 2l-55.6 18.5c-1.2.3-2.8 1.3-4 1.1.06-.27.13-.45.18-.56.49-1.41 1.11-2.82 1.82-4.14zm-7.99 61.8c-4.2 2.2-29.81 8-33.7 8 4.1-3.4 65-24.7 60-36.6-26.4 5.1-12.8-21.8-3.7-16 3.7 2.4 6.1 7.5 6.7 8.5 2-.5 10.4-4.2 10.8-4.4-11-13.4-18 3.8-12.2-10.4 1.6-4 22.9-8.3 34.8.3.6.3.9 1.1.6 1.7l-.2.3c-3.6 6.6-1 3.7-11.8 9.1 3.4 3.6 13.2 4.5 19.9-1.1 3.6-3.1-.6-2.2-5.2-15-.9-2.5-2.1-1.4-1.9-3.2.7-5.4.5-6.2 1.3-6.5.6.2 6.3 5.3 6.8 5.7 2.3 2.1.5 2-2.5 1.6 3 5.8 7.6 10.3 4.3 19.3-4 11.1-16.8 11.3-22.7 7.6-.57-.38-1.13-.77-1.69-1.17-.56-.39-1.1-.8-1.65-1.22-.54-.41-1.07-.84-1.6-1.28-.14-.11-.27-.22-.4-.33l-.78-.66-.39-.34c-4.89 2.6-9.89 4.7-14.89 6.8-1.5 10.8-4 15.7-29.9 29.3zM76.9 32.05c.14-.33.29-.66.45-.99.16-.32.33-.64.51-.96l56.7-18.4c1 .7-.7 3.2-2.5 3.8-.2.1-55.7 18.7-55.9 18.6.1-.35.22-.69.34-1.03l.4-1.02zM49.26 38.9c.6.6.4 3.6.2 4.3-1 6 5.5 5 4.5-.2-.3-1.4-1.5-4.2 0-5.5 1-.1 1.6 5.7 1.7 6.8.2 2.2 3 3.2 3.7 1.3-.3-1.3-3.5-5.4-1.3-8.4l.4-.2.1.2c.5 4.2 3.8 6.3 1.5 10.8-1.5 3-4.2 1.7-5-.4-.1-.2-.1-.4-.4-.4-1.7 4.3-6.7 6.4-6.7-4.3l-.7-.6c-.5-1.6 1.1-3.5 2-3.4zm68-6.9c-.2-.5-.6-.5-.8-.9-.4-1.3.8-2.9 1.9-3.4.8.4.3 4.5.4 6 .3 4.7 5.4 2.2 4.6-1.6-.3-1.3-1.7-5.2.1-5.7 1.1.2 1.4 6.5 1.8 7.5.7 1.8 3.1 2.2 3.5.5-1.4-3-3.3-6.1-1.1-8.6.2.1.4.3.4.6.1 1.7 1 3.5 1.6 5.1 1.8 4.4-2.5 11.1-5.6 4.5-.06.04-.1.09-.12.12-.01 0-.01.01-.02.01-.86.97-.93 3.94-4.36 3.37-2.5-.4-2.3-5.4-2.3-7.5zm6.66 4.13c.01 0 .01-.01.02-.01 0-.01.01-.02.02-.02.01-.02.02-.03.03-.04s.03-.02.04-.03l.03-.03c.08.25-.24.29-.14.13zM61.66 7c-1-.2-2-2.9-3.2-.9-2 3.6-2.1 11.2-4 12-.2-.1-.4-.2-.4-.4a23 23 0 00-.46-2.19c-.18-.73-.4-1.44-.65-2.15-.26-.7-.54-1.39-.85-2.07a28.77 28.77 0 00-1.03-1.99c-.8-1.3-1.51.6-2.91-.6-1-.8-2.2-1.7-1.5-2.7 1.5-2.4 1.4-2.8 2.5-2.5 3.36.86 4.86 5.47 5.61 9.02 0 .08.03.23.1.48.29 0 .29-.2.4-.4 3.89-20.4 9.79-5.8 6.39-5.6zm-6.89 5.52c-.03-.3.25.4.1.48-.03-.16-.07-.32-.1-.48zM303.96 83.9c-.4-.1-.9-5.8-1-6.3-1.9-18.3-33.6-42.4-44.5-60.5-2.1-3.4-2.7-5.5-4.4-6.7-1-.7-.5-1.8-.4-5 .1-5 .7-3 7.1 2.3 3.8 3.1 5.11 4.1 5.3 5.1-.6.4-2.19 0-3-.2l-1.8-.4c-.2.6 31.8 36.9 32.2 37.3 16 17.5 11.9 33.4 10.5 34.4zm-34.8-72.2c1.1-3 .9-2.8 2.2-3.2.6-.2 19-7 19.6-6.6-.6 2.99.99 1.31-21.41 10.19-.07.03-.16.06-.29.11-.1-.1-.2-.3-.1-.5zm.4.39c.52-.24-.48-.07-.3.11.11-.04.19-.08.3-.11zM114.67 46.8c.4-.1.8-.4 1.3-.1-.6 2.99.89 1.51-21.44 10.29l-.06.03c-.02.01-.05.02-.07.03s-.04.02-.07.03c-.02 0-.04.01-.06.02-.1-.1-.21-.3-.1-.5 1.5-3.9-1.8-1.7 20.5-9.8zM94.54 56.99c.57-.25-.45-.07-.27.11.09-.04.18-.07.27-.11zM62.67 101.9c.4-.1.8-.4 1.3-.1-.5 2.7.5 1.6-21.7 10.4-.2-.1-.2-.3-.1-.5 1.5-4-1.7-1.7 20.5-9.8zM.07 109c.8-2.2.8-2.8 1.8-3.2l22.98-8.1c.02-.01.04-.01.08 0h-.08c-.14.06 0 .37.08.27a.91.91 0 01.03-.23c0 .12-.02.19-.03.23-.4 2.48.08 1.86-24.76 11.43-.3-.1-.1-.3-.1-.4zm24.86-11.3h.04c-.01.01-.01.03-.01.04v-.04h-.03zm143.44-75.3c-.4-.2.6-3.2 1.69-3.6L193 10.71c.03-.02.07-.02.12-.01-.03 0-.07 0-.12.01-.22.09.06.55.16.05-.47 2.92.84 1.7-24.79 11.64zm24.75-11.7h.04v.06c0-.02.01-.04-.01-.06h-.03zm-70.5 40.93a1.1 1.1 0 01-.02-.18 1.1 1.1 0 01.02-.18c.01-.06.03-.11.05-.17 2.7-5.5 2.5-5.8 3.5-5.2 5.3 3.2 6 3.9 5.5 4.9-.2.9-1.9 5.1-2.9 5.2l-6.1-4.2c-.02-.06-.04-.11-.05-.17zM242.06 80.7c.91-.1 5.6 3.4 6.31 4.2.4 1.2-2 5.3-2.81 6-.3-.1-4.59-3.2-6-4-.19 0-.4-.3-.4-.5l2.9-5.7zm-65.09-51.4c.9-.1 5.59 3.5 6.3 4.2.4 1.2-2 5.3-2.8 6-.29-.1-6.07-3.94-6.48-4.47.15.09.84-1.65-.02-.03l3-5.7zm57.63-18.79c-.2.68-.38 1.36-.55 2.04-.05.17-.09.34-.13.51l-.12.51-.12.52c-.04.17-.08.34-.11.51-.7 4.2 1.4 5.2 2.5 4.2.8-.7 1.8-2.7 1.8-1.9-1.3 10.6-11.1 6.1-2.4-10.2l.2-.3.2.1c-.31 1 0 0 0 0l-.67 2-.6 2.01zm74.27 64.29c0-1.2-6-61.3-6.61-62.9-1-2.9-1-2.4-.2-5.3 1.31-4.7 1.5-4.7 2.5-2.7 12.31 23.9 4 13.3 3 13l4.81 53.2c.19 31.7-33.2 33.8-33.5 32.8 1-3 29.69-12.5 30-28.1zM11.36 25.9c.12-.02.23-.05.35-.08-.01-.07-.09-.14-.2-.08-.07.06-.12.11-.15.16zm-3.19-7.7c-.1-.04-.54 2.56-.09.42l.09-.42zm87 66.4c.16-.16.31-.33.46-.5.14-.18.29-.35.42-.54a8.06 8.06 0 00.38-.57c.12-.19.23-.39.34-.59l.2.3c-1 8-7.3 8-5.5-2.2a20.36 20.36 0 01.53-2.18c.21-.72.45-1.43.73-2.12.06-.17.14-.35.21-.52s.15-.34.23-.52c.07-.17.15-.34.24-.51.08-.16.16-.33.24-.5a26.65 26.65 0 011.12-1.95l.18.09c-.09 0-.23.71-.09.31.02-.04.03-.07.04-.11-.01.04-.02.08-.03.11-1.65 5.13-2.79 8.55-2.1 11 .3 1.1 1.4 1.8 2.4 1zm-.27-12.11a1.67 1.67 0 00.06-.2v.01c-.01.06-.03.13-.06.19zM79.77 11.5c-1.91 2.7-7.5-.2-1.8-11.1l.3-.4.1.1c-.03.04-.21.69-.1.3-2.45 8.17-.17 11.14 2.99 6 .5.8-.7 3.9-1.49 5.1zm217.49 21.3c.5.8-.7 3.9-1.5 5-1.39 1.9-5.2 1.1-4.1-5 .14-.56.3-1.12.47-1.67a18.56 18.56 0 01.61-1.62c.22-.54.45-1.07.7-1.58.25-.52.53-1.03.82-1.53l.11.1c-.09 0-.27.88-.06.17-2.51 8.27-.23 11.29 2.95 6.13zm-2.95-6.13c.01-.05.04-.11.06-.17-.03.06-.04.11-.06.17zM124.6 73.53l1.53-.96c-5.93 31.76 29.93 29.91 53.04 10.23 4.5-3.8 3.5-4.2.5-10.2-4-7.7-3.3-10.5-5.3-12.4-.9-.8.5-6.4.9-7.4 1-.2 7.3 6.6 7.7 7.3.9 1.5-1.91.9-3.5.5.3 2.3 10.09 14.7 2.9 25.1-7.31 10.5-46.4 33.3-57.9 5-2-4.67-1.11-12.5.13-17.17zM103.06 38.2l.21.3c-1.3 10.7-11 6-2.41-10.2 0-.2.1-.2.3-.3-4.4 14.2-.9 14.7 1.9 10.2zm205.7 69.8h-.2c-.1 0 9.61-13.8 1.4-9.7-.3-1.1.8-5 3.4-4.8 3.6.3 2.31 9.3-4.6 14.5zm-43.29 4.2c-.1 0-.1-.1 0-.2 2.4-3.5 5-6.4 4.8-8.9 0-.8-.7-1.4-1.5-1.4-.3 0-.5.1-.8.3 0 .1-.8.6-1 .5-.3-1.1.8-5 3.4-4.8 5.1.4-1.11 13.9-4.9 14.5zm-61.91-6.9c-.24.65-.52 1.27-.84 1.88-.09.15-.17.3-.26.45l-.27.44c-.1.14-.19.28-.29.42s-.2.28-.31.42a13.33 13.33 0 01-1.36 1.56c-.49.48-1.01.92-1.57 1.33 0-.1 8.1-11.4 1.1-7.9-.1-1 .2-1.9.7-2.7 1.6-2.6 5.1-.8 3.1 4.1zm-86.09-3.3c-1.8 3.8-5.2 6.6-6.1 6.7l-.1-.2 3.8-4.6c1.8-2.5 1.6-4.9-2.2-3.3h-.1c0 .1 0 0 0 0-.3-1 .8-4.2 3.4-4s2.2 3.6 1.3 5.4zm164.5-77.6c-.2-2.1.9-2.7 2.3-4-.2-1-3.3-.7-2.5-3.5.8-2 2.1-3.8 3.9-5.1 3.8-2.8 5.2.9 2.89 3.6-.3-.1-.5-.4-.69-.7-1.31-1.2-4.61.9-3.2 2 3.2 2.4 3.89.1 8.3-1.9 0 .04-.01.08-.01.12v.12c0 .04 0 .08-.01.12 0 .04 0 .08-.01.12-.15 2.61-1.09 2.67-10.07 8.72-.2.2-.61.4-.9.4zm10.97-9.12c.01-.15.01-.31.02-.48-.44.26-.11 1.28-.02.48zm-.68 69.02c.17-.16.32-.33.47-.5.14-.18.29-.35.42-.54a8.06 8.06 0 00.38-.57c.12-.19.23-.39.34-.59.5.8-.7 3.9-1.5 5-1.2 1.6-4 1.2-4.11-2-.01-.29-.01-.58-.01-.87a25.26 25.26 0 01.02-.88l.04-.87.08-.87a23.36 23.36 0 01.67-3.43c.3-1.13.69-2.23 1.16-3.3.11-.27.23-.53.36-.79a14.21 14.21 0 01.4-.78c.14-.26.28-.51.43-.76.14-.26.3-.5.46-.75l.09.2c-.09 0-.28.93-.03.1-1.58 5.25-2.86 8.72-2.06 11.2.3 1 1.39 1.8 2.39 1zm-.31-12.24c-.01.01-.01.03-.02.04.01-.01.01-.03.02-.04zm-99.91-25.12l-.18.56c.67.08.5-1.18.18-.56zm47.13 10.76c-1.9-2-12.1-2.2-12.3-1.3l5.9 4.5 6.4-3.2zm-37.4 11.4c1.7.7 5.2.6 7 .2-4.2-6.9-10.7-1.8-7-.2zm-48.11 13.5c.81-.7 1.9-2.7 1.81-1.9-.91 7.7-5.6 6.6-5.81 2.8-.19-4.7 1-9.4 3.7-13.3v.1c-1.7 5.3-2.9 8.8-2.1 11.3.3 1.1 1.4 1.8 2.4 1zm58.31-66.9c-2.2-1.6-3.9-2.4-3.2-5.2.9-3.2 8.9-10.1 6.3 2.5 3.9 3.3-1.1 5.2-.6 12 .1 2.2 1.7 2.7 2.6 1.7.3-.3 1.3-1.8 1.6-1.9-1.1 7.1-4.4 6.3-5.3 4.5-1.4-2.9.3-7 1.7-11.6-.03-.04-.05-.08-.08-.11a.413.413 0 00-.07-.11l-.08-.11a.7.7 0 01-.08-.1c-.11-.13-.24-.25-.37-.36-.04-.03-.08-.05-.11-.08l-.11-.08c-.04-.02-.07-.05-.11-.07s-.08-.05-.11-.07l-.12-.06c-.04-.02-.08-.04-.12-.05-.04-.02-.08-.04-.12-.05-.04-.02-.08-.04-.12-.05-2.9 2.6-4.1 6.5-18.7 11.5l-.8.1c.3-.4 15.8-9.3 18-12.3zm-1-5.1c.6.8 1.5 1.4 2.5 1.6l.2-1c.5-3.8-3.6-1.7-2.7-.6zm12.1 75.5c-1.8-2.3-3.2-.4-3.6 1.3 1 1.5 3 1.9 4.5 1l3.2-2.7.2.5c-.4 5.5-5.3 4.5-8.9 11.8-2.8 5.7 12 1.6 13 1.6-2.7 4.6-22.3 9.6-11.4-7.3-7.2-3.7 2.9-12.5 4.2-9.6.6 1.2.2 1.4-1.2 3.4z"/></svg>