<svg xmlns="http://www.w3.org/2000/svg" fill-rule="evenodd" viewBox="0 0 329 113"><path d="M74.265 76.6c-1.6 7-7.2 22 5.2 24.9 3.5.7 7.2.3 10.6-1 9.4-3.5 29.2-18.8 24.6-22.6-26 7-13.9-22.9-3.8-16.5 3.6 2.3 6.9 8.7 6.9 8.7 4.1-.2 13.1-9.4 11.9-4.2-1.3 5.8 4.8 10.4 12.2 5.7 1.5-1 2.9-1.1 2.1-11.9-4.1-57.1-2.6-48-4.1-52.1.5-2.4 1.4-4.8 2.5-7a58.368 58.368 0 013.9 8.54c.54 1.48 1.02 2.97 1.43 4.48.42 1.51.77 3.04 1.07 4.58-1.3 0-2.2-1.9-3.2-2.5-2.7 1.3 12.6 67.8-10.9 65.6-6.8-.6-7.7-4.2-8.1-9l-2.01 1.25c-.67.41-1.35.81-2.03 1.2l-2.07 1.15c-.69.38-1.39.74-2.09 1.1-.9 14.1-25 35.1-38.7 32.2-15.66-3.09-8.84-29.75-5.73-32.97l.03-.03c.2.1.3.3.3.4zm-.33-.37c-.34.36.23.07.03-.03l-.03.03zm35.13-4.93a8.69 8.69 0 00.51-.02 4.26 4.26 0 00.5-.06c.17-.02.33-.05.5-.09.16-.04.33-.08.49-.13-5.4-8.5-14.6 1.3-2 .3z"/><path d="M88.865 69.5c-3-6.2-16.9.3-17.1-9.1-.03-1.11.07-2.22.32-3.31a13.21 13.21 0 011.15-3.11 12.84 12.84 0 011.9-2.73c.75-.82 1.6-1.54 2.53-2.15 9.6-6 19.4 17.7 9.1 29.4a99.545 99.545 0 01-14.4 10.82 94.63 94.63 0 01-7.87 4.4 99.243 99.243 0 01-8.23 3.68c-11 2.3-26 6.7-29.8 6.2 3.7-2.4 60.2-24.5 62.4-34.1zm-12.6-11.3c1.7 1.2 5.7 1 7.7.5-3.9-6.6-10.5-2.6-7.7-.5zM62.065 71c-3 12-19 13.1-24.6 3.1l-2-3.5c-4.1-6.8-11.1 1.2-13.6 7.1l-2.7 6.6c-10.1 24.1-22.9-1.2-16.6-22.3.1-.3.2-.7.6-.8.5.2.3 2 .2 2.5-3.2 27 8.5 27.8 12.5 19.5 4.3-8.8 6.8-17.7 14-21.9 5.1-3 6.9 1.2 9.2 5 7.3 11.8 22.8 5.1 21 .3-2.3-6-5.1-5.7-2.5-12.4l.52-.78c0-.02.02-.06.08-.12 1-.1 6.5 6.9 3.9 17.7zm-3.98-17.58c.02.07.4-.12.08-.12l-.08.12zm219.68 6.88c-1.1.5-2-.2-3-.3 0 0 8.5 16.4 2 24.4a98.977 98.977 0 01-7.39 6.5 97.948 97.948 0 01-8 5.74 97.57 97.57 0 01-8.53 4.91 99.01 99.01 0 01-8.98 4.05c-10.7 2.3-28.3 7-29.5 6.3-.1-.3.2-.4.4-.5 9.5-5 43.5-16.9 59.2-30.4 4.7-4 2.3-2.7-2.5-15.7-3.1-8.3-3-4.8-1.9-12.1 0-.4.2-.9.6-1.2.01 0 .01.01.02.01.05.04.09.07.11.09 1.02.9 7.09 7.35 7.47 8.2zm-7.6-8.3c-.35.26.29.3.13.1-.05-.04-.08-.07-.11-.09 0 0-.01-.01-.02-.01zm-104.4-33.6c-.8-.3-1.5-1.2-2.9-2.6-1.9.1 7.5 63.1-1 69.4-.2 0-.3-.2-.3-.4.8-41.2-6.86-82.69-1.84-84.09-.01-.01 0-.01.04-.01.22.05.14.05.06.03 1.02.88 7.41 17.38 5.94 17.67zM159.825.73c-.02-.01-.04-.03-.06-.03-.01 0-.03.01-.04.01.01.01.06.02.1.02z"/><path d="M328.265 19.3c-.8-.3-1.5-1.2-2.9-2.6-.5 0 3.2 59.6 3.2 60 .8 9.1-2.5 19.8-4 20.8 0 0 .8-7.6-3.9-84.1-.4-6.5-2.7-2.4 1.1-11.4.09-.19.28-.38.47-.4h.03c.22.05.14.05.06.03 1.08.9 7.31 17.38 5.94 17.67zm-5.94-17.67l-.06-.03h-.03c-.03.01.03.02.09.03zM131.015 3.1c-.16.31-.36.6-.59.87a4.06 4.06 0 01-.81.68 3.95 3.95 0 01-.95.45L16.365 39c.9-3.3 1.8-3.3 5.2-4.4 2.77-.89 104.65-31.19 109.68-32.47a1.04 1.04 0 01.12-.03c-.07.35-.19.68-.35 1zm.35-1a1.04 1.04 0 01-.12.03c-.53.19-.16 1 .12-.03zm-102.1 11.8c-.2-.3-.5-.3-.8-.4-2.7-.7-3-3.4-1.9-5.9.6-1.4.3-1.3.1-2.8.5-5.9 11.6 2 10.9 6-.9 4.8-2.7 3.8-6.4 3.4a36.116 36.116 0 01-8.95 7.46c-1.68 1-3.43 1.85-5.25 2.56-1.71.67-3.47 1.2-5.25 1.6 0 .08-.09.17-.35.08.05-.09.1-.14.15-.16 1.91-1.74 17.65-10.01 17.75-11.84zm-17.75 11.84c-.07.06-.12.11-.15.16.12-.02.23-.05.35-.08-.01-.07-.09-.14-.2-.08zm19.15-14.84c.5-1.5-.2-4.2-1.3-3.7-1 .4-4.6 2.9 1.3 3.7zm5.2.7a4.63 4.63 0 00-.4-1.26c-.2-.4-.45-.77-.75-1.1a4.87 4.87 0 00-1.03-.83 4.51 4.51 0 00-1.22-.51l-.4 3.3c.6.1 3.2.6 3.8.4zm-10.7 38.9c-.9 1.5-1.5 3.1-2.5 4.5l-1.59-1.05-1.58-1.07c-.53-.35-1.05-.71-1.57-1.08l-1.56-1.1c-.3-.8 2.3-5.4 2.8-6 .9 0 5.5 3.4 6.2 3.9.3-.3 2-3.7 2.2-4.1 1-.5 5.6 3.2 6.5 3.9.3 1.4-2.1 5.6-2.9 6.1-.64-.29-.5-.28-.29-.19l-5.71-3.81zm5.71 3.81l.29.19c.04-.04-.14-.14-.29-.19zm5.09 34.19c-.7.4-1.9 4.3-2.7 4.4-.2-.1-5.8-3.8-6.2-4.3.16-.52.35-1.04.55-1.54.2-.51.41-1.01.65-1.51.23-.49.48-.97.75-1.45a24.83 24.83 0 01.85-1.4c.9-.1 5.4 3.3 6.1 3.8.4 0 2.1-3.7 2.3-4.1 1-.5 5.6 3.2 6.5 3.9.39 1.28-2.1 5.73-2.86 6.08.01.01 0 .02-.04.02-.68-.25-.4-.19-.16-.11l-5.74-3.79zm5.94 3.88c-.01-.02-.1-.05-.2-.09l.16.11c.01 0 .03-.01.04-.02zm150.14-45.44l-.18.56c.67.08.5-1.18.18-.56zm1.82-4.14l60.5-19.5c.9.6.5.9-.4 2.6-.5 1-1.4 1.7-2.5 2l-55.6 18.5c-1.2.3-2.8 1.3-4 1.1.06-.27.13-.45.18-.56.49-1.41 1.11-2.82 1.82-4.14zm-117.36-9.73l.4-1.02c.14-.33.29-.66.45-.99.16-.32.33-.64.51-.96l56.7-18.4c1 .7-.7 3.2-2.5 3.8-.2.1-55.7 18.7-55.9 18.6.1-.35.22-.69.34-1.03zm-29.24 9.23c-.5-1.6 1.1-3.5 2-3.4.6.6.4 3.6.2 4.3-1 6 5.5 5 4.5-.2-.3-1.4-1.5-4.2 0-5.5 1-.1 1.6 5.7 1.7 6.8.2 2.2 3 3.2 3.7 1.3-.3-1.3-3.5-5.4-1.3-8.4l.4-.2.1.2c.5 4.2 3.8 6.3 1.5 10.8-1.5 3-4.2 1.7-5-.4-.1-.2-.1-.4-.4-.4-1.7 4.3-6.7 6.4-6.7-4.3l-.7-.6zm72.3-2.8c-2.5-.4-2.3-5.4-2.3-7.5-.2-.5-.6-.5-.8-.9-.4-1.3.8-2.9 1.9-3.4.8.4.3 4.5.4 6 .3 4.7 5.4 2.2 4.6-1.6-.3-1.3-1.7-5.2.1-5.7 1.1.2 1.4 6.5 1.8 7.5.7 1.8 3.1 2.2 3.5.5-1.4-3-3.3-6.1-1.1-8.6.2.1.4.3.4.6.1 1.7 1 3.5 1.6 5.1 1.8 4.4-2.5 11.1-5.6 4.5-.07.05-.11.1-.14.13-.86.97-.93 3.94-4.36 3.37zm4.36-3.37a1.66 1.66 0 01.14-.13c.08.25-.24.29-.14.13zM55.265 12.6c3.9-20.4 9.8-5.8 6.4-5.6-1-.2-2-2.9-3.2-.9-2 3.6-2.1 11.2-4 12-.2-.1-.4-.2-.4-.4a24.84 24.84 0 00-3-8.4c-.8-1.3-1.5.6-2.9-.6-1-.8-2.2-1.7-1.5-2.7 1.5-2.4 1.4-2.8 2.5-2.5 3.35.86 4.86 5.47 5.6 9.02.01.08.04.23.1.48.3 0 .3-.2.4-.4zm-.5-.08c-.02-.3.26.4.1.48-.03-.16-.06-.32-.1-.48zm238.7 36.98c16 17.5 11.9 33.4 10.5 34.4-.4-.1-.9-5.8-1-6.3-1.9-18.3-33.6-42.4-44.5-60.5-2.1-3.4-2.7-5.5-4.4-6.7-1-.7-.5-1.8-.4-5 .1-5 .7-3 7.1 2.3 3.8 3.1 5.1 4.1 5.3 5.1-.6.4-2.2 0-3-.2l-1.8-.4c-.2.6 31.8 36.9 32.2 37.3zm-24.2-37.3c-.1-.1-.2-.3-.1-.5 1.1-3 .9-2.8 2.2-3.2.6-.2 19-7 19.6-6.6-.6 2.99.99 1.31-21.41 10.19-.07.03-.16.06-.29.11zm.29-.11c.53-.24-.47-.07-.29.11.1-.04.19-.08.29-.11zM94.165 56.6c1.5-3.9-1.8-1.7 20.5-9.8.4-.1.8-.4 1.3-.1-.6 2.99.89 1.51-21.43 10.29a2.07 2.07 0 01-.27.11c-.1-.1-.2-.3-.1-.5zm.37.39c.57-.25-.45-.07-.27.11.09-.04.18-.07.27-.11zm-52.37 54.71c1.5-4-1.7-1.7 20.5-9.8.4-.1.8-.4 1.3-.1-.5 2.7.5 1.6-21.7 10.4-.2-.1-.2-.3-.1-.5zm-42-2.3c-.3-.1-.1-.3-.1-.4.8-2.2.8-2.8 1.8-3.2l22.98-8.1c.03-.01.06-.01.11 0 .01.15-.01.23-.03.27-.4 2.48.08 1.86-24.76 11.43zm24.8-11.7c-.04-.01-.07 0-.12 0-.14.06 0 .37.08.27.01-.09.02-.18.04-.27zm143.4-75.3c-.4-.2.6-3.2 1.7-3.6l22.93-8.09c.04-.02.09-.02.15-.01.02.02.01.04.01.06-.47 2.92.85 1.7-24.79 11.64zm24.78-11.7c-.03-.01-.08 0-.15.01-.21.09.07.55.16.05 0-.02.01-.04.01-.06zm-70.48 41.1c-.02-.06-.04-.11-.05-.17s-.02-.12-.02-.18.01-.12.02-.18.03-.11.05-.17c2.7-5.5 2.5-5.8 3.5-5.2 5.3 3.2 6 3.9 5.5 4.9-.2.9-1.9 5.1-2.9 5.2l-6.1-4.2zm119.4 28.9c.9-.1 5.6 3.4 6.3 4.2.4 1.2-2 5.3-2.8 6-.3-.1-4.6-3.2-6-4-.2 0-.4-.3-.4-.5l2.9-5.7zm-68.1-45.7l3-5.7c.9-.1 5.6 3.5 6.3 4.2.4 1.2-2 5.3-2.8 6-.29-.1-6.07-3.94-6.48-4.47-.01-.01-.02-.02-.02-.03zm.02.03c.15.09.84-1.65-.02-.03 0 .01.01.02.02.03zm61.21-26.53l-.6 2.01c-.2.68-.38 1.36-.55 2.04a67.93 67.93 0 00-.48 2.05c-.7 4.2 1.4 5.2 2.5 4.2.8-.7 1.8-2.7 1.8-1.9-1.3 10.6-11.1 6.1-2.4-10.2l.2-.3.2.1c-.3 1 0 0 0 0l-.67 2zm73.67 66.3c0-1.2-6-61.3-6.6-62.9-1-2.9-1-2.4-.2-5.3 1.3-4.7 1.5-4.7 2.5-2.7 12.3 23.9 4 13.3 3 13l4.8 53.2c.2 31.7-33.2 33.8-33.5 32.8 1-3 29.7-12.5 30-28.1zm-302.5-48c-6.3 28.7.4 29 2.3 26.5.33-.48.65-.96.94-1.46a22.73 22.73 0 00.84-1.53c.25-.52.49-1.04.72-1.58a24.54 24.54 0 00.6-1.63l.3.8c-2.5 30.6-21.3 16.9-4.7-29.1l.5-.8.3.2c-.03.16-.06.3-.09.42l-1.71 8.18zm1.8-8.6c-.1-.04-.54 2.56-.09.42l.09-.42zm84.6 65.4c.3 1.1 1.4 1.8 2.4 1a8.88 8.88 0 001.6-2.2l.2.3c-1 8-7.3 8-5.5-2.2.14-.74.32-1.46.53-2.18s.45-1.43.73-2.12a25.21 25.21 0 01.93-2.05c.34-.67.71-1.32 1.11-1.95l.19.09c-.03.15-.06.24-.09.31-1.65 5.13-2.79 8.55-2.1 11zm2.1-11c.04-.1.07-.2.1-.3l-.01-.01c-.09 0-.23.71-.09.31zm-13.6-66.2c.5.8-.7 3.9-1.5 5.1-1.9 2.7-7.5-.2-1.8-11.1l.3-.4.1.1-.09.3c-2.45 8.17-.17 11.14 2.99 6zm-2.99-6l.09-.3c-.03.04-.21.69-.09.3zm216.04 26.27c.02-.06.03-.11.05-.17-.09 0-.27.88-.05.17zm2.95 6.13c.5.8-.7 3.9-1.5 5-1.4 1.9-5.2 1.1-4.1-5 .14-.56.3-1.12.47-1.67.18-.55.38-1.09.6-1.62.22-.54.45-1.07.71-1.58.25-.52.53-1.03.82-1.53l.1.1c-.02.06-.04.12-.05.17-2.52 8.27-.23 11.29 2.95 6.13zm-146 48.8c.3 1.1 1.4 1.8 2.4 1 .8-.7 1.9-2.7 1.8-1.9-.9 7.7-5.6 6.6-5.8 2.8-.2-4.7 1-9.4 3.7-13.3v.1c-1.7 5.3-2.9 8.8-2.1 11.3zm-50.1-53.6c-4.4 14.2-.9 14.7 1.9 10.2l.2.3c-1.3 10.7-11 6-2.4-10.2 0-.2.1-.2.3-.3zm212.2 65.5c3.6.3 2.3 9.3-4.6 14.5h-.2c-.1 0 9.6-13.8 1.4-9.7-.3-1.1.8-5 3.4-4.8zm-43 4.2c5.1.4-1.1 13.9-4.9 14.5-.1 0-.1-.1 0-.2 2.4-3.5 5-6.4 4.8-8.9 0-.8-.7-1.4-1.5-1.4-.3 0-.5.1-.8.3 0 .1-.8.6-1 .5-.3-1.1.8-5 3.4-4.8zm-69.9 3.5c1.6-2.6 5.1-.8 3.1 4.1-.24.65-.52 1.27-.85 1.88a13.8 13.8 0 01-1.12 1.73c-.41.55-.87 1.07-1.36 1.56-.49.48-1.01.92-1.57 1.33 0-.1 8.1-11.4 1.1-7.9-.1-1 .2-1.9.7-2.7zm-84.3-4.6c2.6.2 2.2 3.6 1.3 5.4-1.8 3.8-5.2 6.6-6.1 6.7l-.1-.2 3.8-4.6c1.8-2.5 1.6-4.9-2.2-3.3h-.1c0 .1 0 0 0 0-.3-1 .8-4.2 3.4-4zm166.7-72.6c-.2.2-.6.4-.9.4-.2-2.1.9-2.7 2.3-4-.2-1-3.3-.7-2.5-3.5.8-2 2.1-3.8 3.9-5.1 3.8-2.8 5.2.9 2.9 3.6-.3-.1-.5-.4-.7-.7-1.3-1.2-4.6.9-3.2 2 3.2 2.4 3.9.1 8.3-1.9a5.69 5.69 0 01-.02.48c-.16 2.61-1.1 2.67-10.08 8.72zm10.08-8.72c.01-.15.01-.31.02-.48-.44.26-.11 1.28-.02.48zm-1 56.78c.01-.02.01-.04.02-.06-.1 0-.29.96-.02.06zm-2.08 11.24c.3 1 1.4 1.8 2.4 1a8.88 8.88 0 001.6-2.2c.5.8-.7 3.9-1.5 5-1.2 1.6-4 1.2-4.1-2a23.91 23.91 0 01.13-3.49c.14-1.16.36-2.31.66-3.43.3-1.13.69-2.23 1.16-3.3a22.21 22.21 0 011.65-3.08l.1.2c-.01.02-.01.04-.02.06-1.59 5.27-2.88 8.75-2.08 11.24zm-74.1-8c-1.5 10.8-4 15.7-29.9 29.3-4.2 2.2-29.8 8-33.7 8 4.1-3.4 65-24.7 60-36.6-26.4 5.1-12.8-21.8-3.7-16 3.7 2.4 6.1 7.5 6.7 8.5 2-.5 10.4-4.2 10.8-4.4-11-13.4-18 3.8-12.2-10.4 1.6-4 22.9-8.3 34.8.3.6.3.9 1.1.6 1.7l-.2.3c-3.6 6.6-1 3.7-11.8 9.1 3.4 3.6 13.2 4.5 19.9-1.1 3.6-3.1-.6-2.2-5.2-15-.9-2.5-2.1-1.4-1.9-3.2.7-5.4.5-6.2 1.3-6.5.6.2 6.3 5.3 6.8 5.7 2.3 2.1.5 2-2.5 1.6 3 5.8 7.6 10.3 4.3 19.3-4 11.1-16.8 11.3-22.7 7.6-.57-.38-1.13-.77-1.69-1.17-.56-.39-1.1-.8-1.65-1.22-.54-.41-1.07-.84-1.6-1.28a49.69 49.69 0 01-1.56-1.33c-4.9 2.6-9.9 4.7-14.9 6.8zm23.4-17.6c-1.9-2-12.1-2.2-12.3-1.3l5.9 4.5 6.4-3.2zm-37.4 11.4c1.7.7 5.2.6 7 .2-4.2-6.9-10.7-1.8-7-.2zm-75.2 1.4c-7.9 33.9 29 32.4 52.6 12.3 4.5-3.8 3.5-4.2.5-10.2-4-7.7-3.3-10.5-5.3-12.4-.9-.8.5-6.4.9-7.4 1-.2 7.3 6.6 7.7 7.3.9 1.5-1.9.9-3.5.5.3 2.3 10.1 14.7 2.9 25.1-7.3 10.5-46.4 33.3-57.9 5-2.9-6.8.3-20.3 1.8-21 .3.2.4.5.3.8zm85.4-54.8c-2.2-1.6-3.9-2.4-3.2-5.2.9-3.2 8.9-10.1 6.3 2.5 3.9 3.3-1.1 5.2-.6 12 .1 2.2 1.7 2.7 2.6 1.7.3-.3 1.3-1.8 1.6-1.9-1.1 7.1-4.4 6.3-5.3 4.5-1.4-2.9.3-7 1.7-11.6a3.11 3.11 0 00-.31-.43c-.11-.13-.24-.25-.37-.36a4.27 4.27 0 00-.44-.3 3.48 3.48 0 00-.48-.21c-2.9 2.6-4.1 6.5-18.7 11.5l-.8.1c.3-.4 15.8-9.3 18-12.3zm-1-5.1c.6.8 1.5 1.4 2.5 1.6l.2-1c.5-3.8-3.6-1.7-2.7-.6zm13.3 72.1c.6 1.2.2 1.4-1.2 3.4-1.8-2.3-3.2-.4-3.6 1.3 1 1.5 3 1.9 4.5 1l3.2-2.7.2.5c-.4 5.5-5.3 4.5-8.9 11.8-2.8 5.7 12 1.6 13 1.6-2.7 4.6-22.3 9.6-11.4-7.3-7.2-3.7 2.9-12.5 4.2-9.6z"/></svg>