<svg xmlns="http://www.w3.org/2000/svg" viewBox="0 0 258.943 45.754" xmlns:v="https://vecta.io/nano"><path d="M169.706.54l.033.224a5.993 5.993 0 0 1-.723 3.249 7.7 7.7 0 0 1-2.283 2.585 10.241 10.241 0 0 1-3.008 1.474 6.855 6.855 0 0 0-.806-.938 8.522 8.522 0 0 0-3.675-1.915 12.817 12.817 0 0 0-2-.338l-.25-.027-.064-.002-.095-.005h-.118l-1.424-.042-1.006.043-1 .07-1.953.284a25.785 25.785 0 0 0-2.809.71l-1.122-.5-1.675-.855c-1.128-.544-2.2-1.216-3.3-1.84l-2.13-1.386 1.03-.615.316-.17h-4.38l-8.1 5.2-7.283-4.678.714-.52h-3.063l.44.258-2.632 1.77-1.61.965-.8.478-.83.44-1.66.88-1.7.787-.073.03-1.51-.418-1.43-.3-.483-.07-.968-.136c-.322-.045-.65-.052-.973-.08l-.977-.054h-1.494l-.475.04a8.3 8.3 0 0 0-.974.11 8.42 8.42 0 0 0-1 .2 7.86 7.86 0 0 0-.974.292l-.48.178c-.16.064-.31.15-.467.223l-.46.24-.44.284-.22.147-.2.168-.41.34a6.528 6.528 0 0 0-.707.813c-.037.046-.057.1-.09.15a11.729 11.729 0 0 1-1.284-.459 9.39 9.39 0 0 1-1.592-.865 8.229 8.229 0 0 1-2.485-2.562 6.494 6.494 0 0 1-.957-3.378c0-.162.023-.32.038-.48h-.86l-.042.47a7.384 7.384 0 0 0 1.053 3.844 9.121 9.121 0 0 0 2.733 2.872 10.326 10.326 0 0 0 1.732.96c.383.168.775.312 1.17.442a5.388 5.388 0 0 0-.33.992 3.567 3.567 0 0 0-.1.548l-.034.558a5.484 5.484 0 0 0 .132 1.106 6.138 6.138 0 0 0 .339 1.056 6.686 6.686 0 0 0 .548.949 7.209 7.209 0 0 0 1.478 1.559l.878.6.46.252.23.125.24.1A13.18 13.18 0 0 0 103.22 18a22.021 22.021 0 0 0 4-.007 27.876 27.876 0 0 0 3.891-.683l1.015-.254.194-.058.685-.207 1.862-.623a48.446 48.446 0 0 0 7.06-3.3l.138-.08.445.3a136.38 136.38 0 0 1 6.148 4.492l.38.3-3.838 3.025q-1.19.92-2.42 1.778l-1.243-.763a13.464 13.464 0 0 0-3.7-1.3 13.92 13.92 0 0 0-1.957-.243l-.955-.023-.99.042a9.126 9.126 0 0 0-3.825 1.052 4.155 4.155 0 0 0-1.539 1.435 2.492 2.492 0 0 0-.235 2.222 2.7 2.7 0 0 0 .632.941 3.968 3.968 0 0 0 .415.358l.455.282a6.417 6.417 0 0 0 1.948.642 11.2 11.2 0 0 0 2 .134l.475-.016c.087-.005.14 0 .254-.014l.247-.027.985-.12a18.1 18.1 0 0 0 3.764-1.128l.9-.383.877-.423.863-.447.85-.464.288-.18.786.637a26.209 26.209 0 0 1 4.591 5.832l.327.592a39.053 39.053 0 0 0-2.579 5.5l-.12.274.083.2 3.446 8.466-2.193-8.553 2.514-3.815q.985 1.87 1.907 3.784l-2.227 8.584 3.676-8.66-.13-.31-2.493-4.486.813-1.207a33.98 33.98 0 0 1 4.735-5.589 16.905 16.905 0 0 1 1.471-1.183l.05.03a29.74 29.74 0 0 0 3.4 1.867l.444.206.456.182.927.347.962.3.928.22.117.027.148.026.246.04.49.08 1 .09a9.255 9.255 0 0 0 2.051-.094 5.338 5.338 0 0 0 2.06-.746l.243-.167c.08-.057.155-.13.23-.2a3.186 3.186 0 0 0 .423-.459 2.834 2.834 0 0 0 .518-1.2 3.164 3.164 0 0 0-.657-2.408 5.39 5.39 0 0 0-1.722-1.455 8.51 8.51 0 0 0-1.977-.786 11.986 11.986 0 0 0-2.049-.354l-.517-.042-.478-.018-.24-.01h-.283l-.514.015-1.027.088-1.018.174a14.231 14.231 0 0 0-3.857 1.409 17.556 17.556 0 0 0-1.578.984q-.727-.47-1.44-.955-1.566-1.077-3.092-2.22l-.79-.6 1.082-.82 6.033-4.52.79-.535a54.569 54.569 0 0 0 5.212 2.537l1.8.68 1.375.443c.176.06.312.087.47.132l1.854.467.95.2.957.155c.635.118 1.284.155 1.93.22l.974.034.49.01.5-.02a13.432 13.432 0 0 0 3.9-.661 8.414 8.414 0 0 0 3.464-2.128 6.308 6.308 0 0 0 .666-.821c.1-.144.183-.307.274-.46l.132-.233c.04-.08.07-.167.1-.25a5.028 5.028 0 0 0 .425-2.131 4.736 4.736 0 0 0-.315-1.668 11.544 11.544 0 0 0 3.188-1.538 9.2 9.2 0 0 0 2.786-3.036A7.588 7.588 0 0 0 171.37.66c0-.043-.014-.086-.016-.13zm-42.2 36.837zm24.18-30.4c.592-.15 1.2-.212 1.8-.31.3-.057.594-.058.892-.087l.89-.066h1.623l.22.02a11.132 11.132 0 0 1 1.747.246 6.958 6.958 0 0 1 3.037 1.463c.07.065.13.14.2.206a17.5 17.5 0 0 1-5.826-.048 26.044 26.044 0 0 1-3.62-.881l-.89-.3-.44-.16c.122-.014.246-.053.37-.08zm-12.378-5.062l2.565 1.7 3.348 1.915 1.717.9h.007a31.983 31.983 0 0 0-3.016 1.288 50.312 50.312 0 0 0-6 3.508l-6.376-3.918-.337-.22 8.096-5.17zm-26.376 4.454l2.564-1.307.833-.47 1.664-.957a87.812 87.812 0 0 0 3.24-2.1l7.258 4.643-1.215.8-6.44 3.963-.138.073-4.338-2.54a36.013 36.013 0 0 0-4.125-1.792zm-15.28 1.93l.316-.28.157-.14c.056-.045.118-.08.175-.123a8.069 8.069 0 0 1 3.233-1.31 7.268 7.268 0 0 1 .917-.133l.474-.052 1.37-.044c.31-.012.62.02.93.026l.928.05.927.1.464.053 1.38.25.314.08-1.98.755a26.528 26.528 0 0 1-3.594.958 20.36 20.36 0 0 1-3.679.366 15.316 15.316 0 0 1-2.6-.247l.274-.303zm19.872 4.39l-1.688.793-1.71.708a31.473 31.473 0 0 1-7.127 1.872 20.09 20.09 0 0 1-3.62.114 11.649 11.649 0 0 1-3.431-.782l-.2-.08-.19-.1-.384-.194c-.255-.13-.478-.3-.722-.45a5.649 5.649 0 0 1-1.178-1.159 5.011 5.011 0 0 1-.432-.685 4.568 4.568 0 0 1-.267-.749 3.9 3.9 0 0 1-.125-.78l.012-.395a2.393 2.393 0 0 1 .054-.392 3.841 3.841 0 0 1 .32-.934 18.547 18.547 0 0 0 7.017.027 30.4 30.4 0 0 0 7.146-2.275 33.789 33.789 0 0 1 5 1.986 43.154 43.154 0 0 1 3.945 2.2l-2.412 1.274zm1.452 12.285a15.09 15.09 0 0 1-3.439 1.223l-.894.14-.224.033a2.006 2.006 0 0 1-.218.02l-.474.03a10.086 10.086 0 0 1-1.787-.088 5.458 5.458 0 0 1-1.653-.508 2.286 2.286 0 0 1-1.1-1.079 1.529 1.529 0 0 1 .151-1.413 3.284 3.284 0 0 1 1.213-1.12 8.112 8.112 0 0 1 3.439-.938l.907-.033.942.03a13.084 13.084 0 0 1 1.805.242 12.512 12.512 0 0 1 3.431 1.238c.284.152.546.34.818.512a28.408 28.408 0 0 1-2.912 1.709zm20.323-1.568a12.176 12.176 0 0 1 3.248-1.306c.282-.08.573-.114.86-.174l.87-.1.44-.026.194-.012h.715l.434.018a8.393 8.393 0 0 1 3.307.77 3.834 3.834 0 0 1 1.224.923 1.548 1.548 0 0 1 .418 1.141 1.27 1.27 0 0 1-.2.543 1.718 1.718 0 0 1-.212.251c-.043.04-.077.084-.125.12l-.145.11a3.876 3.876 0 0 1-1.481.605 7.8 7.8 0 0 1-1.748.16c-.3.008-.6-.027-.9-.038l-.682-.078-.057-.005c-.008 0-.064-.008-.03 0l-1.056-.198-.87-.236c-.292-.077-.58-.19-.87-.29l-.437-.155-.43-.18a25.653 25.653 0 0 1-3-1.49l.538-.354zm-4.552-1.21l1.185.83-1.007.793a27.157 27.157 0 0 0-5.084 6.046l-.2.345-.043-.073a27.874 27.874 0 0 0-4.868-5.985c-.18-.16-.38-.3-.565-.45l2.1-1.308 4.46-3.22 4.025 3.023zm-3.62-5.99l-1.51 1.2-.528-.4-6.312-4.635q2.927-1.67 5.73-3.5l2.04-1.34.605.4 6.06 3.78-6.082 4.497zm31.9-3.6l-.073.2-.1.182c-.068.12-.12.247-.2.36a5.086 5.086 0 0 1-.513.662 7.151 7.151 0 0 1-2.9 1.874 12.347 12.347 0 0 1-3.548.694l-.46.033h-.46c-.308 0-.615.005-.923-.007l-1.847-.163-.922-.125-.91-.172c-.6-.1-1.223-.284-1.835-.43l-.445-.117-1.348-.41-1.764-.637a46.909 46.909 0 0 1-4.814-2.208 50.785 50.785 0 0 1 4.833-2.851 28.58 28.58 0 0 1 4.673-1.91 29.892 29.892 0 0 0 6.569 2.078 18.458 18.458 0 0 0 6.9.02 3.373 3.373 0 0 1 .349 1.367 3.626 3.626 0 0 1-.26 1.569z"/><path d="M0 0h258.943v1.37H0z"/></svg>