<svg xmlns="http://www.w3.org/2000/svg" width="258.943" height="45.754" viewBox="0 0 258.943 45.754"><defs><style>.a{fill:#dd9e30;}</style></defs><g transform="translate(-130.93 -163.267)"><g transform="translate(219.655 163.806)"><path class="a" d="M254.777,163.188c.008.075.027.148.033.224a5.993,5.993,0,0,1-.723,3.249,7.7,7.7,0,0,1-2.283,2.585,10.241,10.241,0,0,1-3.008,1.474,6.855,6.855,0,0,0-.806-.938,8.522,8.522,0,0,0-3.675-1.915,12.817,12.817,0,0,0-2-.338l-.251-.027L242,167.5c.008,0-.083-.005-.095-.005l-.118,0-.475-.014-.949-.028c-.331.009-.67.03-1.006.043s-.677.02-1,.071c-.651.085-1.311.138-1.953.284a25.785,25.785,0,0,0-2.809.71l-1.122-.5c-.563-.28-1.116-.57-1.675-.855-1.128-.544-2.2-1.216-3.3-1.839-.721-.445-1.424-.917-2.131-1.386.343-.2.683-.417,1.029-.615.1-.06.212-.111.316-.17h-4.38c-2.756,1.673-5.43,3.449-8.1,5.2-2.4-1.585-4.814-3.175-7.283-4.678.242-.168.475-.349.714-.521H204.6l.44.258c-.867.6-1.744,1.2-2.632,1.771l-1.611.965c-.27.159-.535.328-.81.478l-.829.441-1.661.879-1.7.787-.073.031c-.5-.149-1-.3-1.509-.418l-.954-.2-.476-.1-.483-.069-.968-.136c-.322-.045-.649-.052-.973-.079s-.651-.058-.977-.054l-.98,0-.514,0-.475.039a8.3,8.3,0,0,0-.974.11,8.42,8.42,0,0,0-1,.2,7.86,7.86,0,0,0-.974.292l-.48.178c-.159.064-.311.149-.467.223s-.314.147-.461.239l-.441.284c-.072.049-.148.094-.219.147l-.2.168-.409.341a6.528,6.528,0,0,0-.707.813c-.037.046-.057.1-.091.151a11.729,11.729,0,0,1-1.284-.459,9.39,9.39,0,0,1-1.592-.865,8.229,8.229,0,0,1-2.485-2.562,6.494,6.494,0,0,1-.957-3.378c0-.162.023-.32.038-.48h-.859c-.014.157-.039.314-.042.471a7.384,7.384,0,0,0,1.053,3.844,9.121,9.121,0,0,0,2.733,2.872,10.326,10.326,0,0,0,1.732.96c.383.168.775.312,1.171.442a5.388,5.388,0,0,0-.33.992,3.567,3.567,0,0,0-.1.548l-.034.558a5.484,5.484,0,0,0,.132,1.106,6.138,6.138,0,0,0,.339,1.056,6.686,6.686,0,0,0,.548.949,7.209,7.209,0,0,0,1.478,1.559c.292.2.573.419.878.59l.459.252.231.125.239.1a13.18,13.18,0,0,0,3.951,1.033,22.021,22.021,0,0,0,4-.007,27.876,27.876,0,0,0,3.891-.683l.955-.239.06-.015.08-.024.114-.034.229-.069.456-.138c.6-.168,1.235-.4,1.862-.623a48.446,48.446,0,0,0,7.06-3.3c.046-.026.091-.054.138-.08.148.1.3.2.445.3,2.091,1.431,4.133,2.941,6.148,4.492l.379.29c-1.278,1.019-2.552,2.039-3.838,3.025q-1.191.92-2.42,1.778c-.406-.267-.813-.536-1.243-.763a13.464,13.464,0,0,0-3.7-1.3,13.92,13.92,0,0,0-1.957-.243c-.33-.023-.635-.014-.955-.023-.347.005-.658.018-.989.042a9.126,9.126,0,0,0-3.825,1.052,4.155,4.155,0,0,0-1.539,1.435,2.492,2.492,0,0,0-.235,2.222,2.7,2.7,0,0,0,.632.941,3.968,3.968,0,0,0,.415.358c.151.1.3.2.455.282a6.417,6.417,0,0,0,1.948.642,11.2,11.2,0,0,0,2,.134l.475-.016c.087-.005.141,0,.254-.014l.247-.027c.327-.041.661-.062.985-.121a18.1,18.1,0,0,0,3.764-1.128l.9-.383.877-.423c.295-.137.58-.29.863-.447s.571-.3.851-.464c.1-.057.19-.122.288-.179.263.21.536.409.786.637a26.209,26.209,0,0,1,4.591,5.832c.115.193.214.4.327.592a39.053,39.053,0,0,0-2.579,5.5h0l-.119.274.083.2,3.446,8.466-2.193-8.553c.852-1.278,1.682-2.553,2.514-3.815q.985,1.869,1.907,3.784l-2.227,8.584,3.584-8.443.092-.217-.13-.309h0c-.813-1.494-1.637-3-2.493-4.486.271-.4.535-.813.813-1.207a33.98,33.98,0,0,1,4.735-5.589,16.905,16.905,0,0,1,1.471-1.183l.049.031a29.74,29.74,0,0,0,3.4,1.867c.148.069.293.143.444.206l.456.182c.308.117.6.254.927.347s.645.209.962.3l.928.22.117.027.148.026.246.039.491.079c.333.03.662.083,1,.091a9.255,9.255,0,0,0,2.051-.094,5.338,5.338,0,0,0,2.06-.746l.243-.167c.08-.057.155-.13.231-.2a3.186,3.186,0,0,0,.423-.459,2.834,2.834,0,0,0,.518-1.2,3.164,3.164,0,0,0-.657-2.408,5.39,5.39,0,0,0-1.722-1.455,8.51,8.51,0,0,0-1.977-.786,11.986,11.986,0,0,0-2.049-.354c-.171-.015-.36-.037-.517-.042l-.478-.018-.239-.01h-.09l-.064,0-.129,0-.514.015c-.342.016-.685.054-1.027.088-.338.058-.683.094-1.018.174a14.231,14.231,0,0,0-3.857,1.409,17.556,17.556,0,0,0-1.578.984q-.727-.47-1.44-.955-1.566-1.077-3.092-2.219c-.266-.2-.527-.4-.791-.6.358-.274.725-.544,1.082-.82,2-1.549,3.981-3.094,6.033-4.52.261-.182.525-.357.789-.535A54.569,54.569,0,0,0,229.54,178c.59.246,1.2.455,1.8.681l.916.295.459.148c.176.06.312.087.47.132.616.159,1.209.346,1.854.467l.951.2c.319.06.638.1.957.155.635.118,1.284.155,1.93.221.323.022.649.022.974.034.163,0,.326.011.489.011l.49-.02a13.432,13.432,0,0,0,3.9-.661,8.414,8.414,0,0,0,3.464-2.128,6.308,6.308,0,0,0,.666-.821c.1-.144.183-.307.274-.461l.132-.233c.039-.081.069-.167.1-.25a5.028,5.028,0,0,0,.425-2.131,4.736,4.736,0,0,0-.315-1.668,11.544,11.544,0,0,0,3.188-1.538,9.2,9.2,0,0,0,2.786-3.036,7.588,7.588,0,0,0,.991-4.088c0-.043-.014-.086-.016-.129Zm-42.2,36.837h0Zm24.18-30.4c.592-.151,1.2-.212,1.8-.309.3-.057.594-.058.892-.087l.889-.066.95,0h.593c.027,0-.024,0,.024,0l.056,0,.221.019a11.132,11.132,0,0,1,1.747.246,6.958,6.958,0,0,1,3.037,1.463c.071.065.13.14.2.206a17.5,17.5,0,0,1-5.826-.048,26.044,26.044,0,0,1-3.62-.881c-.3-.092-.6-.189-.889-.3-.147-.053-.293-.109-.441-.161C236.512,169.693,236.636,169.654,236.76,169.627Zm-12.378-5.062c.848.577,1.7,1.148,2.565,1.7,1.11.647,2.189,1.338,3.348,1.915.573.3,1.143.607,1.717.9l.007,0A31.983,31.983,0,0,0,229,170.366a50.312,50.312,0,0,0-6,3.508c-2.166-1.227-4.281-2.557-6.376-3.918l-.337-.221C218.981,167.963,221.659,166.21,224.383,164.564Zm-26.376,4.454,1.709-.871.855-.436c.284-.148.555-.315.833-.471l1.664-.957c1.093-.679,2.177-1.373,3.24-2.1,2.452,1.485,4.856,3.06,7.258,4.643-.406.265-.81.533-1.215.8-2.128,1.375-4.253,2.732-6.439,3.963-.046.027-.094.047-.138.073-1.41-.9-2.842-1.768-4.338-2.539a36.013,36.013,0,0,0-4.125-1.792Zm-15.281,1.929.316-.281.157-.141c.056-.045.118-.081.175-.123a8.069,8.069,0,0,1,3.233-1.31,7.268,7.268,0,0,1,.917-.133l.474-.052.441-.014.928-.03c.309-.012.619.019.93.026s.62.015.928.049l.927.1.464.053.459.083.92.166c.106.022.209.056.314.079-.656.273-1.316.529-1.98.755a26.528,26.528,0,0,1-3.594.958,20.36,20.36,0,0,1-3.679.366,15.316,15.316,0,0,1-2.6-.247C182.546,171.152,182.641,171.053,182.726,170.947Zm19.872,4.391c-.559.274-1.125.529-1.688.793-.57.233-1.143.5-1.711.708a31.473,31.473,0,0,1-7.127,1.872,20.09,20.09,0,0,1-3.62.114,11.649,11.649,0,0,1-3.431-.782l-.2-.079-.191-.1-.384-.194c-.255-.13-.478-.3-.722-.449a5.649,5.649,0,0,1-1.178-1.159,5.011,5.011,0,0,1-.432-.685,4.568,4.568,0,0,1-.267-.749,3.9,3.9,0,0,1-.125-.78l.012-.395a2.393,2.393,0,0,1,.054-.392,3.841,3.841,0,0,1,.32-.934,18.547,18.547,0,0,0,7.017.027,30.4,30.4,0,0,0,7.146-2.275,33.789,33.789,0,0,1,5,1.986,43.154,43.154,0,0,1,3.945,2.2C204.209,174.5,203.411,174.937,202.6,175.338Zm1.452,12.285a15.09,15.09,0,0,1-3.439,1.223c-.3.062-.6.092-.894.141l-.224.033a2.006,2.006,0,0,1-.218.02l-.474.031a10.086,10.086,0,0,1-1.787-.088,5.458,5.458,0,0,1-1.653-.508,2.286,2.286,0,0,1-1.1-1.079,1.529,1.529,0,0,1,.151-1.413,3.284,3.284,0,0,1,1.213-1.12,8.112,8.112,0,0,1,3.439-.938c.3-.02.622-.03.907-.033.313.012.641.005.942.031a13.084,13.084,0,0,1,1.805.242,12.512,12.512,0,0,1,3.431,1.238c.284.152.546.339.818.512A28.408,28.408,0,0,1,204.051,187.623Zm20.323-1.568a12.176,12.176,0,0,1,3.248-1.306c.282-.079.573-.114.859-.174.289-.037.578-.08.87-.1l.44-.026.194-.012h.239l.476,0c.16,0,.289.014.434.018a8.393,8.393,0,0,1,3.307.77,3.834,3.834,0,0,1,1.224.923,1.548,1.548,0,0,1,.418,1.141,1.27,1.27,0,0,1-.2.543,1.718,1.718,0,0,1-.212.251c-.043.039-.077.084-.125.121l-.145.109a3.876,3.876,0,0,1-1.481.605,7.8,7.8,0,0,1-1.748.16c-.3.008-.6-.027-.9-.038l-.455-.052-.227-.026-.057-.005c-.008,0-.064-.008-.031,0l-.117-.022-.939-.176c-.3-.072-.577-.159-.869-.236s-.581-.191-.871-.289l-.437-.155c-.144-.054-.285-.119-.429-.179a25.653,25.653,0,0,1-3-1.49C224.019,186.288,224.19,186.159,224.373,186.055Zm-4.552-1.211c.392.28.789.555,1.185.831-.341.259-.687.512-1.007.793a27.157,27.157,0,0,0-5.084,6.046c-.072.114-.134.231-.2.345l-.043-.073A27.874,27.874,0,0,0,209.8,186.8c-.179-.159-.379-.3-.565-.449.706-.429,1.421-.85,2.1-1.308,1.534-1.027,3-2.117,4.461-3.221C217.13,182.838,218.461,183.854,219.821,184.845Zm-3.621-5.989c-.509.395-1.007.8-1.511,1.2-.175-.134-.353-.266-.528-.4-2.07-1.577-4.157-3.153-6.312-4.635q2.927-1.671,5.731-3.5c.683-.445,1.361-.894,2.04-1.341.2.132.4.266.605.4,1.994,1.3,4,2.583,6.061,3.781C220.2,175.8,218.184,177.322,216.2,178.856Zm31.9-3.6c-.024.064-.043.129-.073.19l-.1.182c-.068.119-.121.247-.2.361a5.086,5.086,0,0,1-.513.662,7.151,7.151,0,0,1-2.9,1.874,12.347,12.347,0,0,1-3.548.694l-.459.033c-.152,0-.307,0-.46,0-.308,0-.615.005-.923-.007-.615-.049-1.234-.065-1.847-.163-.307-.042-.616-.076-.922-.125l-.909-.172c-.6-.1-1.223-.284-1.835-.43-.147-.039-.32-.075-.445-.117l-.448-.136-.9-.273c-.588-.21-1.182-.406-1.764-.637a46.909,46.909,0,0,1-4.814-2.208,50.785,50.785,0,0,1,4.833-2.851,28.58,28.58,0,0,1,4.673-1.91,29.892,29.892,0,0,0,6.569,2.078,18.458,18.458,0,0,0,6.9.02,3.373,3.373,0,0,1,.349,1.367A3.626,3.626,0,0,1,248.1,175.255Z" transform="translate(-173.796 -163.188)"/></g><rect class="a" width="258.943" height="1.37" transform="translate(130.93 163.267)"/></g></svg>