<svg xmlns="http://www.w3.org/2000/svg" fill="#337ab7" viewBox="0 0 1044 1044"><defs/><path d="M522 0h.3l148.5 148.3q110.3-.2 220.7 0v220.8L1044 521.7v.4L891.5 674.7v212H679.3q-75 75.3-150.2 150.3c-2.2 2.2-4.7 4.2-6.4 6.9h-1.3c-3.7-5.3-9-9.3-13.4-14.1l-143.1-143H153V674.9L0 521.9l1 1v-1q76.4-76.5 153-153V148.2h218c1.4 0 3-.1 4-1.4Q449.4 73.4 522.9 0m-79.2 161.6l74.4 74.3c1.3 1.2 2.2 2.9 3.9 3.4s2.2-1.4 3.1-2.2l75.5-75.7L522.1 83l-78.4 78.6m-228.6 49.9l-.1 109.6h110.4c-51.4 51.1-81.3 123-80.9 195.5l-78.1-78.2L87.8 517q39.2 39.3 78.4 78.4l78.3-78.1a275.1 275.1 0 0022.1 108.4 278.9 278.9 0 0058.8 87.2H215V824h111.3V713.8a279.6 279.6 0 0080.7 55.8 276 276 0 00114.2 25l-77.6 77.6 78.5 78.7 78.6-78.5-77.8-77.9c72.3.4 143.9-29.6 194.9-80.6l.1 110.1h111.4l-.1-111.1c-36.7-.1-73.5.2-110.2-.1 6.4-6.7 12.7-13.5 18.5-20.7a277.3 277.3 0 0062.3-174.6l78 77.9q39.2-39.1 78.4-78.4l-78.5-78.6-78 78a275.7 275.7 0 00-22.4-108.9 278.8 278.8 0 00-58.4-86.4h110.3l.1-111.1H717.9v110.2a276.1 276.1 0 00-125.9-72 279.8 279.8 0 00-130.9-2.2 276.8 276.8 0 00-134.8 74.2V210H216.6zm285.5 68.3a238.2 238.2 0 11-81.6 22.4 239.3 239.3 0 0181.6-22.4M354.7 444.3l.1 117.2h19.7l.1-117.1c-6.6-.2-13.3-.2-19.9-.1m27.6 34.7c-.1 6.7-.1 13.3 0 20h36.5a6.7 6.7 0 017.2 7.1l.1 55.5c6.6-.2 13.3-.1 19.9-.1v-53.6c0-5.4-.9-10.8-3.7-15.5-4.8-8.7-14.9-13.2-24.5-13.4-11.8-.1-23.7 0-35.5 0m82 10v72.5h19.9V499h26.9a6.8 6.8 0 016.9 7v55.5h20v-43.6c-.1-6.3.4-12.7-.9-18.9 6.6.1 13.3-.2 20 .1a6.6 6.6 0 015.6 6.9l.1 55.5h19.7v-55.6a27.3 27.3 0 00-7.6-18.9 31.5 31.5 0 00-20.9-8h-26v6.1a33.1 33.1 0 00-19-6.1c-11.7 0-23.4-.1-35 .1a9.9 9.9 0 00-9.7 9.9m136.5-10l-.1 71c0 2.5.2 5.3 1.8 7.5 2.7 4.1 8.1 4.7 12.7 4.1 22.1-.9 42.8-12.8 56.5-29.8 12.9-15.3 21.4-33.9 27.6-52.8h-21.1a116.4 116.4 0 01-24.1 44c-8.6 9.4-20 18.1-33.3 18.1V479z"/></svg>