<svg xmlns="http://www.w3.org/2000/svg" viewBox="0 0 2001.9 2002"><path d="M2007.8,1005.8c-2.5,2.4-5,4.7-7.5,7.2l-120.8,120.7L1724,1288.9a37.3,37.3,0,0,1-3.5,3.4c-3.9,3-4.9,6.9-4.9,11.7.2,27.9.1,55.7.1,83.5v304.2c0,3.8-.1,7.6-.2,11.9-2.4.3-4.2.6-6,.7s-5.8,0-8.7,0h-392c-50.5,49.7-100.1,100.4-150.3,150.5l-151.3,150.7c-3.4-1.4-5.4-4.4-7.8-6.7L901,1900.4c-28.5-28.5-57.2-56.8-85.7-85.3L713,1712.4c-1.3-1.3-2.8-2.6-4-4-2.6-3.4-6-4.5-10.1-4.1-2.3.2-4.5,0-6.8,0H299.5a43.3,43.3,0,0,1-1.1-5.1c-.2-2.8-.1-5.7-.1-8.6v-381c0-14,1.4-10.4-8.2-19.9q-65.7-66-131.6-131.7-72.6-72.6-145.4-145-3.7-3.7-7.2-7.5c.9-3.7,3.8-5.4,6-7.6L146.2,863.4,288.7,720.9l2.7-2.7c7.6-7.8,6.9-5.4,6.9-16.7V301.4c0-4.2.2-8.3.3-12.9,2.4-.3,4.2-.7,6-.8h405c14.7,0,10.5,1.9,20.8-8.4L997.7,11.9l8.7-8.4c1.6,1.2,3.1,2.2,4.4,3.4s3.7,3.6,5.5,5.4Q1150,146,1283.7,279.7c9.6,9.5,6,7.9,19,7.9h412c.4,2.4.9,4.2,1,6s0,5.7,0,8.6q0,199.2.1,398.3c0,13.5-1.6,9.6,7.9,19q127.5,127.6,255.1,255.2l29,29.1Zm-1503-.9c-.2,271.1,218.2,500.6,499.9,501.8s503.9-227.8,504-501.6c.2-278.3-225.6-502.5-502.3-502.3S504.6,727.9,504.8,1004.9Zm652.4-692.3c-2.2-2.4-4.3-4.7-6.6-6.9l-71.9-72-65.2-65.1c-2.1-2.2-3.9-5-7.3-5.8-1.2,1-2.2,1.7-3.1,2.6l-145.8,146-.5.8a7.9,7.9,0,0,0,0,1.6c.9,1,2.1,2.5,3.5,3.8l142.5,142.5a22.4,22.4,0,0,0,3.8,3Zm.2,1365.3c-8.2-9.6-144.9-146-150.6-150.3a6.7,6.7,0,0,0-1.7.8l-4.9,4.6q-71.6,71.7-143,143.3a1.2,1.2,0,0,0-.4.8,4,4,0,0,0,0,1.1l149.6,149.6a10.9,10.9,0,0,0,2.1-.9l142.6-142.3Zm-833.6-832c-2.6,2.5-5.2,4.8-7.6,7.3l-83.4,83.4q-27.2,27-54.2,54.2c-1.7,1.7-4.3,3-3.9,6.6l7.1,7.3L305.2,1128c5,5,10,9.9,15.1,14.7a40.7,40.7,0,0,0,4.5,3.4c5.5-5.2,10.6-10,15.6-15q63.8-63.7,127.4-127.5c2.4-2.4,5.5-4.3,6.3-7.3ZM1537.9,996l8.3,8.5,117.3,117.3c7,7,14.1,13.9,21.2,20.8,1.3,1.2,2.3,3.1,5.2,2.9,3.4-3.2,7.2-6.6,10.8-10.2q67.2-67,134.2-134.2c1.6-1.5,2.8-3.3,4.2-4.8-6.8-8.5-144.2-145.6-150.5-150.1a25.1,25.1,0,0,0-2.9,2ZM631.4,619.5V456.9c0-14.4,0-28.8-.1-43.2a47.3,47.3,0,0,0-.9-6.8H424.6c-2.1,0-4.2.6-6.8.9V606.1c0,2.8-.1,5.7,0,8.6s.7,3.5,1,5.2C429.9,621,623.1,620.7,631.4,619.5ZM1383.5,407a22.4,22.4,0,0,0-1.2,2.9c-.1,2.5-.2,5.1-.2,7.6l.3,200.5a3.2,3.2,0,0,0,.3.9l.6.7a4.1,4.1,0,0,0,1.7.7l6.7.2,201.5-.3.9-.2.7-.7a5.8,5.8,0,0,0,.6-1.7c.2-2.5.2-5.1.2-7.7q0-100.2-.3-200.5a1.5,1.5,0,0,0-.2-.9l-1-1.1a22.9,22.9,0,0,0-3.3-.4Zm-753,965-10.8-.2H426c-2.5,0-4.9.5-7.9.8-.1,4-.3,7.4-.3,10.9v193.7c0,2.5.5,4.9.8,7.8,3.7.2,6.8.4,9.9.4H620.4c3.4,0,7,.7,10.1-.8C631.6,1576.5,631.7,1382.9,630.5,1372Zm964.3.1-10.9-.3H1390.1c-2.4,0-4.8.5-7.7.8-.1,4.1-.3,7.5-.3,11V1491c0,28.2,0,56.3.1,84.5,0,3-.9,6.3,1.4,9.6,3.3.1,6.8.3,10.3.3h192.8c2.8,0,5.8.9,8.2-1.2C1595.9,1576.1,1595.9,1381.6,1594.8,1372.1Z" transform="translate(-5.9 -3.5)" fill="#2c78b7"/><path d="M1007,577.8c234.8.1,426.5,190.1,426.8,426.9.3,229.5-185.6,427.9-428.7,427s-426.9-200.5-425.4-429.3C581.3,768,771.5,577.8,1007,577.8ZM933,968.5c1.3-.6,1.8-1.1,2.4-1.1,16-.1,32-.3,47.9-.2,6.5.1,10.1,3.5,11,9.8a73.8,73.8,0,0,1,.5,10.5c.1,36.8,0,73.6.1,110.3,0,3.1-1,6.4,1.8,9.8,7.3,0,14.9.1,22.6-.1s15.1,1,22.8-.9c.1-2,.3-3.6.3-5.2q0-64.2-.1-128.5a47,47,0,0,1,.8-5.8h33c4.8.2,7.7,2.9,9.1,7.2a21.3,21.3,0,0,1,1,5.6c.2,2.2.1,4.5.1,6.7q0,55.2.1,110.3c0,3.4-1.1,7.1,1.2,10,15.4,1.3,39.4.9,46.3-.8.2-2.4.4-4.9.4-7.4,0-39,.1-78-.1-117a89.3,89.3,0,0,0-1.7-17.1c-5.5-29.9-29.1-49.3-59.5-49.4h-50.8a60.7,60.7,0,0,0-6.3.7l-1.4,7.6c-2.7-1-5-1.9-7.2-2.9-6.8-3-13.7-5.3-21.2-5.4H907.4c-7.7,0-13.4,3.6-17.8,9.6s-4.9,10.9-4.9,17.2q.1,79.2.1,158.3a57.2,57.2,0,0,0,.6,6.7c2.1.2,3.6.4,5.2.4H927c1.8,0,3.6-.7,5.7-1.1V1060c0-15.4,0-30.7.1-46.1S932.4,983.4,933,968.5Zm231.2-52c-.1,2.6-.4,5.5-.4,8.3q-.1,75.8,0,151.5a62,62,0,0,0,1,11.4c2.3,12.7,11,19.9,24.1,20.2,28.3.6,54.1-7.6,78-22.5,19.8-12.3,36-28.6,49.9-47.1,26.6-35.6,43.4-75.8,55.8-118.1.4-1.4,1.3-3-.2-4.3-11.8-1.1-41.7-.9-49.1.4l-2.4,8a262.5,262.5,0,0,1-44.5,87.5c-11,14.3-23.8,26.7-39.9,35.3a57.5,57.5,0,0,1-18.9,6.6c-1.7.3-3.5-.2-5.9-.5v-11c0-38.7.1-77.3,0-116,0-3.4.8-7-.9-10.1C1200.4,914.8,1171.6,915,1164.2,916.5ZM854.3,1107.2c.2-3.7.4-6.5.4-9.3V982.8c0-2.9-.3-5.8-.3-8.6a59.9,59.9,0,0,0-6.2-25c-10.5-21.4-27.9-33.1-51.6-33.7s-48.6-.2-72.9-.2c-1.8,0-3.6.4-5.7.6-.2,1.8-.5,3-.5,4.2-.1,14.1-.1,28.1,0,42.2a21.4,21.4,0,0,0,1.1,4.8h10c21.4,0,42.8.2,64.2-.1,8.6-.1,14,3.2,13.9,13.9v6.7c0,36.5,0,72.9.1,109.4,0,3.3-1.2,7,1.5,10.2ZM660.5,837.6V1096a56.1,56.1,0,0,0,0,5.8c.2,1.8.7,3.6,1.1,5.8,8.1,0,15.7.1,23.4-.1s15.2,1,23.2-1.1V849.1c0-2.2.1-4.5-.1-6.7a28.2,28.2,0,0,0-1-5.2C696.7,836.2,668.9,836.4,660.5,837.6Z" transform="translate(-5.9 -3.5)" fill="#2c78b7"/></svg>