<svg xmlns="http://www.w3.org/2000/svg" viewBox="0 0 1078.8 1079.5"><path d="M1081.9,542.3c-.3.1-.6.1-.8.3l-39,39.2L928.5,695.9a16.2,16.2,0,0,1-1.9,1.8,4.7,4.7,0,0,0-1.6,4.2V911.7c0,2.1-.1,4.1-.1,6.4a22.6,22.6,0,0,1-3.3.4c-1.5.1-3.1,0-4.6,0H705.3c-27.3,26.9-54.1,54.3-81.3,81.4s-53.9,54.2-81.4,81.1l-12.4-12.1L438,976.8l-53.6-53.9a15.3,15.3,0,0,1-1.8-1.8c-1.6-2.1-3.7-2.7-6.3-2.6-6.4.1-12.8,0-19.1,0H161.7a11.1,11.1,0,0,1-.6-2.7c-.1-1.7-.1-3.5-.1-5.2V707c0-1.2-.1-2.5,0-3.6a6.6,6.6,0,0,0-2.7-6.4,11.4,11.4,0,0,1-1.1-1.1L7.5,546l-4.2-4.3c.7-.8,1.2-1.7,1.8-2.4s2-2,2.9-2.9L156.8,387.6c4.9-5,4.2-3.1,4.2-10.3V161.7c0-2-.3-4.1.5-6.3l3-.3H383.2c7.3,0,5.4.8,10.7-4.5L539,5.4c1.1-1.2,2.7-2,3.1-3.9h2.4c.3,1.9,1.9,2.7,3.1,3.9q72.6,72.8,145.1,145.4c4.9,4.9,3.1,4.2,10.3,4.2H922.2a21.1,21.1,0,0,1,2.8.5v228l5.2,5.2,146.1,146.5c2,2,3.9,4.1,5.8,6.1ZM542.5,270.7C394.6,270.3,272.6,390.2,272,539.8s120.9,271.4,269.3,272S812.8,692.6,812.9,541.1,690.1,270.4,542.5,270.7ZM461.7,168.6c4.2,5,77.7,78.4,81,80.8l3.3-3.1,74.6-74.6c1.1-1.1,2.6-1.9,2.7-3.9L542.9,87.4ZM909.8,617.4c4-3.1,78.3-77.5,80.9-81a4.7,4.7,0,0,0-.7-1.2l-78.9-78.9a4.1,4.1,0,0,0-1-.6l-80.9,80.9C831.4,539.5,902.4,610.8,909.8,617.4ZM174.1,455.5c-3.9,3.8-7.7,7.8-11.6,11.7s-7.5,7.5-11.3,11.3l-11.7,11.7-11.3,11.3-11.7,11.7-11.3,11.3c-3.8,4-8,7.5-11.5,12l2.1,2.5,76.8,76.7a28.8,28.8,0,0,0,2.4,1.9l79.8-79.9a2.3,2.3,0,0,0,.5-1ZM542.4,985.1l3.8-3.5c4.2-4.3,8.3-8.6,12.6-12.9l61-61.1c1.3-1.3,2.9-2.3,3.6-4.2l-1.5-1.7-77.2-77-2.5-1.9-24.8,24.5-55.5,55.6a.5.5,0,0,0-.2.4c-.1.1,0,.3,0,.9ZM225,220V330.8a31.9,31.9,0,0,0,.5,3.7H335.2c1.5,0,3.1.5,4.8-1V224.3c0-1.5.4-3.1-.7-4.5C334.5,219.3,229.9,219.4,225,220ZM859.6,333.7c.1-2.1.1-4,.1-5.9V223.9c0-1.4-.2-2.9-.3-4.6l-6-.2H749.5c-1.5,0-3.1-.4-4.6.9s-.2,3.2-.2,4.9V328.3c0,1.8-.4,3.7.5,5.4C749.6,334.3,854.2,334.3,859.6,333.7ZM340.1,853.4V741a6.5,6.5,0,0,0-.4-1.3,2.5,2.5,0,0,0-1.1-.4l-2.5-.2-109.6.2H226a4,4,0,0,1-.7.7c0,1.3-.2,3-.2,4.7v106c.1.9.4,1.9.5,2.7C231,854.2,335.4,854.1,340.1,853.4Zm519.6,0V741.6a10.6,10.6,0,0,0-.4-1.9c-5-.9-85.5-1.3-111.2-.6l-3.2.4c-.1,2.1-.2,4-.2,5.8V849.7c0,1.3.3,2.6.4,3.8C750.5,854.2,855,854.1,859.7,853.4Z" transform="translate(-3.3 -1.5)" fill="#2d7bb9"/><path d="M542.7,311.1c125.2-.2,230.1,101.6,229.8,230.5A229.9,229.9,0,0,1,540.9,771.4c-127.1-.8-229.3-104.2-228.5-231.9S417.2,310.6,542.7,311.1ZM503,523.2a6.7,6.7,0,0,1,1.6-.6h24.2a15.3,15.3,0,0,1,3.6.7,4.7,4.7,0,0,1,3.7,4.4,34.4,34.4,0,0,1,.3,5.6v53.7c0,1.5-.4,3.1.7,4.4,6.8.7,21.2.5,24.9-.5V523.2c.6-.3.9-.6,1.2-.6h15a15.7,15.7,0,0,1,3,.5,5.2,5.2,0,0,1,4.2,4.7,23.6,23.6,0,0,1,.2,4.6V587c0,1.5-.5,3.1.8,4.4,7.6.6,20.9.4,24.8-.5.1-1.4.2-2.9.2-4.4V529.6a37.1,37.1,0,0,0-.3-4.7c-1.7-12.6-8.4-21.6-21.3-26.1a30.1,30.1,0,0,0-10.7-1.8c-9.5-.1-19,0-28.5,0a28.5,28.5,0,0,0-2.9.3c-.2,1.5-.4,2.6-.6,4l-5-1.9a28.9,28.9,0,0,0-11.5-2.4q-20.1-.2-40.2,0c-8.2.1-13.2,5.2-13.2,13.4v77.9c0,1,.2,1.9.3,3.2,4.4.3,8.5.2,12.6.1s8.5.6,12.9-.6Zm124.3-25.5a25.8,25.8,0,0,0-.3,2.9v76c0,1.6.4,3.1.5,4.7.4,5.4,6.1,10.4,12.2,10.5a81.7,81.7,0,0,0,42.1-10.6c12.9-7.1,23.1-17.2,31.8-28.9,12-16.1,20-34.1,26.1-53.1a6.1,6.1,0,0,0,.1-1.9c-4.8-.6-22.6-.6-26.7.1-.2.7-.6,1.5-.8,2.3a118.2,118.2,0,0,1-10.1,23.7c-6,10.7-13,20.8-22.3,29-5.7,5-12,9.2-19.4,11.5a14.5,14.5,0,0,1-7.2.8c-.7-1.9-.4-3.8-.4-5.7V502.1c0-1.6.5-3.4-.7-4.8C645.3,496.5,630.8,496.7,627.3,497.7ZM387.2,522.2l4.9.2h32.5a36.2,36.2,0,0,1,4.7.2c3.6.7,5,2.3,5.3,5.9.1,1.4.1,2.7.1,4.1,0,17.9-.1,35.8,0,53.7,0,1.7-.5,3.5.6,5,5.7.6,21,.5,25-.3.1-1.4.2-2.9.2-4.4V530.9a54.3,54.3,0,0,0-.2-5.7c-1.3-10.8-6.3-19.2-16.1-24.3a34.6,34.6,0,0,0-16.4-4H391.1c-1.3,0-2.7.2-3.9.3C386.3,501.3,386.3,517.5,387.2,522.2Zm-31.4-64c.2,44.6-.1,88.4.2,132.3,0,.2.5.5.9,1h8c2.8,0,5.5.1,8.3,0s5.4.4,8.1-.5c.1-.9.2-1.6.2-2.2V461.2a13.9,13.9,0,0,0-.6-3.1Z" transform="translate(-3.3 -1.5)" fill="#2d7bb9"/></svg>