<svg xmlns="http://www.w3.org/2000/svg" viewBox="0 0 2003.9 2003.9"><rect x="293.8" y="285" width="1417" height="1417" fill="#337ab7"/><rect x="293.5" y="293.5" width="1417" height="1417" transform="translate(1002 -415) rotate(45)" fill="#337ab7"/><circle cx="1001.8" cy="993" r="495.5" fill="none" stroke="#fff" stroke-miterlimit="10" stroke-width="75"/><path d="M718.8,1078H680.7V852.7h38.1Zm137.4,0H818.1V973c0-5-1.3-8.8-3.8-11.3s-6.4-3.9-11.5-3.9H734.1V919.7h68.7a58.4,58.4,0,0,1,11.5,1.2,68.9,68.9,0,0,1,11.9,3.9,58.2,58.2,0,0,1,11.4,6.8,48.2,48.2,0,0,1,9.5,10.1,56.1,56.1,0,0,1,6.6,13.7,59.8,59.8,0,0,1,2.5,17.6Z" fill="#fff"/><path d="M1032.4,1078H994.3V973c0-5-1.3-8.8-4-11.3s-6.5-3.9-11.7-3.9H929.1V1078H891V938.6a18.1,18.1,0,0,1,1.5-7.4,17.8,17.8,0,0,1,4.1-6,19.8,19.8,0,0,1,6.1-4.1,21.2,21.2,0,0,1,7.5-1.4h68.7a56.9,56.9,0,0,1,17,2.8,54.8,54.8,0,0,1,17.3,8.9V919.7h51.6a58.2,58.2,0,0,1,11.4,1.2,66.2,66.2,0,0,1,11.9,3.9,55.4,55.4,0,0,1,11.4,6.8,45.7,45.7,0,0,1,9.5,10.1,56.1,56.1,0,0,1,6.6,13.7,59.8,59.8,0,0,1,2.5,17.6v105H1080V973c0-5-1.3-8.8-3.7-11.3s-6.4-3.9-11.5-3.9h-34.3a60.8,60.8,0,0,1,1.9,15.2Z" fill="#fff"/><path d="M1342,919.7a385.6,385.6,0,0,1-15,39.5,287.7,287.7,0,0,1-19.9,37.2,236.5,236.5,0,0,1-25,32.6,164.7,164.7,0,0,1-30.7,26,148.1,148.1,0,0,1-36.4,17.1,139.9,139.9,0,0,1-42.7,6.2,20.4,20.4,0,0,1-7.5-1.4,19.8,19.8,0,0,1-6.1-4.1,18.1,18.1,0,0,1-4.2-6,19.9,19.9,0,0,1-1.4-7.4V919.7h38.1v119.1a62.3,62.3,0,0,0,26.7-6,105.3,105.3,0,0,0,24.2-15.9,151.5,151.5,0,0,0,21.2-22.5,225.5,225.5,0,0,0,17.4-25.9,232.1,232.1,0,0,0,12.9-26,162,162,0,0,0,8-22.8Z" fill="#fff"/><rect x="1377.8" y="404" width="214" height="214" fill="#fff"/><rect x="412.8" y="404" width="214" height="214" fill="#fff"/><rect x="412.8" y="1369" width="214" height="214" fill="#fff"/><rect x="1377.8" y="1369" width="214" height="214" fill="#fff"/><rect x="895" y="204.3" width="213.6" height="213.6" transform="translate(513.4 -617.3) rotate(45)" fill="#fff"/><rect x="895.2" y="1568.3" width="213.6" height="213.6" transform="translate(1478 -217.9) rotate(45)" fill="#fff"/><rect x="1576.9" y="886.5" width="213.6" height="213.6" transform="translate(1195.5 -899.7) rotate(45)" fill="#fff"/><rect x="213.1" y="886.5" width="213.6" height="213.6" transform="translate(796.1 64.7) rotate(45)" fill="#fff"/></svg>