<svg xmlns="http://www.w3.org/2000/svg" viewBox="0 0 1044 1044"><path d="M522,0h.3c49.6,49.4,98.9,99,148.5,148.3q110.3-.2,220.7,0V369.1L1044,521.7v.4L891.5,674.7v212H679.3q-75,75.3-150.2,150.3c-2.2,2.2-4.7,4.2-6.4,6.9h-1.3c-3.7-5.3-9-9.3-13.4-14.1L364.9,886.8H153V674.9Q76.5,598.4,0,521.9l1,1v-1q76.4-76.5,153-153V148.2H372c1.4,0,3-.1,4-1.4Q449.4,73.4,522.9,0M443.7,161.6c24.8,24.7,49.5,49.6,74.4,74.3,1.3,1.2,2.2,2.9,3.9,3.4s2.2-1.4,3.1-2.2c25.1-25.3,50.4-50.4,75.5-75.7L522.1,83c-26.1,26.2-52.4,52.3-78.4,78.6M215.1,211.5c-.2,36.5-.1,73.1-.1,109.6H325.4c-51.4,51.1-81.3,123-80.9,195.5l-78.1-78.2L87.8,517q39.2,39.3,78.4,78.4c26.1-26,52.1-52.2,78.3-78.1a275.1,275.1,0,0,0,22.1,108.4,278.9,278.9,0,0,0,58.8,87.2H215V824H326.3c0-36.7.1-73.5,0-110.2A279.6,279.6,0,0,0,407,769.6a276,276,0,0,0,114.2,25l-77.6,77.6c26.1,26.3,52.4,52.4,78.5,78.7,26.2-26.2,52.3-52.4,78.6-78.5-25.8-26.1-51.9-51.9-77.8-77.9,72.3.4,143.9-29.6,194.9-80.6.2,36.7.1,73.4.1,110.1H829.3c-.1-37,0-74.1-.1-111.1-36.7-.1-73.5.2-110.2-.1,6.4-6.7,12.7-13.5,18.5-20.7a277.3,277.3,0,0,0,62.3-174.6l78,77.9Q917,556.3,956.2,517l-78.5-78.6-78,78a275.7,275.7,0,0,0-22.4-108.9,278.8,278.8,0,0,0-58.4-86.4c36.8-.1,73.5,0,110.3,0,.1-37,0-74.1.1-111.1H717.9V320.2a276.1,276.1,0,0,0-125.9-72A279.8,279.8,0,0,0,461.1,246a276.8,276.8,0,0,0-134.8,74.2V210H216.6Z" fill="#337ab7"/><path d="M500.6,279.8A238.2,238.2,0,1,1,419,302.2a239.3,239.3,0,0,1,81.6-22.4M354.7,444.3c.1,39.1,0,78.1.1,117.2h19.7c0-39-.1-78.1.1-117.1-6.6-.2-13.3-.2-19.9-.1M382.3,479c-.1,6.7-.1,13.3,0,20h36.5a6.7,6.7,0,0,1,7.2,7.1c.1,18.5-.1,37,.1,55.5,6.6-.2,13.3-.1,19.9-.1V507.9c0-5.4-.9-10.8-3.7-15.5-4.8-8.7-14.9-13.2-24.5-13.4-11.8-.1-23.7,0-35.5,0m82,10c0,24.2-.1,48.4,0,72.5h19.9c0-20.8.1-41.7,0-62.5,9,0,18-.1,26.9,0a6.8,6.8,0,0,1,6.9,7v55.5h20V517.9c-.1-6.3.4-12.7-.9-18.9,6.6.1,13.3-.2,20,.1a6.6,6.6,0,0,1,5.6,6.9c.1,18.5,0,37,.1,55.5h19.7V505.9a27.3,27.3,0,0,0-7.6-18.9,31.5,31.5,0,0,0-20.9-8H528v6.1a33.1,33.1,0,0,0-19-6.1c-11.7,0-23.4-.1-35,.1a9.9,9.9,0,0,0-9.7,9.9m136.5-10c-.1,23.7,0,47.3-.1,71,0,2.5.2,5.3,1.8,7.5,2.7,4.1,8.1,4.7,12.7,4.1,22.1-.9,42.8-12.8,56.5-29.8,12.9-15.3,21.4-33.9,27.6-52.8H678.2a116.4,116.4,0,0,1-24.1,44c-8.6,9.4-20,18.1-33.3,18.1,0-20.7-.1-41.4,0-62.1Z" fill="#337ab7"/></svg>