<svg xmlns="http://www.w3.org/2000/svg" fill="#337ab7" viewBox="0 0 1078.8 1079.5"><path d="M1078.6 540.8c-.3.1-.6.1-.8.3L925.2 694.4a16.2 16.2 0 01-1.9 1.8 4.7 4.7 0 00-1.6 4.2l-.1 216.2a22.6 22.6 0 01-3.3.4c-1.5.1-3.1 0-4.6 0H702l-81.3 81.4-81.4 81.1-12.4-12.1-92.2-92.1-53.6-53.9a15.3 15.3 0 01-1.8-1.8c-1.6-2.1-3.7-2.7-6.3-2.6-6.4.1-12.8 0-19.1 0H158.4a11.1 11.1 0 01-.6-2.7c-.1-1.7-.1-3.5-.1-5.2V705.5c0-1.2-.1-2.5 0-3.6a6.6 6.6 0 00-2.7-6.4 11.4 11.4 0 01-1.1-1.1L4.2 544.5 0 540.2c.7-.8 1.2-1.7 1.8-2.4s2-2 2.9-2.9l148.8-148.8c4.9-5 4.2-3.1 4.2-10.3V160.2c0-2-.3-4.1.5-6.3l3-.3h218.7c7.3 0 5.4.8 10.7-4.5L535.7 3.9c1.1-1.2 2.7-2 3.1-3.9h2.4c.3 1.9 1.9 2.7 3.1 3.9q72.6 72.8 145.1 145.4c4.9 4.9 3.1 4.2 10.3 4.2h219.2a21.1 21.1 0 012.8.5v228l5.2 5.2L1073 533.7c2 2 3.9 4.1 5.8 6.1zM539.2 269.2c-147.9-.4-269.9 119.5-270.5 269.1s120.9 271.4 269.3 272 271.5-119.2 271.6-270.7-122.8-270.7-270.4-270.4zm-80.8-102.1c4.2 5 77.7 78.4 81 80.8l3.3-3.1 74.6-74.6c1.1-1.1 2.6-1.9 2.7-3.9l-80.4-80.4zm448.1 448.8c4-3.1 78.3-77.5 80.9-81a4.7 4.7 0 00-.7-1.2l-78.9-78.9a4.1 4.1 0 00-1-.6l-80.9 80.9c2.2 2.9 73.2 74.2 80.6 80.8zM170.8 454c-3.9 3.8-7.7 7.8-11.6 11.7L101.9 523c-3.8 4-8 7.5-11.5 12l2.1 2.5 76.8 76.7a28.8 28.8 0 002.4 1.9l79.8-79.9a2.3 2.3 0 00.5-1zm368.3 529.6l3.8-3.5 12.6-12.9 61-61.1c1.3-1.3 2.9-2.3 3.6-4.2l-1.5-1.7-77.2-77-2.5-1.9-24.8 24.5-55.5 55.6a.5.5 0 00-.2.4c-.1.1 0 .3 0 .9zM221.7 218.5v110.8a31.9 31.9 0 00.5 3.7h109.7c1.5 0 3.1.5 4.8-1V222.8c0-1.5.4-3.1-.7-4.5-4.8-.5-109.4-.4-114.3.2zm634.6 113.7c.1-2.1.1-4 .1-5.9V222.4c0-1.4-.2-2.9-.3-4.6l-6-.2H746.2c-1.5 0-3.1-.4-4.6.9s-.2 3.2-.2 4.9v103.4c0 1.8-.4 3.7.5 5.4 4.4.6 109 .6 114.4 0zM336.8 851.9V739.5a6.5 6.5 0 00-.4-1.3 2.5 2.5 0 00-1.1-.4l-2.5-.2-110.1.2a4 4 0 01-.7.7c0 1.3-.2 3-.2 4.7v106c.1.9.4 1.9.5 2.7 5.4.8 109.8.7 114.5 0zm519.6 0V740.1a10.6 10.6 0 00-.4-1.9c-5-.9-85.5-1.3-111.2-.6l-3.2.4c-.1 2.1-.2 4-.2 5.8v104.4c0 1.3.3 2.6.4 3.8 5.4.7 109.9.6 114.6-.1zm-317-542.3c125.2-.2 230.1 101.6 229.8 230.5a229.9 229.9 0 01-231.6 229.8c-127.1-.8-229.3-104.2-228.5-231.9s104.8-228.9 230.3-228.4zm-39.7 212.1a6.7 6.7 0 011.6-.6h24.2a15.3 15.3 0 013.6.7 4.7 4.7 0 013.7 4.4 34.4 34.4 0 01.3 5.6v53.7c0 1.5-.4 3.1.7 4.4 6.8.7 21.2.5 24.9-.5v-67.7c.6-.3.9-.6 1.2-.6h15a15.7 15.7 0 013 .5 5.2 5.2 0 014.2 4.7 23.6 23.6 0 01.2 4.6v54.6c0 1.5-.5 3.1.8 4.4 7.6.6 20.9.4 24.8-.5.1-1.4.2-2.9.2-4.4v-56.9a37.1 37.1 0 00-.3-4.7c-1.7-12.6-8.4-21.6-21.3-26.1a30.1 30.1 0 00-10.7-1.8h-28.5a28.5 28.5 0 00-2.9.3c-.2 1.5-.4 2.6-.6 4l-5-1.9a28.9 28.9 0 00-11.5-2.4q-20.1-.2-40.2 0c-8.2.1-13.2 5.2-13.2 13.4v77.9c0 1 .2 1.9.3 3.2 4.4.3 8.5.2 12.6.1s8.5.6 12.9-.6zM624 496.2a25.8 25.8 0 00-.3 2.9v76c0 1.6.4 3.1.5 4.7.4 5.4 6.1 10.4 12.2 10.5a81.7 81.7 0 0042.1-10.6c12.9-7.1 23.1-17.2 31.8-28.9 12-16.1 20-34.1 26.1-53.1a6.1 6.1 0 00.1-1.9c-4.8-.6-22.6-.6-26.7.1-.2.7-.6 1.5-.8 2.3a118.2 118.2 0 01-10.1 23.7c-6 10.7-13 20.8-22.3 29-5.7 5-12 9.2-19.4 11.5a14.5 14.5 0 01-7.2.8c-.7-1.9-.4-3.8-.4-5.7v-56.9c0-1.6.5-3.4-.7-4.8-6.9-.8-21.4-.6-24.9.4zm-240.1 24.5l4.9.2h32.5a36.2 36.2 0 014.7.2c3.6.7 5 2.3 5.3 5.9.1 1.4.1 2.7.1 4.1v53.7c0 1.7-.5 3.5.6 5 5.7.6 21 .5 25-.3.1-1.4.2-2.9.2-4.4v-55.7a54.3 54.3 0 00-.2-5.7c-1.3-10.8-6.3-19.2-16.1-24.3a34.6 34.6 0 00-16.4-4h-36.7c-1.3 0-2.7.2-3.9.3-.9 4.1-.9 20.3 0 25zm-31.4-64l.2 132.3c0 .2.5.5.9 1h8c2.8 0 5.5.1 8.3 0s5.4.4 8.1-.5c.1-.9.2-1.6.2-2.2V459.7a13.9 13.9 0 00-.6-3.1z"/></svg>