<svg xmlns="http://www.w3.org/2000/svg" viewBox="0 0 2001.9 2002"><path d="M2001.9 1002.3l-7.5 7.2-276.3 275.9a37.3 37.3 0 01-3.5 3.4c-3.9 3-4.9 6.9-4.9 11.7l.1 83.5v304.2c0 3.8-.1 7.6-.2 11.9-2.4.3-4.2.6-6 .7s-5.8 0-8.7 0h-392l-150.3 150.5-151.3 150.7c-3.4-1.4-5.4-4.4-7.8-6.7l-98.4-98.4-85.7-85.3-102.3-102.7c-1.3-1.3-2.8-2.6-4-4-2.6-3.4-6-4.5-10.1-4.1-2.3.2-4.5 0-6.8 0H293.6a43.3 43.3 0 01-1.1-5.1c-.2-2.8-.1-5.7-.1-8.6v-381c0-14 1.4-10.4-8.2-19.9q-65.7-66-131.6-131.7-72.6-72.6-145.4-145-3.7-3.7-7.2-7.5c.9-3.7 3.8-5.4 6-7.6l279.5-279.7c7.6-7.8 6.9-5.4 6.9-16.7V297.9c0-4.2.2-8.3.3-12.9 2.4-.3 4.2-.7 6-.8h405c14.7 0 10.5 1.9 20.8-8.4L991.8 8.4l8.7-8.4c1.6 1.2 3.1 2.2 4.4 3.4s3.7 3.6 5.5 5.4l267.4 267.4c9.6 9.5 6 7.9 19 7.9h412c.4 2.4.9 4.2 1 6s0 5.7 0 8.6q0 199.2.1 398.3c0 13.5-1.6 9.6 7.9 19q127.5 127.6 255.1 255.2l29 29.1zm-1503-.9c-.2 271.1 218.2 500.6 499.9 501.8s503.9-227.8 504-501.6c.2-278.3-225.6-502.5-502.3-502.3s-501.8 225.1-501.6 502.1zm652.4-692.3c-2.2-2.4-4.3-4.7-6.6-6.9l-71.9-72-65.2-65.1c-2.1-2.2-3.9-5-7.3-5.8-1.2 1-2.2 1.7-3.1 2.6l-145.8 146-.5.8a7.9 7.9 0 000 1.6c.9 1 2.1 2.5 3.5 3.8l142.5 142.5a22.4 22.4 0 003.8 3zm.2 1365.3c-8.2-9.6-144.9-146-150.6-150.3a6.7 6.7 0 00-1.7.8l-4.9 4.6q-71.6 71.7-143 143.3a1.2 1.2 0 00-.4.8 4 4 0 000 1.1l149.6 149.6a10.9 10.9 0 002.1-.9l142.6-142.3zm-833.6-832c-2.6 2.5-5.2 4.8-7.6 7.3l-83.4 83.4q-27.2 27-54.2 54.2c-1.7 1.7-4.3 3-3.9 6.6l7.1 7.3 123.4 123.3 15.1 14.7a40.7 40.7 0 004.5 3.4l15.6-15q63.8-63.7 127.4-127.5c2.4-2.4 5.5-4.3 6.3-7.3zM1532 992.5l8.3 8.5 117.3 117.3 21.2 20.8c1.3 1.2 2.3 3.1 5.2 2.9 3.4-3.2 7.2-6.6 10.8-10.2q67.2-67 134.2-134.2c1.6-1.5 2.8-3.3 4.2-4.8-6.8-8.5-144.2-145.6-150.5-150.1a25.1 25.1 0 00-2.9 2zM625.5 616l-.1-205.8a47.3 47.3 0 00-.9-6.8H418.7c-2.1 0-4.2.6-6.8.9v198.3c0 2.8-.1 5.7 0 8.6s.7 3.5 1 5.2c11.1 1.1 204.3.8 212.6-.4zm752.1-212.5a22.4 22.4 0 00-1.2 2.9l-.2 7.6.3 200.5a3.2 3.2 0 00.3.9l.6.7a4.1 4.1 0 001.7.7l6.7.2 201.5-.3.9-.2.7-.7a5.8 5.8 0 00.6-1.7c.2-2.5.2-5.1.2-7.7q0-100.2-.3-200.5a1.5 1.5 0 00-.2-.9l-1-1.1a22.9 22.9 0 00-3.3-.4zm-753 965l-10.8-.2H420.1c-2.5 0-4.9.5-7.9.8l-.3 10.9v193.7c0 2.5.5 4.9.8 7.8 3.7.2 6.8.4 9.9.4h191.9c3.4 0 7 .7 10.1-.8 1.1-8.1 1.2-201.7 0-212.6zm964.3.1l-10.9-.3h-193.8c-2.4 0-4.8.5-7.7.8l-.3 11v107.4l.1 84.5c0 3-.9 6.3 1.4 9.6l10.3.3h192.8c2.8 0 5.8.9 8.2-1.2 1-8.1 1-202.6-.1-212.1zm-587.8-794.3c234.8.1 426.5 190.1 426.8 426.9.3 229.5-185.6 427.9-428.7 427s-426.9-200.5-425.4-429.3c1.6-234.4 191.8-424.6 427.3-424.6zm-74 390.7c1.3-.6 1.8-1.1 2.4-1.1l47.9-.2c6.5.1 10.1 3.5 11 9.8a73.8 73.8 0 01.5 10.5l.1 110.3c0 3.1-1 6.4 1.8 9.8l22.6-.1c7.7-.2 15.1 1 22.8-.9.1-2 .3-3.6.3-5.2q0-64.2-.1-128.5a47 47 0 01.8-5.8h33c4.8.2 7.7 2.9 9.1 7.2a21.3 21.3 0 011 5.6c.2 2.2.1 4.5.1 6.7q0 55.2.1 110.3c0 3.4-1.1 7.1 1.2 10 15.4 1.3 39.4.9 46.3-.8.2-2.4.4-4.9.4-7.4l-.1-117a89.3 89.3 0 00-1.7-17.1c-5.5-29.9-29.1-49.3-59.5-49.4h-50.8a60.7 60.7 0 00-6.3.7l-1.4 7.6c-2.7-1-5-1.9-7.2-2.9-6.8-3-13.7-5.3-21.2-5.4h-78.7c-7.7 0-13.4 3.6-17.8 9.6s-4.9 10.9-4.9 17.2q.1 79.2.1 158.3a57.2 57.2 0 00.6 6.7c2.1.2 3.6.4 5.2.4h36.4c1.8 0 3.6-.7 5.7-1.1v-46.3l.1-46.1c.1-15.4-.4-30.5.2-45.4zm231.2-52c-.1 2.6-.4 5.5-.4 8.3q-.1 75.8 0 151.5a62 62 0 001 11.4c2.3 12.7 11 19.9 24.1 20.2 28.3.6 54.1-7.6 78-22.5 19.8-12.3 36-28.6 49.9-47.1 26.6-35.6 43.4-75.8 55.8-118.1.4-1.4 1.3-3-.2-4.3-11.8-1.1-41.7-.9-49.1.4l-2.4 8a262.5 262.5 0 01-44.5 87.5c-11 14.3-23.8 26.7-39.9 35.3a57.5 57.5 0 01-18.9 6.6c-1.7.3-3.5-.2-5.9-.5v-127c0-3.4.8-7-.9-10.1-10.4-1.3-39.2-1.1-46.6.4zm-309.9 190.7c.2-3.7.4-6.5.4-9.3V979.3c0-2.9-.3-5.8-.3-8.6a59.9 59.9 0 00-6.2-25c-10.5-21.4-27.9-33.1-51.6-33.7s-48.6-.2-72.9-.2c-1.8 0-3.6.4-5.7.6-.2 1.8-.5 3-.5 4.2v42.2a21.4 21.4 0 001.1 4.8h10l64.2-.1c8.6-.1 14 3.2 13.9 13.9v6.7l.1 109.4c0 3.3-1.2 7 1.5 10.2zM654.6 834.1v258.4a56.1 56.1 0 000 5.8c.2 1.8.7 3.6 1.1 5.8l23.4-.1c7.7-.2 15.2 1 23.2-1.1V845.6c0-2.2.1-4.5-.1-6.7a28.2 28.2 0 00-1-5.2c-10.4-1-38.2-.8-46.6.4z"/></svg>