<svg xmlns="http://www.w3.org/2000/svg" viewBox="0 0 854 854">
  <rect width="854" height="854" fill="#1f6cb9" rx="191"/>
  <path fill="#fff" fill-rule="evenodd" d="M186.7 602.3q5.2 2.8 8.5 8.2 3.4 5.2 3.4 13.4 0 9-3 14.7-2.9 5.8-7.7 8.9-4.7 3.2-10.2 4.4-5.5 1.1-10.5 1.1h-34.1q-3.6 0-6-2.3-2.3-2.5-2.3-6v-79.1q0-3.5 2.3-5.9 2.4-2.4 6-2.4h34.5q13.1 0 19.5 6.1 6.5 6.2 6.5 18.2 0 6.4-3.2 11.4c-2.1 3.2-8.2 7-8.2 7s1.1.3 4.5 2.3zm-21.2-7.6q4 0 7.1-2.6 3.2-2.6 3.2-7.5 0-5.9-3-8.5-2.9-2.7-7.7-2.7h-22.6l.1 21.3zm1.6 42.6q6.3 0 10-3.3 3.7-3.4 3.7-10.1 0-6.2-2.5-8.9-2.4-2.8-5.9-3.4-3.4-.7-6.3-.7h-23.6v26.4zm64.3-71.7v79.1q0 3.5-2.6 6-2.6 2.3-6 2.3-3.9 0-6.2-2.3-2.3-2.5-2.3-6v-79.1q0-3.5 2.4-5.9 2.5-2.4 6.3-2.4 3.3 0 5.8 2.4 2.6 2.4 2.6 5.9zm85.9 48q2.6 2.7 3.9 6 1.5 3.2 1.8 6.9.6 3.4.7 6 .3 2.6.8 4.4.7 1.7 2.5 2.7 3 1.8 3.7 5.2.8 3.3-1.5 5.9-1.5 1.8-3.9 2.3-2.3.4-4.6 0-2.3-.5-3.8-1.4-2.4-1.3-4.7-3.9-2.3-2.8-3.8-7.3-1.4-4.5-1.4-11.6 0-2.3-.8-4.2-.8-2.1-2.3-3.5-1.5-1.5-3.9-2.2-2.3-.8-5.4-.8l-25.7-.1.1 26.7q0 3.5-1.9 6-1.9 2.3-5.4 2.3-3.8 0-6.8-2.3-3-2.5-3-6v-79.1q0-3.5 2.3-5.9 2.5-2.4 6-2.4h39.4q7.1 0 13.3 3.8 6.3 3.7 10.1 10.4 3.8 6.6 3.8 15.2 0 5.2-2.1 10.1-2.1 4.9-5.8 8.9c-2.4 2.6-5.3 4.6-5.3 4.6a24.48 24.48 0 0 0 3.7 3.3zm-48.4-9.6h30q2.5 0 4.8-2.1 2.4-2.4 3.9-6.2 1.5-4 1.5-8.6 0-6-3.3-10-3.2-4.1-6.9-4.1h-30zm94 14 .1 26.7q0 3.5-2 6-1.9 2.3-5.3 2.3-3.8 0-6.8-2.3-3-2.5-3-6v-79.1q0-3.5 2.3-5.9 2.4-2.4 6-2.4h39.4q7.1 0 13.3 3.8 6.3 3.7 10.1 10.4 3.8 6.6 3.8 15.2 0 5.2-2.2 10.1-2 4.9-5.7 8.9c-2.4 2.6-5.3 4.6-5.3 4.6s2 1.4 3.6 3.3q2.6 2.7 4 6 1.5 3.2 1.8 6.9.5 3.4.7 6 .2 2.6.8 4.4.7 1.7 2.5 2.7 3 1.8 3.6 5.2.9 3.3-1.5 5.9-1.5 1.8-3.8 2.3-2.3.4-4.6 0-2.4-.5-3.9-1.4-2.3-1.3-4.6-3.9-2.3-2.8-3.8-7.3-1.4-4.5-1.4-11.6 0-2.3-.8-4.2-.9-2.1-2.4-3.5-1.5-1.5-3.8-2.2-2.3-.8-5.5-.8zm30-13.9q2.5 0 4.8-2.2 2.3-2.3 3.8-6.2 1.5-3.9 1.5-8.6 0-6-3.2-10-3.2-4.1-6.9-4.1h-30v31zm114.3-46.9q3.5 0 5.7 2.5 2.2 2.3 2.2 5.9v49.5q0 11.3-4.9 20.1-4.8 8.7-13.3 13.7-8.5 4.9-19.7 4.9t-19.8-4.9q-8.5-5-13.4-13.7-4.8-8.8-4.8-20.1v-49.5q0-3.6 2.4-5.9 2.5-2.5 6.3-2.5 3.2 0 5.6 2.5 2.6 2.3 2.6 5.9v49.5q0 6.8 2.9 11.9 3 4.9 7.8 7.6 4.9 2.8 10.4 2.8 5.9 0 10.9-2.8 5.1-2.7 8.2-7.6 3.2-5.1 3.2-11.9v-49.5q0-3.6 2-5.9 2.1-2.5 5.7-2.5zm44.1 87.5q0 3.6-2.2 6.1-2.1 2.3-5.7 2.3-3.4 0-5.6-2.3-2.2-2.5-2.2-6.1v-79.1q0-3.5 2.5-5.9 2.6-2.5 6.1-2.5 1.9 0 4 1.1 2.2 1 3.3 2.6l29.8 45.8 30.6-45.8q2.6-3.7 6.7-3.7 3.3 0 5.9 2.3 2.6 2.4 2.6 6.1v79.1q0 3.6-2.3 6.1-2.3 2.3-6.2 2.3-3.8 0-6.3-2.3-2.3-2.5-2.3-6.1l-.1-54.9-22.5 34.3q-1.2 1.5-3.1 2.6-1.8 1.1-3.7 1-1.8.1-3.7-1-1.8-1.1-3-2.6l-22.6-35.6zM710 562.2q2.3-5.2 7.5-5.2 3.4 0 5.9 2.3 2.6 2.2 2.6 5.6 0 1.8-.8 3.7l-33.8 79.1q-1.2 2.7-3.6 4.1-2.2 1.2-4.5 1.2-2.2-.1-4.2-1.3-2.1-1.4-3.2-3.9l-33.8-79.3q-.4-.8-.5-1.6-.1-1-.1-1.8 0-4 2.8-6 2.9-2.2 5.5-2.2 5.2 0 7.5 5.3l27.4 64.8zM427 461.5c-99 0-179-25.2-179-56.4s80-56.5 179-56.5 179 25.3 179 56.5-80 56.4-179 56.4zm150.7-62.7c0-24.8-67.4-44.8-150.7-44.8s-150.7 20-150.7 44.8c0 24.7 67.4 44.7 150.7 44.7s150.7-20 150.7-44.7z"/>
  <ellipse cx="427" cy="398.8" fill="#1f6cb9" rx="150.7" ry="44.7"/>
  <ellipse cx="426.8" cy="392.5" fill="#fff" rx="108" ry="30.1"/>
  <ellipse cx="426.8" cy="387" fill="#1f6cb9" rx="71.2" ry="18.1"/>
  <path fill="#fff" d="M426.6 391.4c-56 0-101.5-47-101.5-104.8 0-56.1 92.5-156 96.5-160.2l5-5.4 5 5.4c3.9 4.2 96.5 104.1 96.5 160.2 0 33.8-15.9 65.7-42.6 85.4-17.3 12.7-37.6 19.4-58.9 19.4z"/>
  <g fill="#1f6cb9">
    <path fill-rule="evenodd" d="M436.8 121.7c1 1.1 24.5 26.3 48.3 58.8 33.2 45 50 80.7 50 106.1 0 36-17 70-45.4 90.9-18.4 13.6-40.2 20.8-63 20.8-59.7 0-108.3-50.1-108.3-111.7 0-25.4 16.8-61.1 50-106.1 23.8-32.5 47.3-57.7 48.3-58.8l10-10.7zM332.1 286.6c0 54.1 42.4 97.9 94.7 97.9 20.5 0 39.4-6.7 54.9-18.1 24.1-17.7 39.8-46.9 39.8-79.8q0-54.1-94.7-155.6-94.7 101.5-94.7 155.6z"/>
    <path stroke="#1f6cb9" stroke-linejoin="round" stroke-width="4" d="M420.1 286.9c-2.1 2.4-5.6 7.5-9.9 13q-6.4 9-5.7 12.9 1.4 7.4 4.6 26.6 2.5 16.9-6.4 25.3-4.2 3.9-17.9 8.5c-15 5-18.9 2.9-16 2q33.5-11.2 31-43.9-.3-2.6-1.7-15.1-1.1-9.2-.2-15.2 1.1-7.5 7.1-14.7c2.9-3.5 3.9-5.9 7-10.7v-.1q3.4-8.3 2.9-10.8l.4-1q2.3 1.9 4.3 6.9 2.1 5 .8 9.5c1.5.2 3.3.1 6.1-1 4.3-1.7 7.6-5.8 7.6-5.8l1.9-2.6 2.2-3.3c6.1-11.6 7.2-21.5 4.2-28.8q-3.1-7.7-13.9-16.1-4.3-3.5-17.8-12.2 4.5 8.8 13.4 26.4l-.5.9h-.9q-.1 0-.2-.1h-.1q-2.6-1.7-11.4-18.6-7.4-14.2-9.9-20.5-.9-2.2-.5-3.6 3.8.4 8 2.3 8.9 3.9 19.2 14.4 13.2 13.6 18.3 26 10.3 25.1-2.5 43.5s-4.3 5.3-9.5 7c-4.8 1.6-9.1 1.4-14-1.1zm16.9 18.6q.3 4.3-.6 11.5l-11-1.3.3-12.2q9.3-.2 11.3 2zm46.4-82.8q7.7 19 10.4 34.9c2.6 15.8-2.3 27.1-5.1 34.2-2.4 6.1-9 14.3-15.3 18.1q-15.5 9.2-25.7 12.7-.4-.3-.7-.6l-.2-.7.2-.4q2.8-.9 14.2-10.3c9.9-8.2 15.7-20.4 19.3-27.2q13.2-26 4.3-47.7-6.6-16.1-40.6-43.1 2.1 5.5 6.9 15 5.2 10.5 7.1 15 3.1 7.5 1.2 8.8l-1.5-.8q-1.1-3.2-1.4-3.9-2.7-6.5-9.4-18.7-6.8-12.3-9.4-18.8-3.1-7.4-2.4-14.1 1.3-.1 13.3 9.9 10.7 8.9 15.1 13.1 4.5 4.3 9.7 10.1 7.5 8.5 10 14.5z"/>
  </g>
</svg>
