<svg xmlns="http://www.w3.org/2000/svg" xmlns:xlink="http://www.w3.org/1999/xlink" viewBox="0 0 873 873">
  <circle cx="436.4" cy="436.7" r="436.1" fill="#1e6bb8"/>
  <path fill="#fff" fill-rule="evenodd" d="M434.5 451c-92.1 0-166.5-23.5-166.5-52.5 0-29.1 74.4-52.5 166.5-52.5 92 0 166.4 23.4 166.4 52.5 0 29-74.4 52.5-166.4 52.5zm140.1-58.4c0-23-62.7-41.6-140.1-41.6-77.5 0-140.1 18.6-140.1 41.6s62.6 41.6 140.1 41.6c77.4 0 140.1-18.6 140.1-41.6z"/>
  <ellipse cx="434.5" cy="392.6" fill="#1f6cb9" rx="140.1" ry="41.6"/>
  <ellipse cx="436.3" cy="386.8" fill="#fff" rx="100.5" ry="27.9"/>
  <ellipse cx="436.3" cy="381.7" fill="#1f6cb9" rx="66.2" ry="16.8"/>
  <g fill="#fff">
    <use xlink:href="#a"/>
    <use xlink:href="#a"/>
  </g>
  <g fill-rule="evenodd">
    <path fill="#1f6cb9" d="M443.5 135c1 .9 22.8 24.4 45 54.6 30.9 41.9 46.5 75.1 46.5 98.7 0 33.5-15.8 65.1-42.2 84.5-17.2 12.6-37.4 19.3-58.6 19.3-55.6 0-100.8-46.5-100.8-103.8 0-23.6 15.7-56.8 46.5-98.7 22.2-30.2 44.1-53.7 45-54.6l9.3-10zm-97.3 153.3c0 50.3 39.4 91.1 88 91.1 19 0 36.6-6.3 51-16.8 22.4-16.5 37-43.6 37-74.3q0-50.2-88-144.7-88 94.5-88 144.7z"/>
    <path fill="#fff" d="M195.7 579.3q5.2 2.8 8.5 8.2 3.4 5.2 3.4 13.4 0 9-3 14.7-2.9 5.8-7.7 8.9-4.7 3.2-10.2 4.4-5.5 1.1-10.5 1.1h-34.1q-3.6 0-6-2.3-2.3-2.5-2.3-6v-79.1q0-3.5 2.3-5.9 2.4-2.4 6-2.4h34.5q13.1 0 19.5 6.1 6.5 6.2 6.5 18.2 0 6.4-3.2 11.4c-2.1 3.2-8.2 7-8.2 7s1.1.3 4.5 2.3zm-21.2-7.6q4 0 7.1-2.6 3.2-2.6 3.2-7.5 0-5.9-3-8.5-2.9-2.7-7.7-2.7h-22.6l.1 21.3zm1.6 42.6q6.3 0 10-3.3 3.7-3.4 3.7-10.1 0-6.2-2.5-8.9-2.4-2.8-5.9-3.4-3.4-.7-6.3-.7h-23.6v26.4zm64.3-71.7v79.1q0 3.5-2.6 6-2.6 2.3-6 2.3-3.9 0-6.2-2.3-2.3-2.5-2.3-6v-79.1q0-3.5 2.4-5.9 2.5-2.4 6.3-2.4 3.3 0 5.8 2.4 2.6 2.4 2.6 5.9zm85.9 48q2.6 2.7 3.9 6 1.5 3.2 1.8 6.9.6 3.4.7 6 .3 2.6.8 4.4.7 1.7 2.5 2.7 3 1.8 3.7 5.2.8 3.3-1.5 5.9-1.5 1.8-3.9 2.3-2.3.4-4.6 0-2.3-.5-3.8-1.4-2.4-1.3-4.7-3.9-2.3-2.8-3.8-7.3-1.4-4.5-1.4-11.6 0-2.3-.8-4.2-.8-2.1-2.3-3.5-1.5-1.5-3.9-2.2-2.3-.8-5.4-.8l-25.7-.1.1 26.7q0 3.5-1.9 6-1.9 2.3-5.4 2.3-3.8 0-6.8-2.3-3-2.5-3-6v-79.1q0-3.5 2.3-5.9 2.5-2.4 6-2.4h39.4q7.1 0 13.3 3.8 6.3 3.7 10.1 10.4 3.8 6.6 3.8 15.2 0 5.2-2.1 10.1-2.1 4.9-5.8 8.9c-2.4 2.6-5.3 4.6-5.3 4.6q.4.5.9.9.4.4.9.8.4.5.9.8l1 .8zm-48.4-9.6h30q2.5 0 4.8-2.1 2.4-2.4 3.9-6.2 1.5-4 1.5-8.6 0-6-3.3-10-3.2-4.1-6.9-4.1h-30zm94 14 .1 26.7q0 3.5-2 6-1.9 2.3-5.3 2.3-3.8 0-6.8-2.3-3-2.5-3-6v-79.1q0-3.5 2.3-5.9 2.4-2.4 6-2.4h39.4q7.1 0 13.3 3.8 6.3 3.7 10.1 10.4 3.8 6.6 3.8 15.2 0 5.2-2.2 10.1-2 4.9-5.7 8.9c-2.4 2.6-5.3 4.6-5.3 4.6s2 1.4 3.6 3.3q2.6 2.7 4 6 1.5 3.2 1.8 6.9.5 3.4.7 6 .2 2.6.8 4.4.7 1.7 2.5 2.7 3 1.8 3.6 5.2.9 3.3-1.5 5.9-1.5 1.8-3.8 2.3-2.3.4-4.6 0-2.4-.5-3.9-1.4-2.3-1.3-4.6-3.9-2.3-2.8-3.8-7.3-1.4-4.5-1.4-11.6 0-2.3-.8-4.2-.9-2.1-2.4-3.5-1.5-1.5-3.8-2.2-2.3-.8-5.5-.8zm30-13.9q2.5 0 4.8-2.2 2.3-2.3 3.8-6.2 1.5-3.9 1.5-8.6 0-6-3.2-10-3.2-4.1-6.9-4.1h-30v31zm114.3-46.9q3.5 0 5.7 2.5 2.2 2.3 2.2 5.9v49.5q0 11.3-4.9 20.1-4.8 8.7-13.3 13.7-8.5 4.9-19.7 4.9t-19.8-4.9q-8.5-5-13.4-13.7-4.8-8.8-4.8-20.1v-49.5q0-3.6 2.4-5.9 2.5-2.5 6.3-2.5 3.2 0 5.6 2.5 2.6 2.3 2.6 5.9v49.5q0 6.8 2.9 11.9 3 4.9 7.8 7.6 4.9 2.8 10.4 2.8 5.9 0 10.9-2.8 5.1-2.7 8.2-7.6 3.2-5.1 3.2-11.9v-49.5q0-3.6 2-5.9 2.1-2.5 5.7-2.5zm44.1 87.5q0 3.6-2.2 6.1-2.1 2.3-5.7 2.3-3.4 0-5.6-2.3-2.2-2.5-2.2-6.1v-79.1q0-3.5 2.5-5.9 2.6-2.5 6.1-2.5 1.9 0 4 1.1 2.2 1 3.3 2.6l29.8 45.8 30.6-45.8q2.6-3.7 6.7-3.7 3.3 0 5.9 2.3 2.6 2.4 2.6 6.1v79.1q0 3.6-2.3 6.1-2.3 2.3-6.2 2.3-3.8 0-6.3-2.3-2.3-2.5-2.3-6.1l-.1-54.9-22.5 34.3q-1.2 1.5-3.1 2.6-1.8 1.1-3.7 1-1.8.1-3.7-1-1.8-1.1-3-2.6l-22.6-35.6zM719 539.2q2.3-5.2 7.5-5.2 3.4 0 5.9 2.3 2.6 2.2 2.6 5.6 0 1.8-.8 3.7l-33.8 79.1q-1.2 2.7-3.6 4.1-2.2 1.2-4.5 1.2-2.2-.1-4.2-1.3-2.1-1.4-3.2-3.9l-33.8-79.3q-.4-.8-.5-1.6-.1-1-.1-1.8 0-4 2.8-6 2.9-2.2 5.5-2.2 5.2 0 7.5 5.3l27.4 64.8z"/>
    <path fill="#1f6cb9" stroke="#1f6cb9" stroke-linejoin="round" stroke-width="4" d="M430 288.6c-2 2.2-5.2 6.9-9.1 12q-6 8.4-5.3 12.1 1.2 6.9 4.2 24.7 2.3 15.7-5.9 23.5-3.9 3.6-16.7 7.9c-13.9 4.7-17.5 2.8-14.8 1.9q31.1-10.5 28.8-40.8-.3-2.5-1.7-14.1-.9-8.5-.1-14.1 1-7 6.6-13.7c2.7-3.2 3.6-5.5 6.5-10q3.2-7.7 2.7-10.1l.4-.9q2.1 1.7 4 6.4 1.9 4.6.7 8.9c1.4.2 3.1 0 5.7-1 4-1.6 7-5.4 7-5.4l1.9-2.4 2-3c5.7-10.8 6.6-20.1 3.9-26.9q-2.9-7.1-12.9-14.9-4.1-3.3-16.6-11.4 4.2 8.2 12.4 24.6l-.4.9-.9-.1-.1-.1h-.1q-2.4-1.5-10.6-17.3-6.9-13.2-9.3-19-.8-2.1-.4-3.4 3.6.4 7.5 2.1 8.3 3.7 17.8 13.5 12.3 12.6 17 24.1 9.6 23.4-2.3 40.5s-4 4.9-8.8 6.5c-4.5 1.5-8.5 1.3-13.1-1zm15.8 17.2q.3 4.1-.6 10.8l-10.2-1.3.2-11.3q8.7-.2 10.6 1.8zm43.1-76.9q7.2 17.6 9.7 32.4c2.4 14.8-2.1 25.2-4.7 31.8-2.3 5.7-8.4 13.3-14.3 16.9q-14.4 8.6-23.9 11.7-.4-.2-.7-.5l-.1-.6.2-.4q2.6-.9 13.1-9.6c9.3-7.6 14.7-18.9 18-25.3q12.3-24.2 4-44.3-6.1-15-37.8-40.1 2 5.1 6.4 13.9 4.9 9.7 6.6 14 2.9 7 1.1 8.1l-1.3-.7q-1.1-2.9-1.3-3.6-2.5-6-8.8-17.4-6.3-11.4-8.7-17.4-2.9-7-2.2-13.2 1.2-.1 12.3 9.2 10 8.3 14.1 12.2 4.1 4 9 9.4 7 7.8 9.3 13.5z"/>
  </g>
  <defs>
    <path id="a" d="M436.1 385.8c-52.1 0-94.4-43.7-94.4-97.5 0-52.1 86-145.1 89.7-149l4.7-5 4.6 5c3.7 3.9 89.8 96.9 89.8 149 0 31.5-14.8 61.1-39.7 79.4-16 11.8-35 18.1-54.7 18.1z"/>
  </defs>
</svg>
