<svg xmlns="http://www.w3.org/2000/svg" viewBox="0 0 24 24">
  <path d="M3.59 1.322 6.434 0l4.041 7.89L7.75 9.231c-.538 1.259 2.159 6.289 3.297 6.372.09-.058 2.671-1.328 2.671-1.328l4.11 7.932-2.854 1.396C7.113 27.194-4.127 5.345 3.59 1.322zm1.93 1.274L4.497 3.1c-5.294 2.762 4.177 21.185 9.648 18.686l.971-.474-2.271-4.383-1.026.5C8.656 18.976 3.557 9.21 6.764 7.491l1.007-.497L5.52 2.596zm7.832 7.649 2.917.87a3.03 3.03 0 0 0-.24-2.317c-.399-.739-1.062-1.247-1.808-1.469l-.869 2.916zm1.804-6.059a6.3 6.3 0 0 1 3.756 3.051 6.3 6.3 0 0 1 .498 4.813l-1.795-.535c.325-1.091.233-2.306-.352-3.387a4.42 4.42 0 0 0-2.643-2.146l.536-1.796zM16.106 1a9.61 9.61 0 0 1 5.729 4.656A9.61 9.61 0 0 1 22.596 13l-1.84-.548a7.71 7.71 0 0 0-.608-5.882c-1.016-1.877-2.696-3.165-4.591-3.729L16.106 1z"/>
</svg>
