<svg xmlns="http://www.w3.org/2000/svg" viewBox="0 0 2010 2010">
  <g fill="#2c78b7" fill-rule="evenodd">
    <path d="M1716.6 294v588.7l-28-28-1.5 1.5c-41.3 41.3-62 95.4-62 149.6 0 54.1 20.7 108.2 62 149.5l29.5-29.4v589.7h-589.8l29.5-29.5c-82.6-82.6-216.5-82.6-299.2 0l-1.4 1.5 28 28H294.9v-588.7l28 28 1.5-1.5c41.3-41.3 62-95.4 62-149.6 0-54.1-20.7-108.2-62-149.5l-29.5 29.4V294h589.8l-29.5 29.5c82.6 82.6 216.6 82.6 299.2 0l1.4-1.5-28-28zM416.9 628.1h2.1c58.4 0 111.2-23.7 149.5-62 38.3-38.2 62-91.1 62-149.5H416.9zM630.5 1593c0-116.8-94.7-211.5-211.5-211.5h-2.1V1593zm877.3-588.2c0-277.3-224.8-502-502-502s-501.9 224.7-501.9 502c0 277.2 224.7 501.9 501.9 501.9s502-224.7 502-501.9zm86.9 376.7h-2c-58.4 0-111.3 23.6-149.6 61.9s-61.9 91.2-61.9 149.6h213.5zm0-964.9h-213.5c0 116.8 94.7 211.5 211.5 211.5h2z"/>
    <path d="m2011 1004.8-416.3 416.3v-39.6h-2.1c-58.4 0-111.3 23.7-149.6 62-38.2 38.2-61.9 91.1-61.9 149.5h41.6l-416.9 417-417-417h41.6c0-116.8-94.7-211.5-211.5-211.5h-2.1v39.6L.5 1004.8l416.3-416.3v39.6h2.1c58.4 0 111.3-23.7 149.6-62 38.2-38.2 61.9-91.1 61.9-149.5h-41.6l416.9-417 417 417h-41.6c0 116.8 94.7 211.5 211.5 211.5h2.1v-39.6zm-1624.6-1c0-54.1-20.7-108.2-62-149.5l-151 151L323 1154.9l1.4-1.5c41.3-41.3 62-95.4 62-149.6zm468.8-680.3c82.6 82.6 216.6 82.6 299.2 0l1.4-1.5-149.6-149.6zm271.7 1392.2 29.4-29.5c-82.6-82.6-216.5-82.6-299.1 0l-1.5 1.5 149.6 149.5zm380.9-710.8c0-277.2-224.8-501.9-502-501.9s-501.9 224.7-501.9 501.9c0 277.3 224.7 502 501.9 502s502-224.7 502-502zm330.4-.5-149.6-149.5-1.4 1.4c-41.4 41.3-62 95.5-62 149.6s20.6 108.3 62 149.6z"/>
  </g>
  <path fill="#fff" d="M1005.7 1004.7c.1.5.1-.1 0 0z"/>
  <g fill="#2c78b7">
    <path d="M851.6 959.8v14.1h-47.2v-30.2h31.1c9.9-.2 16.1 3.5 16.1 16.1z"/>
    <path fill-rule="evenodd" d="M1432.8 1004.8c0 235.8-191.2 427-427 427-235.9 0-427-191.2-427-427s191.1-427 427-427c235.8 0 427 191.2 427 427zM806.5 833.7c0 12 9.6 21.7 21.6 21.7 11.9 0 21.6-9.7 21.6-21.7 0-11.9-9.7-21.6-21.6-21.6-12 0-21.6 9.7-21.6 21.6zm-57.7 0c0 12 9.6 21.7 21.6 21.7 11.9 0 21.6-9.7 21.6-21.7 0-11.9-9.7-21.6-21.6-21.6-12 0-21.6 9.7-21.6 21.6zm158.5 140.2q-.3-18.7-.4-22c-.1-10.2-2.7-20-7.1-29-12.2-25-32.4-38.6-59.9-39.4q-9.4-.2-91.1 0v235.3l89.3.1h.1c5.2.3 9.2 2.1 11.4 6.2v15.3c0 31.8 25.7 57.6 57.3 57.6q.1-61.8 0-64.5c-.2-10.2-2.7-26.4-7.1-35.5-12.2-25-32.4-32-59.9-32.8-9.4-.3-22.3-.4-35.5-.4v-14.5c0-3.7.5-6.6 1.5-8.9 2.4-5.5 7.6-7.4 14.6-7.2 24.9.4 82.5 0 86.7 0q.1-2.8.1-6zm.1-140.1c0-12-9.7-21.6-21.7-21.6-11.9 0-21.6 9.6-21.6 21.6 0 11.9 9.7 21.6 21.6 21.6 12 0 21.7-9.7 21.7-21.6zm215.4 128.1c0-3.3-.3-6.7-.3-10-.2-10.2-2.8-19.9-7.2-29-12.1-25-32.3-38.5-59.9-39.3-32.1-.4-43.7 0-91.1 0v60.1h86.8c9.9-.2 16.1 3.5 16.1 16.1v14.5l-35.5.4c-27.5.8-47.7 7.9-59.9 32.8-4.4 9.1-7.3 25.3-7.5 35.6v99c0 30.9 24.9 55.9 55.7 55.9v-153.5c0-12.6 6.2-16.3 16.1-16.1h86.7v-66.5zm111.1-24.6c0-30-24.3-53.7-54.2-53.7v259.8c0 30 24.3 54.3 54.2 54.3zm72 238.4c0-11.9-9.7-21.6-21.6-21.6s-21.6 9.7-21.6 21.6 9.7 21.6 21.6 21.6 21.6-9.7 21.6-21.6z"/>
  </g>
</svg>
