<svg version="1.2" xmlns="http://www.w3.org/2000/svg" viewBox="0 0 1080 1080" width="1080" height="1080"><style>tspan{white-space:pre}.A{fill:#1e6bb8}.B{fill:#fff}.C{fill:#1f6cb9}.D{fill:#1f6cb9;stroke:#1f6cb9;stroke-linecap:round;stroke-linejoin:round;stroke-width:4}</style><ellipse class="A" cx="540.4" cy="539.7" rx="436.1" ry="436.1"/><path fill-rule="evenodd" class="B" d="m538.5 554c-92.1 0-166.5-23.5-166.5-52.5c0-29.1 74.4-52.5 166.5-52.5c92 0 166.4 23.4 166.4 52.5c0 29-74.4 52.5-166.4 52.5zm140.1-58.4c0-23-62.7-41.6-140.1-41.6c-77.5 0-140.1 18.6-140.1 41.6c0 23 62.6 41.6 140.1 41.6c77.4 0 140.1-18.6 140.1-41.6z"/><ellipse class="C" cx="538.5" cy="495.6" rx="140.1" ry="41.6"/><ellipse class="B" cx="540.3" cy="489.8" rx="100.5" ry="27.9"/><ellipse class="C" cx="540.3" cy="484.7" rx="66.2" ry="16.8"/><path class="B" d="m540.1 488.8c-52.1 0-94.4-43.7-94.4-97.5c0-52.1 86-145.1 89.7-149l4.7-5l4.6 5c3.7 3.9 89.8 96.9 89.8 149c0 31.5-14.8 61.1-39.7 79.4c-16 11.8-35 18.1-54.7 18.1z"/><path class="B" d="m540.1 488.8c-52.1 0-94.4-43.7-94.4-97.5c0-52.1 86-145.1 89.7-149l4.7-5l4.6 5c3.7 3.9 89.8 96.9 89.8 149c0 31.5-14.8 61.1-39.7 79.4c-16 11.8-35 18.1-54.7 18.1z"/><path fill-rule="evenodd" class="C" d="m547.5 238c1 0.9 22.8 24.4 45 54.6c30.9 41.9 46.5 75.1 46.5 98.7c0 33.5-15.8 65.1-42.2 84.5c-17.2 12.6-37.4 19.3-58.6 19.3c-55.6 0-100.8-46.5-100.8-103.8c0-23.6 15.7-56.8 46.5-98.7c22.2-30.2 44.1-53.7 45-54.6l9.3-10zm-97.3 153.3c0 50.3 39.4 91.1 88 91.1c19 0 36.6-6.3 51-16.8c22.4-16.5 37-43.6 37-74.3q0-50.2-88-144.7q-88 94.5-88 144.7z"/><path fill-rule="evenodd" class="B" d="m299.7 682.3q5.2 2.8 8.5 8.2q3.4 5.2 3.4 13.4q0 9-3 14.7q-2.9 5.8-7.7 8.9q-4.7 3.2-10.2 4.4q-5.5 1.1-10.5 1.1h-34.1q-3.6 0-6-2.3q-2.3-2.5-2.3-6v-79.1q0-3.5 2.3-5.9q2.4-2.4 6-2.4h34.5q13.1 0 19.5 6.1q6.5 6.2 6.5 18.2q0 6.4-3.2 11.4c-2.1 3.2-8.2 7-8.2 7c0 0 1.1 0.3 4.5 2.3zm-21.2-7.6q4 0 7.1-2.6q3.2-2.6 3.2-7.5q0-5.9-3-8.5q-2.9-2.7-7.7-2.7h-22.6l0.1 21.3zm1.6 42.6q6.3 0 10-3.3q3.7-3.4 3.7-10.1q0-6.2-2.5-8.9q-2.4-2.8-5.9-3.4q-3.4-0.7-6.3-0.7h-23.6v26.4zm64.3-71.7v79.1q0 3.5-2.6 6q-2.6 2.3-6 2.3q-3.9 0-6.2-2.3q-2.3-2.5-2.3-6v-79.1q0-3.5 2.4-5.9q2.5-2.4 6.3-2.4q3.3 0 5.8 2.4q2.6 2.4 2.6 5.9zm85.9 48q2.6 2.7 3.9 6q1.5 3.2 1.8 6.9q0.6 3.4 0.7 6q0.3 2.6 0.8 4.4q0.7 1.7 2.5 2.7q3 1.8 3.7 5.2q0.8 3.3-1.5 5.9q-1.5 1.8-3.9 2.3q-2.3 0.4-4.6 0q-2.3-0.5-3.8-1.4q-2.4-1.3-4.7-3.9q-2.3-2.8-3.8-7.3q-1.4-4.5-1.4-11.6q0-2.3-0.8-4.2q-0.8-2.1-2.3-3.5q-1.5-1.5-3.9-2.2q-2.3-0.8-5.4-0.8l-25.7-0.1l0.1 26.7q0 3.5-1.9 6q-1.9 2.3-5.4 2.3q-3.8 0-6.8-2.3q-3-2.5-3-6v-79.1q0-3.5 2.3-5.9q2.5-2.4 6-2.4h39.4q7.1 0 13.3 3.8q6.3 3.7 10.1 10.4q3.8 6.6 3.8 15.2q0 5.2-2.1 10.1q-2.1 4.9-5.8 8.9c-2.4 2.6-5.3 4.6-5.3 4.6c0 0 2 1.4 3.7 3.3zm-48.4-9.6h30q2.5 0 4.8-2.1q2.4-2.4 3.9-6.2q1.5-4 1.5-8.6q0-6-3.3-10q-3.2-4.1-6.9-4.1h-30zm94 14l0.1 26.7q0 3.5-2 6q-1.9 2.3-5.3 2.3q-3.8 0-6.8-2.3q-3-2.5-3-6v-79.1q0-3.5 2.3-5.9q2.4-2.4 6-2.4h39.4q7.1 0 13.3 3.8q6.3 3.7 10.1 10.4q3.8 6.6 3.8 15.2q0 5.2-2.2 10.1q-2 4.9-5.7 8.9c-2.4 2.6-5.3 4.6-5.3 4.6c0 0 2 1.4 3.6 3.3q2.6 2.7 4 6q1.5 3.2 1.8 6.9q0.5 3.4 0.7 6q0.2 2.6 0.8 4.4q0.7 1.7 2.5 2.7q3 1.8 3.6 5.2q0.9 3.3-1.5 5.9q-1.5 1.8-3.8 2.3q-2.3 0.4-4.6 0q-2.4-0.5-3.9-1.4q-2.3-1.3-4.6-3.9q-2.3-2.8-3.8-7.3q-1.4-4.5-1.4-11.6q0-2.3-0.8-4.2q-0.9-2.1-2.4-3.5q-1.5-1.5-3.8-2.2q-2.3-0.8-5.5-0.8zm30-13.9q2.5 0 4.8-2.2q2.3-2.3 3.8-6.2q1.5-3.9 1.5-8.6q0-6-3.2-10q-3.2-4.1-6.9-4.1h-30v31zm114.3-46.9q3.5 0 5.7 2.5q2.2 2.3 2.2 5.9v49.5q0 11.3-4.9 20.1q-4.8 8.7-13.3 13.7q-8.5 4.9-19.7 4.9q-11.2 0-19.8-4.9q-8.5-5-13.4-13.7q-4.8-8.8-4.8-20.1v-49.5q0-3.6 2.4-5.9q2.5-2.5 6.3-2.5q3.2 0 5.6 2.5q2.6 2.3 2.6 5.9v49.5q0 6.8 2.9 11.9q3 4.9 7.8 7.6q4.9 2.8 10.4 2.8q5.9 0 10.9-2.8q5.1-2.7 8.2-7.6q3.2-5.1 3.2-11.9v-49.5q0-3.6 2-5.9q2.1-2.5 5.7-2.5zm44.1 87.5q0 3.6-2.2 6.1q-2.1 2.3-5.7 2.3q-3.4 0-5.6-2.3q-2.2-2.5-2.2-6.1v-79.1q0-3.5 2.5-5.9q2.6-2.5 6.1-2.5q1.9 0 4 1.1q2.2 1 3.3 2.6l29.8 45.8l30.6-45.8q2.6-3.7 6.7-3.7q3.3 0 5.9 2.3q2.6 2.4 2.6 6.1v79.1q0 3.6-2.3 6.1q-2.3 2.3-6.2 2.3q-3.8 0-6.3-2.3q-2.3-2.5-2.3-6.1l-0.1-54.9l-22.5 34.3q-1.2 1.5-3.1 2.6q-1.8 1.1-3.7 1q-1.8 0.1-3.7-1q-1.8-1.1-3-2.6l-22.6-35.6zm158.7-82.5q2.3-5.2 7.5-5.2q3.4 0 5.9 2.3q2.6 2.2 2.6 5.6q0 1.8-0.8 3.7l-33.8 79.1q-1.2 2.7-3.6 4.1q-2.2 1.2-4.5 1.2q-2.2-0.1-4.2-1.3q-2.1-1.4-3.2-3.9l-33.8-79.3q-0.4-0.8-0.5-1.6q-0.1-1-0.1-1.8q0-4 2.8-6q2.9-2.2 5.5-2.2q5.2 0 7.5 5.3l27.4 64.8z"/><path class="D" d="m534 391.6c-2 2.2-5.2 6.9-9.1 12q-6 8.4-5.3 12.1q1.2 6.9 4.2 24.7q2.3 15.7-5.9 23.5q-3.9 3.6-16.7 7.9c-13.9 4.7-17.5 2.8-14.8 1.9q31.1-10.5 28.8-40.8q-0.3-2.5-1.7-14.1q-0.9-8.5-0.1-14.1q1-7 6.6-13.7c2.7-3.2 3.6-5.5 6.5-10q3.2-7.7 2.7-10.1l0.4-0.9q2.1 1.7 4 6.4q1.9 4.6 0.7 8.9c1.4 0.2 3.1 0 5.7-1c4-1.6 7-5.4 7-5.4l1.9-2.4l2-3c5.7-10.8 6.6-20.1 3.9-26.9q-2.9-7.1-12.9-14.9q-4.1-3.3-16.6-11.4q4.2 8.2 12.4 24.6l-0.4 0.9l-0.9-0.1q0 0-0.1-0.1h-0.1q-2.4-1.5-10.6-17.3q-6.9-13.2-9.3-19q-0.8-2.1-0.4-3.4q3.6 0.4 7.5 2.1q8.3 3.7 17.8 13.5q12.3 12.6 17 24.1q9.6 23.4-2.3 40.5c0 0-4 4.9-8.8 6.5c-4.5 1.5-8.5 1.3-13.1-1z"/><path class="D" d="m549.8 408.8q0.3 4.1-0.6 10.8l-10.2-1.3l0.2-11.3q8.7-0.2 10.6 1.8zm43.1-76.9q7.2 17.6 9.7 32.4c2.4 14.8-2.1 25.2-4.7 31.8c-2.3 5.7-8.4 13.3-14.3 16.9q-14.4 8.6-23.9 11.7q-0.4-0.2-0.7-0.5l-0.1-0.6l0.2-0.4q2.6-0.9 13.1-9.6c9.3-7.6 14.7-18.9 18-25.3q12.3-24.2 4-44.3q-6.1-15-37.8-40.1q2 5.1 6.4 13.9q4.9 9.7 6.6 14q2.9 7 1.1 8.1l-1.3-0.7q-1.1-2.9-1.3-3.6q-2.5-6-8.8-17.4q-6.3-11.4-8.7-17.4q-2.9-7-2.2-13.2q1.2-0.1 12.3 9.2q10 8.3 14.1 12.2q4.1 4 9 9.4q7 7.8 9.3 13.5z"/><path class="D" d="m597 389"/></svg>