<svg version="1.2" xmlns="http://www.w3.org/2000/svg" viewBox="0 0 465 440" width="465" height="440">
	<style>
		.s0 { fill: #ffffff } 
		.s1 { fill: #073d2a } 
		.s2 { fill: #3e876a } 
		.s3 { fill: #463a16 } 
	</style>
	<g id="#ffffffff">
		<path class="s0" d="m64.34 18.01c27.07 2.42 54.13 6 80.38 13.29 23.44 6.64 47.28 14.93 66.24 30.76 6.65 5.35 12.2 13.07 11.98 21.95 0.06 58 0.01 116 0 174-0.17 12.59 0.37 25.21-0.37 37.79-3.86-5.24-9.32-8.98-14.18-13.22-12.89-9.57-27.25-17.1-42.36-22.51-32.47-11.91-67.1-16.25-101.4-18.8-0.37-2.06-0.25-4.18-0.27-6.26q-0.05-108.5-0.02-217z"/>
		<path class="s0" d="m325.82 29.88c24.5-6.52 49.77-9.41 74.96-11.68-0.17 74.19-0.07 148.39 0.02 222.58-24.49 2.17-49.08 4.51-72.96 10.62-28.02 6.39-55.71 17.6-77.33 36.99-3.34 2.79-5.94 6.34-9.25 9.15-0.24-70.52-0.13-141.05-0.11-211.57-0.62-11.33 8.09-20.07 16.27-26.6 20.25-14.78 44.25-23.49 68.4-29.49zm-12.9 58.06c-8.9 5.29-17.45 11.13-26.15 16.74-1.46 1.19-3.73 2.17-3.62 4.4 0.28 4.41 3.17 9.32 7.84 10.09 3.28-0.47 5.94-2.71 8.66-4.46 8.11-5.98 17.31-10.39 25.14-16.76 0.5-4.46-1.66-9.23-5.79-11.22-2.11-0.65-4.27 0.16-6.08 1.21zm4.07 29.03c-6.01 1.4-10.57 6.02-14.16 10.77-3.98 6.23-5.66 13.88-5.06 21.22 0.79 8.44 6.71 16.72 15.33 18.41 6.46 1.6 13.01-0.12 19.17-2.1-2.57 5.48-5.08 11.19-9.65 15.36-7.44 6.78-17.49 10.84-27.6 10.61-3.45-0.07-7.2-0.01-10.15-2.05-4.46-2.58-5.85-8.26-5.13-13.07 1.56-1.96 0.55-4.17-1.07-5.66-0.66-0.16-1.99-0.48-2.65-0.63-1.61 1.01-3.32 2.03-4.35 3.68-6.95 11.2-5.2 27.21 4.41 36.33 9.19 7.68 22.53 7.09 33.42 3.94 14.84-4.84 27.35-16.59 33.03-31.16 5.62-15.05 4.95-31.9 0.11-47.07-2.09-6.19-5.4-12.31-10.7-16.31-4.2-3.3-9.96-3.51-14.95-2.27z"/>
		<path class="s0" d="m317.74 148.11c-5.72-2.22-4.51-12.13 1.35-13.25 6.41-0.12 7.94 7.57 9.42 12.41-3.36 1.38-7.3 2.51-10.77 0.84z"/>
	</g>
	<g id="#073d2aff">
		<path class="s1" d="m47.49 8.46c3.01-5.93 9.96-9.44 16.53-8.36 40.57 2.77 81.65 8.49 119.37 24.38 17.85 8.01 35.84 17.18 49.37 31.63 12.39-13.16 28.35-22.23 44.65-29.68 8.14-4.01 16.88-6.52 25.4-9.57 32.42-10.3 66.38-14.5 100.19-16.95 5.38 0.04 10.59 3.3 13.07 8.07 2.87 5.36 1.78 11.61 2.26 17.43 8.8-1.38 17.77-1.02 26.66-1.25 10.92-0.43 19.84 10.35 19.45 20.82 0.11 72.69 0 145.38 0.09 218.07 0.05 6.36-1.93 13.25-6.94 17.44-4.45 2.21-8.77 4.85-13.69 5.89-9.87 2.32-20.03 3.64-29.46 7.55-4.72 2.26-10.12 0.92-14.99 2.64-36.23 9.16-71.87 20.47-107.65 31.21-8.86 2.56-17.39 6.1-26.22 8.73-9.82 2.93-19.44 6.58-29.48 8.74-4.01 0.91-8.22 0.9-12.19-0.17-10.99-2.95-21.62-7.06-32.45-10.52-17.55-5.36-35.03-10.95-52.54-16.44-19.49-6.3-39.32-11.47-59-17.13-7.85-2.62-16.18-3.15-24.15-5.24-4.16-1.49-8.32-3.11-12.75-3.58-5.03-0.82-9.89-2.41-14.9-3.34-6.22-1.41-12.95-1.93-18.32-5.72-6.28-4.06-9.42-11.77-9.3-19.07 0.02-73.34-0.02-146.67-0.02-220.01-0.32-9.77 7.75-18.75 17.39-19.84 9.22-0.26 18.42 0.59 27.64 0.6 0.09-5.46-0.38-11.24 1.98-16.33zm16.85 9.55q-0.03 108.5 0.02 217c0.02 2.08-0.1 4.2 0.27 6.26 34.3 2.55 68.93 6.89 101.4 18.8 15.11 5.41 29.47 12.94 42.36 22.51 4.86 4.24 10.32 7.98 14.18 13.22 0.74-12.58 0.2-25.2 0.37-37.79 0.01-58 0.06-116 0-174 0.22-8.88-5.33-16.6-11.98-21.95-18.96-15.83-42.8-24.12-66.24-30.76-26.25-7.29-53.31-10.87-80.38-13.29zm261.48 11.87c-24.15 6-48.15 14.71-68.4 29.49-8.18 6.53-16.89 15.27-16.27 26.6-0.02 70.52-0.13 141.05 0.11 211.57 3.31-2.81 5.91-6.36 9.25-9.15 21.62-19.39 49.31-30.6 77.33-36.99 23.88-6.11 48.47-8.45 72.96-10.62-0.09-74.19-0.19-148.39-0.02-222.58-25.19 2.27-50.46 5.16-74.96 11.68zm-306.49 12.51c-1.34 3.69-0.75 7.72-0.88 11.56-0.03 68.66 0.08 137.33 0.07 205.98-0.15 3.82 0.45 8.57 4.86 9.65 61.85 14.65 123.06 32.07 183.73 51.03 4.05 0.97 8.01 2.61 12.25 2.48-4.16-9.01-10.49-16.9-17.84-23.51-14.17-12.33-31.56-20.4-49.47-25.66-24.38-7.45-49.71-11.27-75.08-13.23-5.96-1.1-12.04-0.34-18.03-1.18-3.31-0.52-7.21-0.08-9.74-2.7-2.91-2.81-2.43-7.15-2.61-10.83 0.09-67.59-0.05-135.19 0.08-202.78-6.37-1.37-12.89-1.22-19.36-1.23-2.65 0.06-5.44-0.53-7.98 0.42zm399.67 0.69c-0.29 67.96-0.05 135.92-0.08 203.88 0.01 3.48-0.49 7.33-2.95 10-3.33 2.81-7.96 1.8-11.95 2.11-10.27 1.08-20.59 1.35-30.85 2.48-20.95 2.39-41.77 6.35-61.85 12.86-11.96 3.36-23.23 8.77-33.98 14.92-8.54 5.14-15.99 12.02-22.35 19.66-2.92 4.1-6.33 8.17-7.43 13.22 3.74 0.77 7.35-0.81 10.92-1.71 12.49-3.76 24.81-8.06 37.35-11.67 46.7-13.77 93.54-27.17 141-38.06 3.01-0.89 6.84-1.32 8.59-4.28 2.15-4.86 1.21-10.34 1.34-15.48 0.03-67.34-0.13-134.67 0.04-202.01 0.04-2.92-0.28-7.05-3.93-7.58-7.97 0.48-15.93 0.82-23.87 1.66z"/>
		<path class="s1" d="m312.92 87.94c1.81-1.05 3.97-1.86 6.08-1.21 4.13 1.99 6.29 6.76 5.79 11.22-7.83 6.37-17.03 10.78-25.14 16.76-2.72 1.75-5.38 3.99-8.66 4.46-4.67-0.77-7.56-5.68-7.84-10.09-0.11-2.23 2.16-3.21 3.62-4.4 8.7-5.61 17.25-11.45 26.15-16.74z"/>
		<path class="s1" d="m316.99 116.97c4.99-1.24 10.75-1.03 14.95 2.27 5.3 4 8.61 10.12 10.7 16.31 4.84 15.17 5.51 32.02-0.11 47.07-5.68 14.57-18.19 26.32-33.03 31.16-10.89 3.15-24.23 3.74-33.42-3.94-9.61-9.12-11.36-25.13-4.41-36.33 1.03-1.65 2.74-2.67 4.35-3.68 0.66 0.15 1.99 0.47 2.65 0.63 1.62 1.49 2.63 3.7 1.07 5.66-0.72 4.81 0.67 10.49 5.13 13.07 2.95 2.04 6.7 1.98 10.15 2.05 10.11 0.23 20.16-3.83 27.6-10.61 4.57-4.17 7.08-9.88 9.65-15.36-6.16 1.98-12.71 3.7-19.17 2.1-8.62-1.69-14.54-9.97-15.33-18.41-0.6-7.34 1.08-14.99 5.06-21.22 3.59-4.75 8.15-9.37 14.16-10.77zm0.75 31.14c3.47 1.67 7.41 0.54 10.77-0.84-1.48-4.84-3.01-12.53-9.42-12.41-5.86 1.12-7.07 11.03-1.35 13.25z"/>
		<path class="s1" d="m72.22 439.03c2.58-0.35 5.16-0.69 7.78-0.68 12.99 0.12 25.99-0.01 38.98 0.07 5.95 0.08 11.94-0.46 17.82 0.63-2.91 0.56-5.88 0.49-8.83 0.49q-23.99 0.03-47.98 0.08c-2.6 0.03-5.22-0.08-7.77-0.59z"/>
		<path class="s1" d="m327.16 438.96c2.63-0.31 5.27-0.61 7.93-0.61 15.98 0.09 31.96 0.04 47.94 0.03 2.57 0.02 5.13 0.33 7.7 0.61q-2.35 0.56-4.75 0.59c-16-0.05-31.99 0.01-47.98-0.03-3.62-0.03-7.29 0.24-10.84-0.59z"/>
	</g>
	<g id="#3e876aff">
		<path class="s2" d="m19.33 42.39c2.54-0.95 5.33-0.36 7.98-0.42 6.47 0.01 12.99-0.14 19.36 1.23-0.13 67.59 0.01 135.19-0.08 202.78 0.18 3.68-0.3 8.02 2.61 10.83 2.53 2.62 6.43 2.18 9.74 2.7 5.99 0.84 12.07 0.08 18.03 1.18 25.37 1.96 50.7 5.78 75.08 13.23 17.91 5.26 35.3 13.33 49.47 25.66 7.35 6.61 13.68 14.5 17.84 23.51-4.24 0.13-8.2-1.51-12.25-2.48-60.67-18.96-121.88-36.38-183.73-51.03-4.41-1.08-5.01-5.83-4.86-9.65 0.01-68.65-0.1-137.32-0.07-205.98 0.13-3.84-0.46-7.87 0.88-11.56z"/>
		<path class="s2" d="m419 43.08c7.94-0.84 15.9-1.18 23.87-1.66 3.65 0.53 3.97 4.66 3.93 7.58-0.17 67.34-0.01 134.67-0.04 202.01-0.13 5.14 0.81 10.62-1.34 15.48-1.75 2.96-5.58 3.39-8.59 4.28-47.46 10.89-94.3 24.29-141 38.06-12.54 3.61-24.86 7.91-37.35 11.67-3.57 0.9-7.18 2.48-10.92 1.71 1.1-5.05 4.51-9.12 7.43-13.22 6.36-7.64 13.81-14.52 22.35-19.66 10.75-6.15 22.02-11.56 33.98-14.92 20.08-6.51 40.9-10.47 61.85-12.86 10.26-1.13 20.58-1.4 30.85-2.48 3.99-0.31 8.62 0.7 11.95-2.11 2.46-2.67 2.96-6.52 2.95-10 0.03-67.96-0.21-135.92 0.08-203.88z"/>
	</g>
	<g id="#463a16ff">
		<path class="s3" d="m443.9 286.38c4.92-1.04 9.24-3.68 13.69-5.89-3.88 4.2-9.57 5.72-14.92 7.04-11.76 2.69-24 4.48-34.8 10.17-40.47 20.94-80.33 43.04-120.68 64.2 7.7 3.28 14.83 7.74 22.25 11.58q36.47 19.84 72.69 40.15c4.03 2.22 8.44 3.93 11.88 7.08 2.94 2.55 4.16 6.6 4.05 10.4-0.7 3.69-3.63 7.04-7.33 7.88-2.57-0.28-5.13-0.59-7.7-0.61-15.98 0.01-31.96 0.06-47.94-0.03-2.66 0-5.3 0.3-7.93 0.61-2.6-0.4-4.86-1.94-7.19-3.06q-25.32-13.94-50.52-28.13c-12.24-6.89-24.66-13.48-36.61-20.87-30.46 16.84-60.97 33.6-91.44 50.41-1.45 0.72-2.93 1.7-4.6 1.74-5.88-1.09-11.87-0.55-17.82-0.63-12.99-0.08-25.99 0.05-38.98-0.07-2.62-0.01-5.2 0.33-7.78 0.68-3.42-0.8-5.61-4.01-6.76-7.12-0.95-4.83 1.02-10.38 5.41-12.9 6.31-3.93 12.97-7.25 19.52-10.75q42.8-23.54 85.8-46.69c-36.44-19.58-72.75-39.4-109.28-58.84-7.4-4.66-15.42-8.32-23.89-10.56 4.43 0.47 8.59 2.09 12.75 3.58 7.97 2.09 16.3 2.62 24.15 5.24 19.68 5.66 39.51 10.83 59 17.13 17.51 5.49 34.99 11.08 52.54 16.44 10.83 3.46 21.46 7.57 32.45 10.52 3.97 1.07 8.18 1.08 12.19 0.17 10.04-2.16 19.66-5.81 29.48-8.74 8.83-2.63 17.36-6.17 26.22-8.73 35.78-10.74 71.42-22.05 107.65-31.21 4.87-1.72 10.27-0.38 14.99-2.64 9.43-3.91 19.59-5.23 29.46-7.55z"/>
	</g>
</svg>