<?xml version="1.0" encoding="UTF-8" ?>
<!DOCTYPE svg PUBLIC "-//W3C//DTD SVG 1.1//EN" "http://www.w3.org/Graphics/SVG/1.1/DTD/svg11.dtd">
<svg width="870pt" height="870pt" viewBox="0 0 870 870" version="1.1" xmlns="http://www.w3.org/2000/svg">
<g id="#ffffffff">
<path fill="#ffffff" opacity="1.00" d=" M 284.34 86.01 C 311.41 88.43 338.47 92.01 364.72 99.30 C 388.16 105.94 412.00 114.23 430.96 130.06 C 437.61 135.41 443.16 143.13 442.94 152.01 C 443.00 210.01 442.95 268.01 442.94 326.01 C 442.77 338.60 443.31 351.22 442.57 363.80 C 438.71 358.56 433.25 354.82 428.39 350.58 C 415.50 341.01 401.14 333.48 386.03 328.07 C 353.56 316.16 318.93 311.82 284.63 309.27 C 284.26 307.21 284.38 305.09 284.36 303.01 C 284.32 230.68 284.33 158.34 284.34 86.01 Z" />
<path fill="#ffffff" opacity="1.00" d=" M 545.82 97.88 C 570.32 91.36 595.59 88.47 620.78 86.20 C 620.61 160.39 620.71 234.59 620.80 308.78 C 596.31 310.95 571.72 313.29 547.84 319.40 C 519.82 325.79 492.13 337.00 470.51 356.39 C 467.17 359.18 464.57 362.73 461.26 365.54 C 461.02 295.02 461.13 224.49 461.15 153.97 C 460.53 142.64 469.24 133.90 477.42 127.37 C 497.67 112.59 521.67 103.88 545.82 97.88 M 532.92 155.94 C 524.02 161.23 515.47 167.07 506.77 172.68 C 505.31 173.87 503.04 174.85 503.15 177.08 C 503.43 181.49 506.32 186.40 510.99 187.17 C 514.27 186.70 516.93 184.46 519.65 182.71 C 527.76 176.73 536.96 172.32 544.79 165.95 C 545.29 161.49 543.13 156.72 539.00 154.73 C 536.89 154.08 534.73 154.89 532.92 155.94 M 536.99 184.97 C 530.98 186.37 526.42 190.99 522.83 195.74 C 518.85 201.97 517.17 209.62 517.77 216.96 C 518.56 225.40 524.48 233.68 533.10 235.37 C 539.56 236.97 546.11 235.25 552.27 233.27 C 549.70 238.75 547.19 244.46 542.62 248.63 C 535.18 255.41 525.13 259.47 515.02 259.24 C 511.57 259.17 507.82 259.23 504.87 257.19 C 500.41 254.61 499.02 248.93 499.74 244.12 C 501.30 242.16 500.29 239.95 498.67 238.46 C 498.01 238.30 496.68 237.98 496.02 237.83 C 494.41 238.84 492.70 239.86 491.67 241.51 C 484.72 252.71 486.47 268.72 496.08 277.84 C 505.27 285.52 518.61 284.93 529.50 281.78 C 544.34 276.94 556.85 265.19 562.53 250.62 C 568.15 235.57 567.48 218.72 562.64 203.55 C 560.55 197.36 557.24 191.24 551.94 187.24 C 547.74 183.94 541.98 183.73 536.99 184.97 Z" />
<path fill="#ffffff" opacity="1.00" d=" M 537.74 216.11 C 532.02 213.89 533.23 203.98 539.09 202.86 C 545.50 202.74 547.03 210.43 548.51 215.27 C 545.15 216.65 541.21 217.78 537.74 216.11 Z" />
<path fill="#ffffff" opacity="1.00" d=" M 410.06 734.68 C 409.44 727.66 419.80 721.87 424.99 726.87 C 422.08 732.07 415.91 735.00 410.06 734.68 Z" />
<path fill="#ffffff" opacity="1.00" d=" M 597.58 768.36 C 600.95 764.77 606.30 761.49 611.24 763.97 C 608.38 767.96 602.08 772.03 597.58 768.36 Z" />
<path fill="#ffffff" opacity="1.00" d=" M 459.06 768.71 C 462.08 766.77 465.73 763.85 469.51 765.51 C 472.58 767.50 470.49 772.66 467.11 772.88 C 463.71 773.61 461.37 770.62 459.06 768.71 Z" />
</g>
<g id="#073d2aff">
<path fill="#073d2a" opacity="1.00" d=" M 267.49 76.46 C 270.50 70.53 277.45 67.02 284.02 68.10 C 324.59 70.87 365.67 76.59 403.39 92.48 C 421.24 100.49 439.23 109.66 452.76 124.11 C 465.15 110.95 481.11 101.88 497.41 94.43 C 505.55 90.42 514.29 87.91 522.81 84.86 C 555.23 74.56 589.19 70.36 623.00 67.91 C 628.38 67.95 633.59 71.21 636.07 75.98 C 638.94 81.34 637.85 87.59 638.33 93.41 C 647.13 92.03 656.10 92.39 664.99 92.16 C 675.91 91.73 684.83 102.51 684.44 112.98 C 684.55 185.67 684.44 258.36 684.53 331.05 C 684.58 337.41 682.60 344.30 677.59 348.49 C 673.14 350.70 668.82 353.34 663.90 354.38 C 654.03 356.70 643.87 358.02 634.44 361.93 C 629.72 364.19 624.32 362.85 619.45 364.57 C 583.22 373.73 547.58 385.04 511.80 395.78 C 502.94 398.34 494.41 401.88 485.58 404.51 C 475.76 407.44 466.14 411.09 456.10 413.25 C 452.09 414.16 447.88 414.15 443.91 413.08 C 432.92 410.13 422.29 406.02 411.46 402.56 C 393.91 397.20 376.43 391.61 358.92 386.12 C 339.43 379.82 319.60 374.65 299.92 368.99 C 292.07 366.37 283.74 365.84 275.77 363.75 C 271.61 362.26 267.45 360.64 263.02 360.17 C 257.99 359.35 253.13 357.76 248.12 356.83 C 241.90 355.42 235.17 354.90 229.80 351.11 C 223.52 347.05 220.38 339.34 220.50 332.04 C 220.52 258.70 220.48 185.37 220.48 112.03 C 220.16 102.26 228.23 93.28 237.87 92.19 C 247.09 91.93 256.29 92.78 265.51 92.79 C 265.60 87.33 265.13 81.55 267.49 76.46 M 284.34 86.01 C 284.33 158.34 284.32 230.68 284.36 303.01 C 284.38 305.09 284.26 307.21 284.63 309.27 C 318.93 311.82 353.56 316.16 386.03 328.07 C 401.14 333.48 415.50 341.01 428.39 350.58 C 433.25 354.82 438.71 358.56 442.57 363.80 C 443.31 351.22 442.77 338.60 442.94 326.01 C 442.95 268.01 443.00 210.01 442.94 152.01 C 443.16 143.13 437.61 135.41 430.96 130.06 C 412.00 114.23 388.16 105.94 364.72 99.30 C 338.47 92.01 311.41 88.43 284.34 86.01 M 545.82 97.88 C 521.67 103.88 497.67 112.59 477.42 127.37 C 469.24 133.90 460.53 142.64 461.15 153.97 C 461.13 224.49 461.02 295.02 461.26 365.54 C 464.57 362.73 467.17 359.18 470.51 356.39 C 492.13 337.00 519.82 325.79 547.84 319.40 C 571.72 313.29 596.31 310.95 620.80 308.78 C 620.71 234.59 620.61 160.39 620.78 86.20 C 595.59 88.47 570.32 91.36 545.82 97.88 M 239.33 110.39 C 237.99 114.08 238.58 118.11 238.45 121.95 C 238.42 190.61 238.53 259.28 238.52 327.93 C 238.37 331.75 238.97 336.50 243.38 337.58 C 305.23 352.23 366.44 369.65 427.11 388.61 C 431.16 389.58 435.12 391.22 439.36 391.09 C 435.20 382.08 428.87 374.19 421.52 367.58 C 407.35 355.25 389.96 347.18 372.05 341.92 C 347.67 334.47 322.34 330.65 296.97 328.69 C 291.01 327.59 284.93 328.35 278.94 327.51 C 275.63 326.99 271.73 327.43 269.20 324.81 C 266.29 322.00 266.77 317.66 266.59 313.98 C 266.68 246.39 266.54 178.79 266.67 111.20 C 260.30 109.83 253.78 109.98 247.31 109.97 C 244.66 110.03 241.87 109.44 239.33 110.39 M 639.00 111.08 C 638.71 179.04 638.95 247.00 638.92 314.96 C 638.93 318.44 638.43 322.29 635.97 324.96 C 632.64 327.77 628.01 326.76 624.02 327.07 C 613.75 328.15 603.43 328.42 593.17 329.55 C 572.22 331.94 551.40 335.90 531.32 342.41 C 519.36 345.77 508.09 351.18 497.34 357.33 C 488.80 362.47 481.35 369.35 474.99 376.99 C 472.07 381.09 468.66 385.16 467.56 390.21 C 471.30 390.98 474.91 389.40 478.48 388.50 C 490.97 384.74 503.29 380.44 515.83 376.83 C 562.53 363.06 609.37 349.66 656.83 338.77 C 659.84 337.88 663.67 337.45 665.42 334.49 C 667.57 329.63 666.63 324.15 666.76 319.01 C 666.79 251.67 666.63 184.34 666.80 117.00 C 666.84 114.08 666.52 109.95 662.87 109.42 C 654.90 109.90 646.94 110.24 639.00 111.08 Z" />
<path fill="#073d2a" opacity="1.00" d=" M 532.92 155.94 C 534.73 154.89 536.89 154.08 539.00 154.73 C 543.13 156.72 545.29 161.49 544.79 165.95 C 536.96 172.32 527.76 176.73 519.65 182.71 C 516.93 184.46 514.27 186.70 510.99 187.17 C 506.32 186.40 503.43 181.49 503.15 177.08 C 503.04 174.85 505.31 173.87 506.77 172.68 C 515.47 167.07 524.02 161.23 532.92 155.94 Z" />
<path fill="#073d2a" opacity="1.00" d=" M 536.99 184.97 C 541.98 183.73 547.74 183.94 551.94 187.24 C 557.24 191.24 560.55 197.36 562.64 203.55 C 567.48 218.72 568.15 235.57 562.53 250.62 C 556.85 265.19 544.34 276.94 529.50 281.78 C 518.61 284.93 505.27 285.52 496.08 277.84 C 486.47 268.72 484.72 252.71 491.67 241.51 C 492.70 239.86 494.41 238.84 496.02 237.83 C 496.68 237.98 498.01 238.30 498.67 238.46 C 500.29 239.95 501.30 242.16 499.74 244.12 C 499.02 248.93 500.41 254.61 504.87 257.19 C 507.82 259.23 511.57 259.17 515.02 259.24 C 525.13 259.47 535.18 255.41 542.62 248.63 C 547.19 244.46 549.70 238.75 552.27 233.27 C 546.11 235.25 539.56 236.97 533.10 235.37 C 524.48 233.68 518.56 225.40 517.77 216.96 C 517.17 209.62 518.85 201.97 522.83 195.74 C 526.42 190.99 530.98 186.37 536.99 184.97 M 537.74 216.11 C 541.21 217.78 545.15 216.65 548.51 215.27 C 547.03 210.43 545.50 202.74 539.09 202.86 C 533.23 203.98 532.02 213.89 537.74 216.11 Z" />
<path fill="#073d2a" opacity="1.00" d=" M 292.22 507.03 C 294.80 506.68 297.38 506.34 300.00 506.35 C 312.99 506.47 325.99 506.34 338.98 506.42 C 344.93 506.50 350.92 505.96 356.80 507.05 C 353.89 507.61 350.92 507.54 347.97 507.54 C 331.98 507.57 315.98 507.58 299.99 507.62 C 297.39 507.65 294.77 507.54 292.22 507.03 Z" />
<path fill="#073d2a" opacity="1.00" d=" M 547.16 506.96 C 549.79 506.65 552.43 506.35 555.09 506.35 C 571.07 506.44 587.05 506.39 603.03 506.38 C 605.60 506.40 608.16 506.71 610.73 506.99 C 609.16 507.36 607.58 507.56 605.98 507.58 C 589.98 507.53 573.99 507.59 558.00 507.55 C 554.38 507.52 550.71 507.79 547.16 506.96 Z" />
<path fill="#073d2a" opacity="1.00" d=" M 338.33 585.43 C 342.83 579.95 349.41 576.62 356.08 574.60 C 359.25 573.09 362.66 576.90 361.18 579.90 C 357.09 585.91 347.55 585.60 344.78 592.75 C 345.57 593.47 346.37 594.20 347.16 594.95 C 350.23 595.00 353.24 594.42 356.18 593.56 C 359.66 592.20 363.29 597.73 360.09 600.07 C 355.96 602.85 350.60 605.20 345.61 603.38 C 341.14 602.23 336.84 598.71 336.04 594.00 C 336.12 591.07 336.18 587.70 338.33 585.43 Z" />
<path fill="#073d2a" opacity="1.00" d=" M 387.34 575.59 C 394.16 573.04 403.28 576.66 405.19 584.01 C 405.93 590.68 400.52 596.31 394.84 598.93 C 389.89 601.52 384.68 604.29 378.96 604.40 C 376.51 603.64 374.52 599.86 377.01 598.04 C 382.53 593.05 391.10 592.71 395.83 586.68 C 396.84 585.39 394.62 584.73 393.78 584.34 C 390.81 583.45 387.76 584.42 384.88 585.15 C 382.06 586.32 378.54 582.75 380.05 580.00 C 381.80 577.64 384.68 576.55 387.34 575.59 Z" />
<path fill="#073d2a" opacity="1.00" d=" M 489.34 575.59 C 496.61 572.74 507.22 577.48 507.30 585.97 C 506.72 591.34 502.75 595.90 498.03 598.27 C 492.71 601.11 487.14 604.25 480.97 604.41 C 478.94 603.70 477.32 601.30 478.03 599.16 C 483.33 592.74 493.75 593.23 498.20 585.90 C 495.25 582.79 490.58 584.17 486.98 585.12 C 484.14 586.37 480.57 582.84 482.02 580.05 C 483.76 577.65 486.66 576.56 489.34 575.59 Z" />
<path fill="#073d2a" opacity="1.00" d=" M 461.20 576.01 C 464.13 573.67 469.27 577.35 467.09 580.81 C 464.65 584.70 461.08 587.79 457.09 590.02 C 449.76 594.23 442.28 598.19 434.54 601.58 C 433.01 602.54 431.38 601.50 429.87 601.11 C 427.50 596.99 431.63 592.92 435.05 591.07 C 444.11 586.69 453.01 581.90 461.20 576.01 Z" />
<path fill="#073d2a" opacity="1.00" d=" M 531.39 591.43 C 540.97 586.67 550.57 581.77 559.11 575.27 C 561.81 574.96 565.44 576.84 564.43 580.03 C 562.12 584.61 557.86 587.92 553.45 590.39 C 546.29 594.46 539.00 598.33 531.44 601.62 C 529.93 602.53 528.35 601.48 526.88 601.11 C 524.58 597.24 528.26 593.39 531.39 591.43 Z" />
<path fill="#073d2a" opacity="1.00" d=" M 553.24 612.16 C 555.47 610.94 558.74 610.57 560.32 613.00 C 560.86 615.81 558.03 617.45 556.40 619.22 C 560.13 622.26 562.18 627.43 560.50 632.12 C 559.29 637.78 553.42 640.71 548.19 641.61 C 543.30 642.72 538.36 641.64 533.47 641.16 C 530.62 640.81 528.48 643.21 526.59 644.98 C 530.87 649.37 537.43 649.13 543.09 648.83 C 547.48 648.70 551.63 646.98 555.99 646.68 C 558.22 646.48 560.53 647.84 561.12 650.07 C 560.67 652.58 557.96 653.70 555.88 654.63 C 546.43 658.32 535.37 659.55 525.86 655.43 C 520.98 653.38 517.43 648.31 517.98 642.93 C 518.21 638.78 521.87 636.21 524.97 634.05 C 524.94 632.78 524.91 631.52 524.90 630.26 C 526.53 627.93 528.95 625.76 532.04 626.39 C 535.67 626.29 538.11 629.48 538.90 632.71 C 542.76 632.85 547.08 633.64 550.51 631.39 C 552.10 630.50 551.73 628.42 552.07 626.93 C 548.44 624.63 543.33 626.05 540.81 621.93 C 540.83 619.69 541.62 617.61 542.90 615.80 C 546.51 615.12 550.00 613.92 553.24 612.16 Z" />
<path fill="#073d2a" opacity="1.00" d=" M 446.54 616.30 C 449.52 615.21 452.06 613.19 455.06 612.14 C 456.97 611.36 459.32 612.13 460.27 614.00 C 460.05 617.34 456.94 619.36 454.83 621.57 C 456.22 622.06 457.61 622.55 459.03 623.01 C 460.12 625.06 461.14 627.44 460.10 629.74 C 458.04 631.86 455.39 633.25 452.93 634.84 C 455.75 636.85 458.12 641.21 455.03 644.06 C 448.29 650.85 439.86 655.57 432.11 661.07 C 421.58 668.49 410.15 675.61 397.05 676.96 C 394.55 676.12 394.43 672.71 395.57 670.76 C 398.27 668.78 401.66 668.14 404.72 666.92 C 411.54 664.57 417.49 660.40 423.42 656.42 C 431.00 651.52 438.25 646.14 445.64 640.95 C 443.55 639.25 440.56 637.86 440.08 634.93 C 440.29 631.14 444.23 629.55 446.86 627.57 C 444.22 626.33 440.75 624.47 441.06 621.04 C 441.34 618.19 444.30 617.23 446.54 616.30 Z" />
<path fill="#073d2a" opacity="1.00" d=" M 342.24 621.14 C 346.91 619.24 351.39 616.91 356.10 615.10 C 358.05 614.16 360.23 615.43 361.41 617.01 C 362.14 618.81 360.79 620.41 359.53 621.54 C 355.48 625.11 350.44 627.22 345.65 629.56 C 348.52 633.33 351.29 638.03 349.68 642.94 C 348.77 646.89 344.51 648.29 341.14 649.46 C 332.60 652.40 322.63 650.83 315.38 645.54 C 312.94 643.60 314.48 640.68 315.79 638.61 C 319.75 639.12 323.59 640.27 327.42 641.41 C 332.05 642.64 336.95 641.73 341.34 640.00 C 339.94 636.18 336.24 633.30 336.20 629.00 C 335.95 625.28 339.03 622.40 342.24 621.14 Z" />
<path fill="#073d2a" opacity="1.00" d=" M 410.70 615.81 C 413.13 614.92 417.16 613.48 418.32 616.82 C 418.97 623.21 408.64 622.59 409.41 629.02 C 410.34 631.16 412.08 632.89 412.80 635.13 C 412.84 638.16 410.21 640.36 407.52 641.18 C 404.60 638.30 400.60 637.07 397.04 635.23 C 388.30 642.84 378.85 649.78 368.19 654.45 C 364.11 655.80 359.32 655.63 355.59 653.36 C 354.35 652.56 353.36 650.75 354.40 649.41 C 355.60 646.87 358.63 646.84 361.03 646.87 C 364.25 647.04 366.96 645.09 369.64 643.58 C 376.16 639.55 382.56 635.30 388.57 630.52 C 386.26 629.09 382.67 627.43 383.40 624.09 C 383.57 621.00 387.63 619.05 390.15 620.89 C 393.59 622.92 397.03 624.96 400.45 627.03 C 401.60 621.77 405.57 617.44 410.70 615.81 Z" />
<path fill="#073d2a" opacity="1.00" d=" M 498.99 618.86 C 501.54 616.93 505.04 615.09 508.20 616.66 C 511.89 618.15 513.59 622.28 514.01 625.99 C 514.82 633.26 511.32 640.19 506.90 645.71 C 505.30 647.75 501.70 648.06 499.94 646.06 C 499.50 642.47 501.95 639.49 503.12 636.29 C 504.54 632.94 505.11 629.32 505.03 625.71 C 500.53 628.52 496.77 632.31 492.59 635.55 C 485.58 641.26 477.92 646.30 469.46 649.60 C 466.86 650.85 463.40 648.85 463.10 646.00 C 463.52 644.26 465.15 643.35 466.46 642.35 C 472.27 638.08 479.02 635.27 484.59 630.66 C 489.34 626.66 494.10 622.67 498.99 618.86 Z" />
<path fill="#073d2a" opacity="1.00" d=" M 490.05 642.92 C 493.38 641.60 497.22 644.44 497.04 647.97 C 497.01 651.08 493.13 653.16 490.50 651.46 C 487.08 650.01 486.52 644.56 490.05 642.92 Z" />
<path fill="#073d2a" opacity="1.00" d=" M 237.39 715.57 C 244.19 713.06 253.23 716.65 255.18 723.94 C 255.92 729.50 251.98 734.69 247.43 737.46 C 241.96 740.52 236.27 743.78 229.91 744.39 C 226.96 744.72 224.29 740.02 226.99 738.06 C 232.50 733.05 241.10 732.72 245.82 726.68 C 246.91 725.46 244.72 724.81 243.93 724.40 C 240.92 723.40 237.78 724.43 234.83 725.15 C 232.05 726.30 228.59 722.75 230.02 720.04 C 231.78 717.64 234.70 716.54 237.39 715.57 Z" />
<path fill="#073d2a" opacity="1.00" d=" M 603.38 719.33 C 607.06 717.25 610.88 715.22 615.06 714.42 C 618.78 713.44 621.24 719.29 617.98 721.35 C 613.49 725.97 605.23 726.19 602.79 732.78 C 603.57 733.48 604.35 734.20 605.13 734.93 C 608.49 735.08 611.74 734.21 614.96 733.39 C 617.14 733.06 618.71 735.11 619.33 736.94 C 619.61 740.59 615.32 741.69 612.69 742.89 C 605.62 746.16 595.61 741.82 594.04 734.00 C 593.13 727.41 598.24 722.44 603.38 719.33 Z" />
<path fill="#073d2a" opacity="1.00" d=" M 415.40 716.70 C 421.89 714.52 431.14 716.75 433.11 724.08 C 435.05 731.20 429.43 737.56 423.45 740.52 C 418.73 742.47 413.63 745.41 408.43 744.70 C 405.62 742.24 402.14 739.70 401.20 735.87 C 399.54 726.80 407.06 718.82 415.40 716.70 M 410.06 734.68 C 415.91 735.00 422.08 732.07 424.99 726.87 C 419.80 721.87 409.44 727.66 410.06 734.68 Z" />
<path fill="#073d2a" opacity="1.00" d=" M 473.23 715.99 C 475.83 713.97 480.52 716.63 479.44 719.98 C 477.16 724.59 472.87 727.90 468.46 730.38 C 461.31 734.45 454.01 738.32 446.47 741.61 C 444.95 742.52 443.36 741.48 441.87 741.10 C 439.58 737.22 443.28 733.35 446.43 731.41 C 455.68 726.85 464.86 722.04 473.23 715.99 Z" />
<path fill="#073d2a" opacity="1.00" d=" M 378.23 753.25 C 380.27 750.45 383.74 748.11 387.24 749.87 C 387.82 757.07 381.91 762.71 376.42 766.42 C 364.66 773.49 350.54 775.31 337.04 775.09 C 320.87 774.36 304.96 771.14 288.96 768.86 C 286.13 768.34 283.26 769.45 280.83 770.84 C 276.75 772.91 278.31 779.23 273.83 780.95 C 270.58 781.71 270.21 777.27 269.99 775.01 C 270.28 765.24 280.92 758.82 289.98 759.82 C 297.33 760.83 304.61 762.41 311.96 763.47 C 324.87 764.67 337.86 767.18 350.85 765.33 C 360.68 763.71 371.44 761.12 378.23 753.25 Z" />
<path fill="#073d2a" opacity="1.00" d=" M 413.18 756.03 C 416.21 754.88 418.74 752.62 421.94 751.93 C 424.06 751.34 427.29 753.35 425.92 755.76 C 424.73 758.10 422.65 759.78 420.85 761.62 C 422.23 762.08 423.63 762.56 425.04 763.00 C 425.56 764.31 426.40 765.53 426.52 766.99 C 426.88 771.35 421.72 772.63 418.92 774.82 C 421.49 776.78 424.01 780.64 421.43 783.58 C 415.23 790.23 407.14 794.70 399.79 799.93 C 388.72 807.68 376.91 815.55 363.09 816.95 C 359.86 815.90 360.19 810.25 363.56 809.56 C 369.05 807.35 374.85 805.79 379.89 802.59 C 390.79 795.86 401.21 788.38 411.64 780.95 C 409.44 779.13 405.79 777.50 406.16 774.12 C 406.97 770.82 410.38 769.42 412.87 767.60 C 410.24 766.31 406.74 764.50 407.05 761.04 C 407.40 757.92 410.79 757.11 413.18 756.03 Z" />
<path fill="#073d2a" opacity="1.00" d=" M 655.00 754.96 C 658.20 754.36 660.60 751.28 664.02 751.61 C 666.61 751.29 668.64 754.73 667.01 756.80 C 665.66 758.47 663.74 759.51 662.02 760.74 C 664.88 763.36 667.82 766.73 667.35 770.91 C 667.42 776.73 662.09 780.94 656.91 782.34 C 652.35 783.80 647.50 782.92 643.06 781.50 C 632.88 789.93 622.17 798.79 609.08 802.06 C 606.02 802.88 600.76 798.76 604.02 796.01 C 615.25 790.83 626.08 784.48 635.39 776.26 C 633.71 771.19 640.67 766.46 644.43 770.45 C 647.50 775.36 655.35 775.11 658.88 770.86 C 656.52 766.11 650.55 765.94 647.33 762.13 C 647.70 760.36 647.23 758.12 648.90 756.93 C 650.53 755.39 652.98 755.60 655.00 754.96 Z" />
<path fill="#073d2a" opacity="1.00" d=" M 597.21 757.26 C 601.90 754.63 607.69 752.83 612.92 754.99 C 617.99 756.27 621.53 762.39 619.27 767.31 C 617.13 772.84 611.28 775.19 607.01 778.76 C 598.86 785.19 589.99 791.07 579.91 793.93 C 576.82 794.56 573.10 794.70 570.60 792.47 C 569.06 791.35 569.68 789.30 569.51 787.72 C 572.34 786.46 575.54 786.61 578.39 785.43 C 583.80 783.07 589.12 780.44 594.14 777.31 C 590.67 775.18 588.02 771.10 589.17 766.92 C 589.98 762.54 593.45 759.31 597.21 757.26 M 597.58 768.36 C 602.08 772.03 608.38 767.96 611.24 763.97 C 606.30 761.49 600.95 764.77 597.58 768.36 Z" />
<path fill="#073d2a" opacity="1.00" d=" M 260.77 755.79 C 262.87 755.22 265.59 753.75 267.47 755.52 C 268.89 756.52 268.36 758.56 267.63 759.84 C 265.63 762.95 260.79 763.31 259.56 767.05 C 258.66 770.23 262.14 772.28 262.81 775.16 C 262.82 778.19 260.20 780.37 257.51 781.17 C 254.59 778.30 250.60 777.07 247.04 775.23 C 238.32 782.84 228.86 789.76 218.22 794.44 C 214.13 795.80 209.32 795.64 205.58 793.36 C 204.01 792.42 203.37 790.15 204.80 788.79 C 207.46 785.40 212.37 788.06 215.66 785.78 C 223.73 781.41 231.33 776.16 238.56 770.52 C 236.53 769.15 233.38 767.92 233.35 765.04 C 232.93 761.86 236.65 759.09 239.53 760.57 C 243.22 762.64 246.82 764.87 250.45 767.03 C 251.59 761.73 255.62 757.41 260.77 755.79 Z" />
<path fill="#073d2a" opacity="1.00" d=" M 454.81 760.78 C 459.69 757.26 466.18 754.55 472.14 756.91 C 477.70 758.86 480.89 765.18 479.80 770.85 C 478.64 776.76 473.19 781.85 466.99 781.64 C 461.07 782.15 456.50 777.74 453.13 773.45 C 452.10 774.22 451.08 775.00 450.07 775.79 C 453.04 779.60 457.17 783.74 456.08 789.05 C 455.09 793.83 450.08 796.18 445.89 797.64 C 440.21 799.25 433.75 799.98 428.18 797.63 C 425.05 796.29 425.52 791.27 429.14 791.10 C 435.34 790.69 441.80 790.31 447.29 787.04 C 445.88 784.72 443.99 782.76 442.24 780.72 C 439.61 777.99 439.64 773.02 442.56 770.51 C 446.31 766.87 450.61 763.87 454.81 760.78 M 459.06 768.71 C 461.37 770.62 463.71 773.61 467.11 772.88 C 470.49 772.66 472.58 767.50 469.51 765.51 C 465.73 763.85 462.08 766.77 459.06 768.71 Z" />
<path fill="#073d2a" opacity="1.00" d=" M 567.82 759.67 C 570.00 757.99 573.23 759.69 574.02 762.06 C 573.70 765.05 571.04 767.08 568.98 769.00 C 561.00 775.27 552.61 781.15 543.40 785.48 C 538.31 787.86 532.83 790.13 527.12 789.93 C 523.73 789.76 521.83 785.76 523.91 783.05 C 530.82 780.91 537.69 778.44 543.98 774.81 C 552.16 770.13 559.79 764.58 567.82 759.67 Z" />
<path fill="#073d2a" opacity="1.00" d=" M 555.50 790.75 C 558.57 788.07 562.57 792.68 560.55 795.72 C 557.12 802.94 548.74 805.28 541.90 808.07 C 536.35 810.47 529.69 810.77 524.44 807.46 C 522.57 806.25 521.91 803.19 524.22 802.03 C 527.92 801.08 531.81 802.68 535.47 801.42 C 542.63 798.89 549.65 795.67 555.50 790.75 Z" />
<path fill="#073d2a" opacity="1.00" d=" M 651.48 790.76 C 654.15 788.36 657.99 791.79 656.90 794.84 C 654.58 801.34 647.70 804.10 641.85 806.57 C 636.80 808.43 631.41 811.01 625.93 809.55 C 623.45 808.89 620.47 808.33 619.09 805.92 C 618.21 804.42 618.84 802.91 620.20 802.04 C 623.92 801.08 627.84 802.69 631.52 801.41 C 638.65 798.87 645.65 795.67 651.48 790.76 Z" />
<path fill="#073d2a" opacity="1.00" d=" M 330.84 792.77 C 332.16 791.80 333.81 790.31 335.53 791.31 C 338.25 792.01 338.04 795.81 336.77 797.73 C 333.82 803.12 327.73 805.36 322.40 807.66 C 317.48 809.51 312.25 811.91 306.89 810.61 C 303.51 810.06 299.68 808.51 299.17 804.65 C 302.68 800.79 308.21 804.18 312.50 802.37 C 318.96 799.94 325.51 797.26 330.84 792.77 Z" />
<path fill="#073d2a" opacity="1.00" d=" M 331.23 805.06 C 333.70 803.62 336.87 806.29 336.16 809.00 C 334.62 814.57 329.36 817.92 324.08 819.42 C 317.08 821.50 309.33 824.75 302.14 821.63 C 299.66 820.74 297.01 819.04 296.87 816.12 C 297.75 812.73 302.04 813.67 304.53 814.38 C 308.88 815.91 313.13 813.32 317.18 812.00 C 322.16 810.32 326.82 807.90 331.23 805.06 Z" />
</g>
<g id="#3e876aff">
<path fill="#3e876a" opacity="1.00" d=" M 239.33 110.39 C 241.87 109.44 244.66 110.03 247.31 109.97 C 253.78 109.98 260.30 109.83 266.67 111.20 C 266.54 178.79 266.68 246.39 266.59 313.98 C 266.77 317.66 266.29 322.00 269.20 324.81 C 271.73 327.43 275.63 326.99 278.94 327.51 C 284.93 328.35 291.01 327.59 296.97 328.69 C 322.34 330.65 347.67 334.47 372.05 341.92 C 389.96 347.18 407.35 355.25 421.52 367.58 C 428.87 374.19 435.20 382.08 439.36 391.09 C 435.12 391.22 431.16 389.58 427.11 388.61 C 366.44 369.65 305.23 352.23 243.38 337.58 C 238.97 336.50 238.37 331.75 238.52 327.93 C 238.53 259.28 238.42 190.61 238.45 121.95 C 238.58 118.11 237.99 114.08 239.33 110.39 Z" />
<path fill="#3e876a" opacity="1.00" d=" M 639.00 111.08 C 646.94 110.24 654.90 109.90 662.87 109.42 C 666.52 109.95 666.84 114.08 666.80 117.00 C 666.63 184.34 666.79 251.67 666.76 319.01 C 666.63 324.15 667.57 329.63 665.42 334.49 C 663.67 337.45 659.84 337.88 656.83 338.77 C 609.37 349.66 562.53 363.06 515.83 376.83 C 503.29 380.44 490.97 384.74 478.48 388.50 C 474.91 389.40 471.30 390.98 467.56 390.21 C 468.66 385.16 472.07 381.09 474.99 376.99 C 481.35 369.35 488.80 362.47 497.34 357.33 C 508.09 351.18 519.36 345.77 531.32 342.41 C 551.40 335.90 572.22 331.94 593.17 329.55 C 603.43 328.42 613.75 328.15 624.02 327.07 C 628.01 326.76 632.64 327.77 635.97 324.96 C 638.43 322.29 638.93 318.44 638.92 314.96 C 638.95 247.00 638.71 179.04 639.00 111.08 Z" />
</g>
<g id="#463a16ff">
<path fill="#463a16" opacity="1.00" d=" M 663.90 354.38 C 668.82 353.34 673.14 350.70 677.59 348.49 C 673.71 352.69 668.02 354.21 662.67 355.53 C 650.91 358.22 638.67 360.01 627.87 365.70 C 587.40 386.64 547.54 408.74 507.19 429.90 C 514.89 433.18 522.02 437.64 529.44 441.48 C 553.76 454.70 577.98 468.10 602.13 481.63 C 606.16 483.85 610.57 485.56 614.01 488.71 C 616.95 491.26 618.17 495.31 618.06 499.11 C 617.36 502.80 614.43 506.15 610.73 506.99 C 608.16 506.71 605.60 506.40 603.03 506.38 C 587.05 506.39 571.07 506.44 555.09 506.35 C 552.43 506.35 549.79 506.65 547.16 506.96 C 544.56 506.56 542.30 505.02 539.97 503.90 C 523.09 494.61 506.25 485.22 489.45 475.77 C 477.21 468.88 464.79 462.29 452.84 454.90 C 422.38 471.74 391.87 488.50 361.40 505.31 C 359.95 506.03 358.47 507.01 356.80 507.05 C 350.92 505.96 344.93 506.50 338.98 506.42 C 325.99 506.34 312.99 506.47 300.00 506.35 C 297.38 506.34 294.80 506.68 292.22 507.03 C 288.80 506.23 286.61 503.02 285.46 499.91 C 284.51 495.08 286.48 489.53 290.87 487.01 C 297.18 483.08 303.84 479.76 310.39 476.26 C 338.92 460.56 367.52 445.01 396.19 429.57 C 359.75 409.99 323.44 390.17 286.91 370.73 C 279.51 366.07 271.49 362.41 263.02 360.17 C 267.45 360.64 271.61 362.26 275.77 363.75 C 283.74 365.84 292.07 366.37 299.92 368.99 C 319.60 374.65 339.43 379.82 358.92 386.12 C 376.43 391.61 393.91 397.20 411.46 402.56 C 422.29 406.02 432.92 410.13 443.91 413.08 C 447.88 414.15 452.09 414.16 456.10 413.25 C 466.14 411.09 475.76 407.44 485.58 404.51 C 494.41 401.88 502.94 398.34 511.80 395.78 C 547.58 385.04 583.22 373.73 619.45 364.57 C 624.32 362.85 629.72 364.19 634.44 361.93 C 643.87 358.02 654.03 356.70 663.90 354.38 Z" />
</g>
</svg>
