<svg xmlns="http://www.w3.org/2000/svg" viewBox="0 0 493 458">
  <path fill="#3b6a80" d="M130.87 0h.93l5.81 1.02c-3.08 3.07-7.16 4.68-10.89 6.75-8.07 4.35-15.99 9.05-23.33 14.56-4.3 3.39-8.2 7.47-10.78 12.34-.79 1.46-1.46 3.95.63 4.62 4.41.83 8.47-1.62 11.77-4.24 10.75-8.52 23.54-13.98 36.42-18.4 5.31-1.87 10.89-2.99 16.54-2.67l1.99 1.99c-1.74 1.29-3.51 2.54-5.39 3.59-11.85 6.41-24.05 12.23-35.28 19.7-5.06 3.17-10.38 6.75-12.6 12.56 2.32 5.32 8.81 2.74 13.18 4.54 7.41 3.08 13.14 9.08 20.44 12.39 4.85 2.19 10.76.52 15.27 3.59 1.86 2.37-.54 5.45-3 6.05-5.6 1.66-11.41 2.49-17.06 4-6.43 1.77-13.16.3-19.67 1.57 1.7 7.34 6 13.56 10.16 19.68l-46.47 46.3c-2.41-6.08-6.04-12.68-12.73-14.74-8.88-1.64-18.36-.23-26.23 4.28-10.14 5.02-13.56 19.04-8.28 28.72-2.59-.37-5.54-1-6.76-3.63-3.63-6.02-1.4-13.85-5.38-19.73-3.47-4.63-9.35-6.54-12.99-11-3.76-4.61-6.36-10.22-6.94-16.19l-.23 2.2v-1.19c.36-5.11 4.03-8.81 7.71-11.9 7.63-6.39 15.11-13.39 19.74-22.33 3.97-7.82 7.52-16 13.26-22.74 6.35-8.17 16.22-12.32 23.6-19.36 4.2-4.15 7.8-8.86 11.94-13.06 5.09-5.36 11.06-9.78 17.17-13.88 11.41-7.29 24-13.17 37.45-15.39zm-48.8 156.79 48.34-48.1c7.46 6.82 13.89 14.75 21.77 21.14 6.2 4.9 14.24 6.34 21.91 7.01 9.65.71 19.33 1.17 28.94 2.33 7.02.84 14.16 1.14 20.98 3.16 7.1 2.02 14.03 4.58 21.12 6.63 14.23 4.03 29.23 8.35 44.03 4.62 24.37-6.12 48.99-11.25 73.75-15.58 6.58-1.03 13.31-1.18 19.92-.42 8.77 1.54 17.38 3.8 26.04 5.81 12.03 2.93 22.83 9.24 34.45 13.32 4.83 1.76 10.56 1.26 14.69-1.96 10.52-7.3 21.15-16.32 24.88-29.06.78-1.6.86-4.52 3.14-4.6 1.45 1.37 2.27 3.21 3.23 4.93l3.74 1.46v8.67c-.47 7.87-4.5 14.64-7.11 21.87l4.49-.16c-1.13 4.31-5.09 6.77-7.82 9.99l2.24 3.24c-4.52 4.31-12.49 4.07-15.29 10.19-2.4 10.17.86 20.49.33 30.75-.59 13.28-4.64 26.05-8.11 38.79-3.77 13.82-11.64 25.98-16.77 39.27-1.79 4.41-1.63 9.24-1.65 13.91.02 5.84-.07 11.87 2.02 17.42 3.21 8.78 8.97 16.32 14.92 23.41 3.26 3.75 7.86 7.58 7.37 13.08-1.69 13.32-7.61 25.56-11.38 38.33-2.56 9.02-3.63 18.42-3.45 27.78-.33 5.28.22 10.64-.9 15.87-2.15.27-4.89-.37-6.41 1.59-2.56 3.23-2.72 8.3-6.74 10.32-5.94 3.21-13.02 2.47-19.43 1.42.14-4.58.61-9.44 3.39-13.27 4.3-6.09 9.95-11.2 13.35-17.93 7.07-13.42 10.8-28.87 9.33-44.05-.63-6.61-4.83-12.2-9.89-16.21-5.45 4.67-8.86 11.07-12.95 16.85-5.29 7.56-7.8 16.57-9.76 25.47-1.53 7.25-3.67 14.45-3.93 21.9a146.91 146.91 0 0 1-1.11 13.26 81.1 81.1 0 0 1-5.18-1.5c-2.72 4.64-4.13 10.03-7.53 14.26-3.45 3.34-8.69 2.47-13.07 2.74-2.96.14-7.84-.76-7.31-4.73.6-7.79 5.65-14.2 10.62-19.85 7.34-8.67 13.79-18.3 17.58-29.08 3.45-9.4 4.81-19.38 6.01-29.27.5-5.29.88-11.03-1.83-15.83-2.93-5.6-8.39-9.09-13.34-12.69-6.11-4.45-11.5-9.8-16.45-15.48-1.25-1.3-2.45-2.88-4.27-3.33-4.95.41-9.38 2.93-14.12 4.16-7.38 2.01-15.08 3.34-22.74 2.84-16.51-2.2-32.7-6.32-48.62-11.12-7.8-2.38-15.48-5.32-23.58-6.58-6.71-1.12-13.45-2.12-20.04-3.84-3.52-.74-7.22-1.87-10.81-1.02-3.24 2.44-3.2 6.9-3.81 10.55-.51 6.27-1.68 12.45-2.73 18.65-1.22 6 .69 11.98 1.01 17.97.99 9.79-4.77 18.91-3.42 28.72 1.82 14.62 1.43 29.45 4.02 43.99.94 5.84 1.21 11.82.16 17.67l-4.18-2.68c-1.51 3.01-2.25 6.42-4.16 9.21-4.96 4.13-11.82 3.62-17.77 5h-.3c-3.95.07-5.38-3.69-4.25-6.91 2.98-10.39 10.25-18.82 14.67-28.57 1.68-4.29 1.68-9.02 1.71-13.56-.42-8.01-1.64-15.96-3-23.86-1.04-5.43-2.27-11.05-5.5-15.65-1.67-2.49-5.48-3.91-8.07-2-3.04 5.14-3.34 11.29-4.22 17.05-1.67 14.04-5 28.13-3.16 42.32.65 3.74 1.23 7.49 1.36 11.3l-4.88-.76c-2.31 3.75-2.36 9.14-6.28 11.72-6.82 2.44-14.26 3.46-21.46 2.61-2.58-1.64-1.53-5.32-.89-7.76 3.3-12.23 17.23-17.94 19.75-30.54 2.28-10.68-.02-21.65-.75-32.39-.6-10.98-7.24-20.19-10.26-30.49-3.74-13.15-6.79-26.51-8.92-40.02-.66-4.42-1.97-8.9-4.9-12.37-6.58-7.51-15.83-12.08-22.34-19.64-6.61-8.54-8.02-19.56-11.15-29.59-3.03-10.2-7.13-20.19-13.19-28.99-5.59-8.24-12.35-16.12-14.76-26.01-2.86-12.43-6.2-24.75-9.32-37.1m155.16 45.92-.01 56.28 9.37-.01-.01-56.46-9.35.19m55.51 17.04c-2.03.83-3.14 3.06-3 5.19l.01 34.05h9.5v-29.92c4.78-.34 9.66-.76 14.39.28 1.45.41 1.87 2.26 1.91 3.6.45 8.67.07 17.36.2 26.04l9.25.01c-.16-10 .64-20.01-.41-29.99 3.64-.58 7.45-.52 11.01.53 1.36.99 1.35 2.91 1.41 4.43L337 259h9.43l-.03-26.94c0-4.69-2.83-9.33-7.2-11.16-5.96-2.66-12.6-1.07-18.88-1.36l.01 2.53c-3.22-1.54-6.64-2.84-10.27-2.66-5.77.22-11.58-.44-17.32.34m62.58-.22.03 34.52c-.19 2.54 1.93 5.01 4.53 4.96 7.31.05 14.56-2.3 20.61-6.38 11.25-7.78 17.56-20.51 22.01-33.07l-10.13.01a59.37 59.37 0 0 1-6.62 14.33c-4.66 7.57-11.76 14.64-21.06 15.52l-.01-29.89a292.05 292.05 0 0 1-9.36 0m-104.78.04.03 9.45c6.57.03 13.3-1.1 19.75.51.96 1.28 1.37 2.86 1.26 4.45l-.01 25.02H281l-.08-27.18c-.05-6.36-5.61-11.93-11.9-12.2-6.16-.54-12.32-.12-18.48-.05z"/>
  <path fill="#fff" d="M79.54 149.94c15.71-15.21 31-30.85 46.47-46.3 1.05 2.01 2.66 3.62 4.4 5.05l-48.34 48.1c-.49-2.4-1.49-4.65-2.53-6.85zm157.69 52.77 9.35-.19.01 56.46-9.37.01.01-56.28zm55.51 17.04c5.74-.78 11.55-.12 17.32-.34 3.63-.18 7.05 1.12 10.27 2.66l-.01-2.53c6.28.29 12.92-1.3 18.88 1.36 4.37 1.83 7.2 6.47 7.2 11.16l.03 26.94H337l.01-25.03c-.06-1.52-.05-3.44-1.41-4.43-3.56-1.05-7.37-1.11-11.01-.53 1.05 9.98.25 19.99.41 29.99-3.09 0-6.17 0-9.25-.01-.13-8.68.25-17.37-.2-26.04-.04-1.34-.46-3.19-1.91-3.6-4.73-1.04-9.61-.62-14.39-.28v29.92h-9.5l-.01-34.05c-.14-2.13.97-4.36 3-5.19zm62.58-.22h9.36l.01 29.89c9.3-.88 16.4-7.95 21.06-15.52a59.37 59.37 0 0 0 6.62-14.33l10.13-.01c-4.45 12.56-10.76 25.29-22.01 33.07-6.05 4.08-13.3 6.43-20.61 6.38-2.6.05-4.72-2.42-4.53-4.96l-.03-34.52zm-104.78.04c6.16-.07 12.32-.49 18.48.05 6.29.27 11.85 5.84 11.9 12.2.2 9.05.02 18.12.08 27.18h-9.43l.01-25.02c.11-1.59-.3-3.17-1.26-4.45-6.45-1.61-13.18-.48-19.75-.51l-.03-9.45z"/>
</svg>
