<svg xmlns="http://www.w3.org/2000/svg" viewBox="0 0 297 330">
  <g fill="#3b6a80">
    <path d="M41.16 0h9.25c4.24 1.87 8.56 4.42 10.75 8.68 2.4 4.26 2.45 9.28 2.33 14.03l.08 22.65c18.91.3 37.83.15 56.74.03l-.08-22.7c.03-3.03 2.68-5.85 5.76-5.73 3.11-.16 5.75 2.69 5.78 5.73-.21 7.55-.11 15.11-.1 22.67l56.77.01.07-22.66c-.08-4.73-.26-9.79 2.25-14.02 2.4-4.44 6.97-7.27 11.7-8.69h7.15c5.74 2.2 11.21 6.52 12.56 12.8.38 5.1.4 10.21.31 15.31-1.9 1.05-4.43 1.83-5.01 4.21-1.42 3.57 1.64 7.52 5.36 7.49l-.04 153.6c6.02.05 12.05-.23 18.06.11 5.8.46 10.63 5.65 10.37 11.52l.05 124.96H.86l.03-124.97c-.33-5.85 4.53-11.04 10.29-11.51 6.02-.34 12.06-.07 18.1-.1L29.2 19.95c.03-2.41-.03-4.87.62-7.21C31.3 6.92 36.13 2.11 41.94.61L41.16 0m3.29 17.51c-1.85.71-3.6 2.41-3.52 4.53-.22 4.96.01 9.93-.1 14.9.13 2.27-.46 5.04 1.5 6.71 2.75 3.33 8.86 1.66 9.56-2.61.24-6.03.07-12.07.09-18.1.4-3.81-4.05-6.94-7.53-5.43m158.95.1c-2.02.93-3.48 3.11-3.37 5.36l.02 17.09c.01 4.14 5.11 6.84 8.57 4.57 3.05-1.75 2.81-5.67 2.84-8.71-.17-4.61.25-9.25-.24-13.85-.24-3.61-4.61-5.96-7.82-4.46M63.51 45.84l-.04 147.61 125.07-.01-.06-147.62c-18.89-.29-37.8-.17-56.69-.01l-.05 28.17c-.23 2.7.3 5.56-.57 8.16-1.34 3.3-5.64 3.47-8.43 2.22-3.47-2.33-2.13-6.88-2.48-10.38l-.06-28.17c-18.88-.18-37.8-.3-56.69.03m6.95 194.15-.06 38.86c2.39.24 4.8.24 7.2.01-.31-13.73.19-27.47-.25-41.18-2.22.62-7.55-1.62-6.89 2.31m9.75 10.06-.01 6.89c4.61.24 9.24-.11 13.85.19 1.49.64 1.67 2.37 1.67 3.78l.02 18.12c2.36.02 4.72-.02 7.08-.11-.24-6.65.2-13.33-.23-19.97-.1-4.3-3.43-8.08-7.66-8.75-4.89-.49-9.82-.16-14.72-.15m29.84 1.01c-1.24.92-1.02 2.55-1.09 3.91l.02 24.04 7.03.01v-22c3.36.06 6.72-.14 10.07.09 1.83.27 1.89 2.38 1.89 3.82l.02 18.09 7.03-.01c-.15-7.33.36-14.68-.33-21.99 2.79.56 7.05-1.41 8.78 1.54.61 6.79.09 13.65.26 20.47 2.36.01 4.72-.02 7.08-.1-.21-6.76.19-13.54-.22-20.3-.22-3.98-3.27-7.47-7.14-8.32-3.84-.62-7.77-.31-11.64-.29l-.55 1.73c-4.7-2.66-10.18-1.56-15.31-1.79-1.96.18-4.42-.58-5.9 1.1m46.93-1.08.02 25.09c-.17 1.77 1.13 3.68 2.93 3.9 5.27.25 10.58-1.27 15.01-4.14 8.68-5.59 13.41-15.25 16.85-24.64-2.51-.27-5.03-.29-7.54-.13-3.1 9.51-9.36 20.24-20.13 21.92-.22-7.33-.02-14.67-.11-22-2.34-.01-4.68-.01-7.03 0zM262.99 48.99c.88-2.36 3.48-3.78 5.95-3.6l22.13.03c3.01-.1 4.99 2.47 5.93 5.04v24.52c-1.04 2.42-3.01 4.84-5.9 4.8-7.39.15-14.8.06-22.2.04-2.8.28-5.02-1.74-6.27-4.04.26-2.57.31-5.16.04-7.74-.57-6.35.25-12.7.32-19.05z"/>
    <path d="M80.58 103.84c-.86-2.98 1.25-6.27 4.21-6.94h64.25c6.14-.52 12.3.46 18.42-.3 2.28 1.28 4.63 3.41 4.05 6.31l-11.48 57.11c-.19 2.99-3.01 5.37-6 4.98-19.06-.04-38.12.09-57.17-.06-4.59-.31-5.53-5.73-6.12-9.37l-10.16-51.73z"/>
  </g>
  <path fill="#aabece" d="M222.17 12.8c1.04 5.15.47 10.45.57 15.66l22.26-.01c3.13-.24 6.24 2.26 6.19 5.5.24 7.66.04 15.34.07 23.01l11.14.05c.05-2.68-.01-5.39.59-8.02-.07 6.35-.89 12.7-.32 19.05.27 2.58.22 5.17-.04 7.74-.51-2.43 0-4.94-.11-7.4-5.83-.25-11.67.07-17.5-.15-3.22.02-5.52-3.22-5.29-6.26l.02-22.12c-5.64-.13-11.28-.03-16.92-.04-3.72.03-6.78-3.92-5.36-7.49.58-2.38 3.11-3.16 5.01-4.21.09-5.1.07-10.21-.31-15.31zM44.45 17.51c3.48-1.51 7.93 1.62 7.53 5.43-.02 6.03.15 12.07-.09 18.1-.7 4.27-6.81 5.94-9.56 2.61-1.96-1.67-1.37-4.44-1.5-6.71.11-4.97-.12-9.94.1-14.9-.08-2.12 1.67-3.82 3.52-4.53zm158.95.1c3.21-1.5 7.58.85 7.82 4.46.49 4.6.07 9.24.24 13.85-.03 3.04.21 6.96-2.84 8.71-3.46 2.27-8.56-.43-8.57-4.57-.1-5.69-.06-11.39-.02-17.09-.11-2.25 1.35-4.43 3.37-5.36zm-139.91 5.1 56.74-.02c.2 7.56.12 15.14.08 22.7-18.91.12-37.83.27-56.74-.03-.16-7.55-.04-15.1-.08-22.65zm68.28-.02 56.74.02-.07 22.66c-18.92.29-37.86.13-56.77-.01l.1-22.67zm-25.12 52.76c4.32-1.75 9.05-1.47 13.61-1.47.35 3.5-.99 8.05 2.48 10.38 2.79 1.25 7.09 1.08 8.43-2.22.87-2.6.34-5.46.57-8.16 4.88-.01 9.99-.31 14.55 1.79 8.22 3.37 13.91 11.85 13.93 20.74 2.41-.08 4.85-.36 7.24.09-6.12.76-12.28-.22-18.42.3-21.41.5-42.84-.18-64.25 0 2.34-.29 4.7-.2 7.05-.19-.01-9.27 6.1-18.1 14.81-21.26m-3.4 21.32 45.61-.06c-.2-5.7-4.93-11.13-10.8-11.15h-24.04c-5.9 0-10.66 5.47-10.77 11.21z"/>
  <path fill="#fff" d="M70.46 239.99c-.66-3.93 4.67-1.69 6.89-2.31.44 13.71-.06 27.45.25 41.18-2.4.23-4.81.23-7.2-.01l.06-38.86zm9.75 10.06c4.9-.01 9.83-.34 14.72.15 4.23.67 7.56 4.45 7.66 8.75.43 6.64-.01 13.32.23 19.97-2.36.09-4.72.13-7.08.11l-.02-18.12c0-1.41-.18-3.14-1.67-3.78-4.61-.3-9.24.05-13.85-.19a226.07 226.07 0 0 0 .01-6.89zm29.84 1.01c1.48-1.68 3.94-.92 5.9-1.1 5.13.23 10.61-.87 15.31 1.79l.55-1.73c3.87-.02 7.8-.33 11.64.29 3.87.85 6.92 4.34 7.14 8.32.41 6.76.01 13.54.22 20.3-2.36.08-4.72.11-7.08.1-.17-6.82.35-13.68-.26-20.47-1.73-2.95-5.99-.98-8.78-1.54.69 7.31.18 14.66.33 21.99l-7.03.01-.02-18.09c0-1.44-.06-3.55-1.89-3.82-3.35-.23-6.71-.03-10.07-.09v22c-2.34 0-4.68 0-7.03-.01l-.02-24.04c.07-1.36-.15-2.99 1.09-3.91zm46.93-1.08h7.03l.11 22c10.77-1.68 17.03-12.41 20.13-21.92 2.51-.16 5.03-.14 7.54.13-3.44 9.39-8.17 19.05-16.85 24.64-4.43 2.87-9.74 4.39-15.01 4.14-1.8-.22-3.1-2.13-2.93-3.9l-.02-25.09z"/>
</svg>
