<?xml version="1.0" encoding="UTF-8" standalone="no"?>
<!DOCTYPE svg  PUBLIC '-//W3C//DTD SVG 20010904//EN'  'http://www.w3.org/TR/2001/REC-SVG-20010904/DTD/svg10.dtd'>
<svg xmlns="http://www.w3.org/2000/svg" height="1080pt" width="1080pt" version="1.0" preserveAspectRatio="xMidYMid meet" viewBox="0 0 1080.000000 1080.000000">
 <metadata>Created by potrace 1.15, written by Peter Selinger 2001-2017</metadata>
 <g transform="translate(0 1080) scale(0.1 -0.1)" fill="#337ab7">
  <path d="m4600 10005l-795-795h-1112-1113v-1113-1112l-790-790c-434-434-790-797-790-805s356-370 790-805l790-790v-1112-1113h1113 1112l785-785c517-517 792-785 805-785s289 269 805 785l785 785h1117 1118v1118 1117l792 793 793 792-793 793-792 792v1118 1117h-1117-1118l-795 795-795 795-795-795zm1197-427c233-233 423-427 423-432 0-4-191-200-425-434l-425-426-425 425c-233 233-425 428-425 434 0 10 840 855 850 855 3 0 195-190 427-422zm2873-1513v-605h-605-605v605 605h605 605v-605zm-5360-40v-605h-605-605v605 605h605 605v-605zm2361 170c1047-105 1938-769 2339-1745 262-638 275-1390 35-2031-255-682-752-1235-1390-1549-419-206-791-293-1255-293s-836 87-1255 293c-767 377-1330 1106-1504 1947-41 197-54 339-54 573-1 462 87 835 293 1255 136 277 305 511 529 736 598 598 1429 897 2262 814zm-3605-2395c230-230 420-423 422-428 2-8-835-852-846-852-4 0-198 191-432 425l-425 425 425 425c234 234 427 425 431 425 3 0 194-189 425-420zm7524-5l425-425-425-425c-234-234-428-425-432-425-12 0-849 843-845 853 3 11 838 847 846 847 3 0 197-191 431-425zm-6260-3070v-605h-605-605v605 605h605 605v-605zm5320-30v-605h-605-605v605 605h605 605v-605zm-2854-630c233-233 424-428 424-432s-191-199-425-433l-425-425-425 425c-234 234-425 429-425 433 0 8 840 856 848 857 2 0 195-191 428-425z"/>
  <path d="m5175 7789c-237-22-516-94-731-189-162-71-224-105-382-209-888-587-1280-1708-956-2733 292-920 1116-1579 2084-1667 231-22 440-9 681 40 462 93 856 298 1194 620 982 938 990 2513 18 3460-124 122-208 189-345 280-158 104-220 138-382 209-358 157-787 226-1181 189zm-1430-2174v-750l-117-3-118-3v756 756l118-3 117-3v-750zm637 276c66-32 125-93 156-159l27-57 3-407 3-408h-115-115l-3 373c-2 204-7 379-11 388-17 34-54 39-277 39h-220v131 130l253-3c241-3 254-4 299-27zm1071-8l57-31v34 34h184c146 0 195-4 236-17 70-23 159-104 191-175 24-53 24-56 27-460l3-408h-115-115l-3 373c-2 204-7 379-11 388-14 29-56 39-165 39h-107v-397-398l-117-3-118-3v359c0 225-4 370-10 389-17 46-44 53-220 53h-160v-400-400h-115-115v485c0 531 0 528 58 560 23 12 71 14 292 12l265-2 58-32zm1137-358c0-451-11-410 98-377 201 63 421 341 534 675l33 97h122c70 0 123-4 123-9 0-25-88-259-136-360-146-308-323-507-545-610-107-50-198-72-305-74l-85-2-35 37-34 38v490 490h115 115v-395z"/>
 </g>
</svg>
